<svg version="1.2" xmlns="http://www.w3.org/2000/svg" viewBox="0 0 17 13" width="17" height="13">
	<title>main</title>
	<style>
		.s0 { fill: #f0c799 } 
		.s1 { opacity: .5;fill: #919190 } 
		.s2 { fill: #000000 } 
		.s3 { fill: #ed1c24 } 
		.s4 { opacity: .9;fill: none;stroke: #919190;stroke-width: 2 } 
		.s5 { opacity: .8;fill: #919190 } 
		.s6 { fill: none;stroke: #919190 } 
		.s7 { opacity: .7;fill: #919190 } 
		.s8 { fill: #a68a6a } 
		.s9 { opacity: .8;fill: #6e6e6e } 
		.s10 { fill: #c5a47e } 
		.s11 { fill: #ffffff } 
		.s12 { fill: none } 
		.s13 { fill: #1e252d } 
		.s14 { fill: #0d1c29 } 
		.s15 { fill: #919190 } 
		.s16 { fill: #ff0d29 } 
		.s17 { opacity: .5;fill: #ffffff } 
	</style>
	<path id="Icon" fill-rule="evenodd" class="s0" d="m206.1 75.9l-2.5 3.1l0.6 4q0.1 0.5 0 1q-0.1 0.5-0.4 1q-0.2 0.4-0.6 0.8q-0.4 0.3-0.9 0.5l-3.7 1.5l-1.4 3.7q-0.2 0.4-0.5 0.8q-0.3 0.4-0.7 0.6q-0.3 0.3-0.8 0.4q-0.4 0.2-0.9 0.2q0 0-0.1 0q-0.1 0-0.1 0q-0.1-0.1-0.1-0.1q-0.1 0-0.1 0l-4-0.6l-3 2.5q-0.4 0.3-0.9 0.5q-0.5 0.2-1 0.2q-0.6 0-1.1-0.2q-0.5-0.2-0.9-0.5l-3-2.5l-3.9 0.6q-0.1 0-0.2 0q0 0-0.1 0.1q0 0-0.1 0q-0.1 0-0.1 0q-0.5 0-0.9-0.2q-0.5-0.1-0.8-0.4q-0.4-0.2-0.7-0.6q-0.3-0.4-0.5-0.8l-1.4-3.7l-3.7-1.5q-0.5-0.2-0.9-0.5q-0.4-0.4-0.6-0.8q-0.3-0.5-0.4-1q-0.1-0.5 0-1l0.6-4l-2.5-3.1q-0.3-0.4-0.5-0.9q-0.1-0.5-0.1-1q0-0.5 0.1-1q0.2-0.5 0.5-0.9l0.6-0.7q1.2 0.1 2.3 0.3l-1.3 1.6q-0.1 0.2-0.2 0.3q0 0.2 0 0.4q0 0.2 0 0.3q0.1 0.2 0.2 0.4l2 2.5q0.3 0.2 0.5 0.4q0.2 0.3 0.3 0.5q0.1 0.3 0.1 0.6q0.1 0.3 0 0.6q0 0 0 0l-0.6 4q-0.1 0.2 0 0.4q0 0.1 0.1 0.3q0.1 0.2 0.2 0.3q0.2 0.1 0.3 0.2l3.1 1.1q0.3 0.1 0.5 0.2q0.3 0 0.5 0.2q0.2 0.1 0.4 0.3q0.1 0.2 0.2 0.4q0.1 0.1 0.1 0.1q0 0 0 0.1q0 0 0 0q0 0.1 0 0.1h0.1l1.4 3.8q0 0.1 0.1 0.3q0.1 0.1 0.3 0.2q0.1 0.1 0.3 0.1q0.1 0.1 0.3 0.1q0 0 0 0q0 0 0.1 0q0 0 0 0q0 0 0 0l4-0.7q0 0 0 0q0.1 0 0.1 0q0 0 0.1 0q0 0 0.1 0q0.1 0 0.3 0q0.2 0.1 0.3 0.1q0.2 0.1 0.3 0.2q0.2 0 0.3 0.1l3.1 2.6q0.1 0.1 0.3 0.1q0.2 0.1 0.4 0.1q0.1 0 0.3-0.1q0.2 0 0.3-0.1l3.1-2.6q0.1-0.1 0.3-0.1q0.1-0.1 0.3-0.2q0.1 0 0.3-0.1q0.2 0 0.3 0q0.1 0 0.1 0q0.1 0 0.1 0q0 0 0.1 0q0 0 0.1 0l3.9 0.7q0 0 0 0q0 0 0 0q0.1 0 0.1 0q0 0 0 0q0.2 0 0.3-0.1q0.2 0 0.3-0.1q0.2-0.1 0.3-0.2q0.1-0.2 0.1-0.3l1.2-3.1q0-0.3 0.1-0.5q0.1-0.3 0.2-0.5q0.2-0.2 0.4-0.4q0.2-0.2 0.4-0.3q0 0 0 0q0.1 0 0.1 0q0 0 0.1-0.1q0 0 0 0h0.1l3.7-1.4q0.1-0.1 0.3-0.2q0.1-0.1 0.2-0.3q0.1-0.2 0.1-0.3q0.1-0.2 0-0.4l-0.6-4q0-0.2 0-0.4q0-0.2 0.1-0.4q0-0.2 0.1-0.4q0.1-0.2 0.2-0.3l2.5-3.1q0.1-0.2 0.2-0.3q0.1-0.2 0.1-0.4q0-0.2-0.1-0.4q-0.1-0.1-0.2-0.3l-2-2.6q-0.4-0.2-0.6-0.5q-0.2-0.4-0.3-0.7q-0.1-0.4-0.1-0.8q0.1-0.4 0.2-0.7l0.5-3.3q0.1-0.2 0-0.4q0-0.2-0.1-0.3q-0.1-0.2-0.2-0.3q-0.2-0.1-0.3-0.2l-3.7-1.4q-0.2-0.1-0.4-0.2q-0.2-0.1-0.3-0.3q-0.2-0.1-0.3-0.3q-0.1-0.2-0.2-0.4l-1.4-3.7q0-0.2-0.1-0.3q-0.1-0.1-0.3-0.2q-0.1-0.1-0.3-0.1q-0.1-0.1-0.3-0.1q0 0 0 0q0 0-0.1 0q0 0 0 0q0 0 0 0l-3.9 0.6q-0.2 0.1-0.5 0.1q-0.2 0-0.4-0.1q-0.2 0-0.4-0.1q-0.1-0.1-0.3-0.3l-3.1-2.5q-0.1-0.1-0.3-0.1q-0.2-0.1-0.3-0.1q-0.2 0-0.4 0.1q-0.2 0-0.3 0.1l-2.6 2.1q-0.1 0.2-0.3 0.4q-0.3 0.2-0.5 0.3q-0.3 0.2-0.6 0.2q-0.3 0-0.6 0l-4-0.7q0 0 0 0q0 0 0 0q0 0-0.1 0q0 0 0 0q-0.2 0-0.3 0.1q-0.2 0-0.3 0.1q-0.1 0.1-0.3 0.2q-0.1 0.2-0.1 0.3l-1.4 3.7q-0.1 0.2-0.2 0.4q-0.1 0.2-0.3 0.3q-0.1 0.2-0.3 0.3q-0.2 0.1-0.4 0.2l-3.7 1.4q-0.1 0.1-0.3 0.2q-0.1 0.1-0.2 0.3q-0.1 0.1-0.1 0.3q-0.1 0.2 0 0.4l0.4 3q-0.9-0.1-2-0.2l-0.4-2.5q-0.1-0.5 0-1q0.1-0.6 0.4-1q0.2-0.5 0.6-0.8q0.4-0.4 0.9-0.6l3.7-1.4l1.4-3.7q0.2-0.4 0.5-0.8q0.3-0.4 0.7-0.6q0.3-0.3 0.8-0.4q0.4-0.2 0.9-0.2q0 0 0.1 0q0.1 0 0.1 0q0.1 0 0.1 0q0.1 0 0.2 0.1l3.9 0.6l3-2.5q0.4-0.4 0.9-0.5q0.5-0.2 1.1-0.2q0.5 0 1 0.2q0.5 0.1 0.9 0.5l3 2.5l3.9-0.7q0.1 0 0.2 0q0 0 0.1 0q0 0 0.1 0q0.1 0 0.1 0q0.5 0 0.9 0.2q0.5 0.1 0.8 0.4q0.4 0.2 0.7 0.6q0.3 0.4 0.5 0.8l1.4 3.7l3.7 1.4q0.5 0.2 0.9 0.6q0.4 0.3 0.6 0.8q0.3 0.4 0.4 1q0.1 0.5 0 1l-0.6 3.9l2.5 3.1q0.3 0.5 0.5 1q0.1 0.5 0.1 1q0 0.5-0.1 1q-0.2 0.5-0.5 0.9zm-40-6.7q1.1 0.1 2.2 0.3q-0.1 0-0.1 0q0 0.2-0.1 0.4q-0.1 0.1-0.2 0.3l-0.7 0.9q-1.2-0.2-2.3-0.3zm0.2-0.3l-0.2-0.9q1 0.1 2.1 0.2v0.4q0.1 0.2 0.1 0.4q-0.1 0.1-0.1 0.2q-0.9-0.1-2-0.2zm23.7 7.9q-0.1 0-0.3 0q-0.1 0.1-0.2 0.1q-0.1 0-0.3 0q-0.1 0-0.2 0h-1.7l4.4 4.4l-0.7 0.7l-0.7 0.7l-5.3-5.3l-5.3 5.3l-1.4-1.4l4.3-4.4h-1.6q-0.1 0-0.3 0q-0.1 0-0.2 0q-0.1 0-0.3 0q-0.1-0.1-0.2-0.1q-0.7-0.2-1.4-0.5q-0.6-0.4-1.1-0.9q-0.6-0.5-0.9-1.2q-0.3-0.6-0.5-1.2c2.3 0.3 2.3 0.4 2.3 0.4q0.3 0.5 0.7 0.8q0.4 0.3 0.9 0.5q0.5 0.2 1 0.2h3v-3.1q0-0.2 0-0.4q1 0.2 2 0.3q0 0 0 0q0-0.1 0-0.2q0 0 0-0.1q-0.9-0.1-2.1-0.2q0-0.2-0.1-0.4q-0.1-0.3-0.3-0.7q1.4 0.2 2.8 0.4q0-0.1 0.1-0.1q0.1-0.3 0.3-0.5q-1.6-0.2-3.8-0.4q-0.2-0.2-0.3-0.3q-0.5-0.2-1-0.4q-0.1 0-0.2 0q0 0-0.1 0q-0.1 0-0.2 0q0 0-0.1 0q-0.1 0-0.2 0q0 0-0.1 0q-0.1 0-0.2 0q0 0-0.1 0q-0.4 0.1-0.7 0.3q-1.3-0.2-2.7-0.3q0.2-0.3 0.5-0.5q0.5-0.6 1.1-0.9q0.7-0.4 1.4-0.5q0.2-0.1 0.5-0.1q0.1 0 0.1 0q0.1 0 0.1 0q0.1 0 0.2 0q0 0 0.1 0q0.1 0 0.1 0q0.1 0 0.2 0q0.1 0 0.1 0q0.1 0 0.2 0q0 0 0.1 0q0.2 0 0.4 0.1q0.1 0 0.2 0q0.1 0.1 0.2 0.1q0.1 0 0.2 0q0.1 0.1 0.1 0.1q0.2 0.1 0.3 0.1q0.1 0.1 0.1 0.1q0.1 0 0.2 0.1q0 0 0.1 0.1q0.1 0 0.1 0q0.2 0.2 0.4 0.3q0.2 0.1 0.3 0.3q0.2 0.1 0.3 0.3q0.1 0 0.1 0.1q0.1 0 0.1 0.1q0.1 0 0.1 0.1q0.1 0.1 0.1 0.1q0 0 0.1-0.1q0-0.1 0.1-0.1q0-0.1 0.1-0.1q0-0.1 0.1-0.1q0.1-0.2 0.3-0.3q0.1-0.2 0.3-0.3q0.2-0.2 0.4-0.3q0 0 0.1 0q0.1-0.1 0.1-0.1q0.1-0.1 0.2-0.1q0.1 0 0.1-0.1q0.1 0 0.3-0.1q0.1 0 0.1-0.1q0.1 0 0.2 0q0.1 0 0.2-0.1q0.1 0 0.2 0q0.2-0.1 0.4-0.1q0.1 0 0.1 0q0.1 0 0.2 0q0 0 0.1 0q0.1 0 0.2-0.1q0 0 0.1 0q0.1 0 0.2 0.1q0.2 0 0.3 0q0.1 0 0.2 0q0.2 0 0.3 0q0.7 0.2 1.4 0.6q0.6 0.3 1.1 0.8q0.6 0.6 0.9 1.2q0.3 0.7 0.5 1.4q0 0.3 0.1 0.5q0 0.3 0 0.5q0 0.3 0 0.5q-0.1 0.3-0.1 0.5q-0.2 0.8-0.5 1.4q-0.3 0.7-0.9 1.2q-0.5 0.5-1.1 0.9q-0.7 0.3-1.4 0.5zm-13.9-4q-0.1-0.2-0.1-0.5q0 0 0-0.1q-4.4-0.6-8.8-1.2l-0.5 0.6c4.9 0.7 7.8 1.1 9.4 1.4q0-0.1 0-0.2zm-0.1-1q0-0.2 0-0.5q0-0.2 0.1-0.5q0-0.2 0.1-0.4q1 0.1 2 0.3q-0.1 0.2-0.1 0.5q-0.1 0.1-0.1 0.2q0 0 0 0.1q0 0.1 0 0.2q0 0 0 0.1q0 0.1 0 0.2q0 0.1 0 0.1q0 0.1 0 0.2q0 0.1 0.1 0.1q-1.1-0.1-2.1-0.2q0-0.2 0-0.4zm0.3-1.6q0.1-0.4 0.3-0.8q0 0 0.1-0.1q1.1 0.1 2.3 0.3q-0.1 0-0.1 0.1q-0.3 0.3-0.5 0.7q-0.1 0-0.1 0.1q-1-0.2-2-0.3zm15.6 1q-2.8-0.3-5.6-0.7q-0.2 0.3-0.2 0.7q-0.1 0.1-0.1 0.2q0 0 0 0c6 0.8 6 0.8 6 0.7q0-0.1 0-0.3q0-0.1 0-0.3q0-0.1-0.1-0.3zm-25.8-3.8l0.1 0.5c-536.2-68-536.2-68-536.2-68c361 45.6 490 61.8 536.1 67.5zm25.5 3q-0.2-0.4-0.5-0.7q-0.3-0.3-0.7-0.5q-0.4-0.3-0.8-0.4q-0.1 0-0.2 0q0 0-0.1 0q-0.1 0-0.2 0q0 0-0.1 0q-0.1 0-0.2 0q0 0-0.1 0q-0.1 0-0.2 0q0 0-0.1 0q-0.4 0.1-0.8 0.4q-0.4 0.2-0.7 0.5q-0.1 0.1-0.2 0.2c5 0.6 5 0.5 4.9 0.5zm-25.3-1.5l-0.2 0.2c-536.1-69.2-536.1-69.2-536.1-69.2c361 46.6 490.1 63.1 536.3 69zm19.7 2.9v3.1h3q0.5 0 1-0.2q0.5-0.2 0.9-0.5q0.4-0.3 0.7-0.8q0.2-0.4 0.3-1q-2.9-0.3-5.9-0.7q0 0.1 0 0.1zm-9-3q-0.2 0.2-0.3 0.5q-4.3-0.6-8.5-1.1l-0.1-0.5c3.5 0.4 6.4 0.7 8.9 1.1zm-0.7 1.4q-0.1 0.1-0.1 0.2q-4-0.5-8-1q0.1-0.1 0.1-0.2q4.5 0.6 8 1zm7-0.3q-0.2-0.2-0.4-0.4q-1.4-0.2-3.2-0.4q-0.1 0-0.1 0q-0.4 0.2-0.6 0.5q2.2 0.3 4.5 0.5q-0.1-0.1-0.2-0.2zm-553.3-70c387.1 51.5 500.9 66.8 534.4 71.4l0.5-0.6c-534.9-70.8-534.9-70.8-534.9-70.8zm548.2 70.8q2.9 0.3 5.8 0.7q-0.1-0.1-0.1-0.2q-2.3-0.3-5.6-0.7q0 0.1-0.1 0.2z" />
	<path id="Icon-2" fill-rule="evenodd" class="s1" d="m69 6q-0.3 0.2-0.6 0.4q-0.3 0.2-0.6 0.3q-0.3 0.2-0.7 0.2q-0.3 0.1-0.7 0.1h-1.1q-0.4 0-0.7-0.1q-0.4 0-0.7-0.2q-0.3-0.1-0.6-0.3q-0.3-0.2-0.6-0.4q0-0.1 0-0.1q-0.1 0-0.1-0.1q0 0 0 0q-0.1-0.1-0.1-0.1q0 0-0.1 0.1q0 0 0 0q0 0.1-0.1 0.1q0 0 0 0.1q-0.3 0.2-0.6 0.4q-0.3 0.2-0.6 0.3q-0.3 0.2-0.7 0.2q-0.3 0.1-0.7 0.1h-1.1q-0.4 0-0.7-0.1q-0.4 0-0.7-0.2q-0.3-0.1-0.6-0.3q-0.3-0.2-0.6-0.4q-0.2-0.3-0.4-0.6q-0.2-0.2-0.3-0.6q-0.2-0.3-0.2-0.6q-0.1-0.4-0.1-0.7q0-0.3 0.1-0.7q0-0.3 0.2-0.6q0.1-0.4 0.3-0.6q0.2-0.3 0.4-0.6q0.3-0.2 0.6-0.4q0.3-0.2 0.6-0.3q0.3-0.2 0.7-0.2q0.3-0.1 0.7-0.1h1.1q0.4 0 0.7 0.1q0.4 0 0.7 0.2q0.3 0.1 0.6 0.3q0.3 0.2 0.6 0.4q0 0.1 0 0.1q0.1 0 0.1 0.1q0 0 0 0q0.1 0.1 0.1 0.1q0 0 0.1-0.1q0 0 0 0q0-0.1 0.1-0.1q0 0 0-0.1q0.3-0.2 0.6-0.4q0.3-0.2 0.6-0.3q0.3-0.2 0.7-0.2q0.3-0.1 0.7-0.1h1.1q0.4 0 0.7 0.1q0.4 0 0.7 0.2q0.3 0.1 0.6 0.3q0.3 0.2 0.6 0.4q0.2 0.3 0.4 0.6q0.2 0.2 0.3 0.6q0.2 0.3 0.2 0.6q0.1 0.4 0.1 0.7q0 0.3-0.1 0.7q0 0.3-0.2 0.6q-0.1 0.4-0.3 0.6q-0.2 0.3-0.4 0.6zm-2.6-4.9h-1.1q-0.3 0-0.5 0.1q-0.2 0-0.5 0.1q-0.2 0.1-0.4 0.2q-0.2 0.1-0.4 0.3q0 0 0 0.1q0 0-0.1 0.1q0 0 0 0q-0.1 0.1-0.1 0.1h-1.6q0 0-0.1-0.1q0 0 0 0q-0.1-0.1-0.1-0.1q0-0.1 0-0.1q-0.2-0.2-0.4-0.3q-0.2-0.1-0.4-0.2q-0.3-0.1-0.5-0.1q-0.2-0.1-0.5-0.1h-1.1q-0.5 0-1 0.2q-0.4 0.2-0.7 0.5q-0.4 0.3-0.6 0.8q-0.2 0.4-0.2 0.9q0 0.2 0.1 0.5q0 0.2 0.1 0.4q0.1 0.2 0.2 0.4q0.2 0.2 0.3 0.4q0.2 0.1 0.4 0.3q0.2 0.1 0.4 0.2q0.2 0.1 0.5 0.1q0.2 0.1 0.5 0.1h1.1q0.3 0 0.6-0.1q0.3 0 0.5-0.2q0.3-0.1 0.5-0.3q0.2-0.2 0.4-0.4h1.6q0.2 0.2 0.4 0.4q0.2 0.2 0.5 0.3q0.2 0.2 0.5 0.2q0.3 0.1 0.6 0.1h1.1q0.3 0 0.5-0.1q0.2 0 0.5-0.1q0.2-0.1 0.4-0.2q0.2-0.2 0.4-0.3q0.1-0.2 0.3-0.4q0.1-0.2 0.2-0.4q0.1-0.2 0.1-0.4q0.1-0.3 0.1-0.5q0-0.5-0.2-0.9q-0.2-0.5-0.6-0.8q-0.3-0.3-0.7-0.5q-0.5-0.2-1-0.2zm-6.4 1.9h5v1h-5c0 0 0-1 0-1z" />
	<path id="Icon-3" fill-rule="evenodd" class="s1" d="m90 7.5v4.5h-11v-10h2v-1h1v1h2.5c0.7-1.1 1.8-1.8 3-2c1.2-0.1 2.5 0.3 3.3 1.2c0.9 0.8 1.3 2.1 1.2 3.3c-0.2 1.2-0.9 2.3-2 3zm-9-4.5h-1v1h1zm3 0h-2v1h2q0-0.1 0-0.2q0-0.2 0-0.3q0-0.1 0-0.3q0-0.1 0-0.2zm0.1 2h-4.1v6h9v-3.1q-0.1 0-0.2 0q-0.2 0-0.3 0.1q-0.1 0-0.2 0q-0.2 0-0.3 0q-0.7 0-1.3-0.2q-0.6-0.2-1.1-0.6q-0.6-0.4-0.9-1q-0.4-0.6-0.6-1.2zm3.9-4c-1.2 0-2.3 0.7-2.8 1.9c-0.4 1.1-0.2 2.4 0.7 3.2c0.8 0.9 2.1 1.1 3.2 0.7c1.2-0.5 1.9-1.6 1.9-2.8q0-0.6-0.2-1.1q-0.3-0.6-0.7-1q-0.4-0.4-1-0.7q-0.5-0.2-1.1-0.2zm-1 5v-1l1-1v-2h0.8v2.7l-0.8 1.3zm-1 4h-1v-1h1zm2 0h-1v-1h1zm-5-1h1v1h-1zm0-2h1v1h-1zm-2 2h1v1h-1zm0-2h1v1h-1z" />
	<path id="Title" fill-rule="evenodd" class="s0" d="m135.9 62.1q-0.2 1-0.5 1.9q-0.4 1-0.9 1.8q-0.5 0.9-1.2 1.6q-0.6 0.7-1.4 1.2q-0.7 0.5-1.5 0.9q-0.8 0.3-1.7 0.5q-0.8 0.2-1.7 0.2q-0.8 0-1.5-0.1q-0.7-0.1-1.4-0.4q-0.7-0.3-1.3-0.7q-0.6-0.4-1.1-1q-0.4-0.6-0.8-1.2q-0.3-0.6-0.5-1.3q-0.3-0.7-0.4-1.4q-0.1-0.7-0.1-1.4q0-1 0.2-1.9q0.1-0.9 0.5-1.8q0.3-0.9 0.8-1.7q0.5-0.7 1.1-1.4q0.6-0.7 1.3-1.2q0.7-0.6 1.5-1q0.8-0.3 1.7-0.5q0.8-0.2 1.7-0.2q0.8 0 1.5 0.2q0.7 0.1 1.4 0.4q0.8 0.2 1.4 0.5q0.7 0.3 1.4 0.6q0.7 0.4 1.4 0.7q0.8 0.3 1.5 0.5q0.8 0.2 1.6 0.4q0.7 0.1 1.5 0.1q4.6 0 8.9-4.5h3.7l-21.6 37.1h-4.7l19-32.7q-0.6 0.3-1.3 0.5q-0.6 0.3-1.3 0.4q-0.6 0.2-1.3 0.3q-0.7 0-1.4 0q-0.7 0-1.3 0q-0.7-0.1-1.4-0.3q-0.7-0.1-1.3-0.4q-0.7-0.2-1.3-0.5q0.2 0.5 0.4 0.9q0.1 0.5 0.2 1q0.1 0.4 0.2 0.9q0.1 0.5 0.1 1q0 1-0.1 2zm24.5 15.4q-0.1 1-0.5 2q-0.3 0.9-0.9 1.8q-0.5 0.9-1.2 1.6q-0.6 0.6-1.3 1.2q-0.8 0.5-1.6 0.8q-0.8 0.4-1.7 0.6q-0.8 0.1-1.7 0.1q-0.7 0.1-1.5 0q-0.7-0.2-1.4-0.4q-0.7-0.3-1.3-0.8q-0.5-0.4-1-1q-0.5-0.5-0.8-1.1q-0.4-0.7-0.6-1.4q-0.2-0.6-0.4-1.4q-0.1-0.7 0-1.4q-0.1-1 0.1-1.9q0.2-1 0.5-1.9q0.4-0.9 1-1.7q0.5-0.8 1.2-1.5q0.7-0.6 1.5-1.2q0.8-0.5 1.7-0.8q0.9-0.4 1.8-0.6q0.9-0.1 1.9-0.1q0.7-0.1 1.3 0.1q0.7 0.1 1.3 0.4q0.6 0.2 1.1 0.6q0.6 0.4 1 1q0.4 0.5 0.7 1.1q0.3 0.6 0.5 1.3q0.2 0.6 0.3 1.3q0.1 0.6 0.1 1.3q0.1 1-0.1 2zm-6.8-7.2q-0.7 0.1-1.2 0.5q-0.6 0.3-1.1 0.8q-0.5 0.4-0.8 1q-0.5 0.6-0.8 1.3q-0.3 0.7-0.5 1.4q-0.2 0.7-0.4 1.4q-0.1 0.8-0.1 1.5q0 0.5 0.1 1.1q0 0.5 0.2 1q0.1 0.5 0.3 1q0.2 0.4 0.5 0.9q0.2 0.4 0.6 0.7q0.3 0.3 0.7 0.5q0.4 0.2 0.9 0.3q0.4 0.1 0.9 0.1q0.6 0 1.3-0.2q0.7-0.2 1.2-0.5q0.6-0.3 1.1-0.8q0.5-0.5 0.9-1q0.4-0.6 0.7-1.3q0.4-0.7 0.6-1.4q0.2-0.7 0.3-1.5q0.1-0.7 0.1-1.5q0.1-0.5 0-1q-0.1-0.5-0.2-1q-0.1-0.5-0.3-1q-0.3-0.5-0.5-0.9q-0.3-0.4-0.6-0.7q-0.4-0.3-0.8-0.5q-0.4-0.2-0.9-0.3q-0.4-0.1-0.9-0.1q-0.7 0-1.3 0.2zm-24.5-15.5q-0.7 0.2-1.3 0.5q-0.6 0.3-1 0.8q-0.5 0.5-0.9 1.1q-0.4 0.6-0.7 1.2q-0.3 0.7-0.6 1.4q-0.2 0.7-0.3 1.5q-0.1 0.7-0.1 1.5q0 0.5 0.1 1q0 0.5 0.1 1q0.2 0.5 0.4 1q0.2 0.5 0.5 0.9q0.2 0.4 0.5 0.7q0.4 0.3 0.8 0.5q0.4 0.2 0.8 0.3q0.5 0.1 0.9 0.1q0.7 0 1.4-0.1q0.6-0.2 1.2-0.5q0.6-0.4 1.1-0.8q0.5-0.5 0.8-1.1q0.5-0.6 0.8-1.3q0.3-0.6 0.6-1.4q0.2-0.7 0.3-1.4q0.1-0.8 0.1-1.5q0-0.5 0-1.1q-0.1-0.5-0.2-1q-0.2-0.5-0.4-1q-0.2-0.4-0.5-0.9q-0.2-0.4-0.6-0.7q-0.3-0.3-0.7-0.5q-0.4-0.2-0.9-0.3q-0.5-0.1-0.9-0.1q-0.7 0-1.3 0.2z" />
	<path id="Name" fill-rule="evenodd" class="s2" d="m-272.1 268.8q-0.4 0.1-0.8 0q-0.4-0.1-0.8-0.3q-0.4-0.2-0.7-0.5q-0.3-0.3-0.5-0.7v4.7h-2.8v-13.8h2.6v1.7q0.2-0.5 0.5-0.8q0.4-0.4 0.8-0.6q0.4-0.3 0.9-0.4q0.5-0.1 0.9-0.1c2.6 0 4 2.2 4 5.3c0 3.9-2 5.5-4.1 5.5zm-1-8.8q-0.4 0.1-0.8 0.2q-0.3 0.2-0.6 0.5q-0.2 0.3-0.3 0.7q-0.2 0.4-0.1 0.8v2.3c0 1.4 0.7 2.3 1.8 2.3c1.5 0 1.9-1.7 1.9-3.4c0-2.4-0.7-3.4-1.9-3.4zm-9.9 6.9h-0.1q-0.2 0.5-0.5 0.9q-0.4 0.4-0.8 0.7q-0.5 0.2-1 0.4q-0.5 0.1-1 0.1q-0.3 0-0.6 0q-0.4-0.1-0.7-0.2q-0.3-0.1-0.5-0.2q-0.3-0.2-0.5-0.4q-0.4-0.3-0.6-0.6q-0.3-0.4-0.5-0.8q-0.1-0.4-0.2-0.9q0-0.4 0-0.9v-7h3.3v6.5q-0.1 0.2 0 0.4q0 0.3 0 0.5q0.1 0.2 0.1 0.4q0.1 0.2 0.2 0.4q0.1 0.1 0.3 0.2q0.1 0.1 0.2 0.1q0.2 0.1 0.3 0.1q0.2 0.1 0.3 0.1q0.3 0 0.5-0.1q0.2 0 0.4-0.1q0.2-0.1 0.3-0.3q0.2-0.1 0.3-0.3q0.1-0.2 0.3-0.4q0.1-0.2 0.1-0.4q0.1-0.2 0.1-0.4q0-0.3 0-0.5v-6.2h3.1v10.8h-2.8c0 0 0-1.9 0-1.9zm-13.5 2.1q-0.5 0-1-0.1q-0.5 0-1-0.2q-0.5-0.2-0.9-0.4q-0.5-0.3-0.9-0.6q-0.4-0.4-0.7-0.9q-0.3-0.5-0.6-1q-0.2-0.6-0.3-1.2q-0.1-0.5-0.1-1.1q0-1.1 0.4-2.2q0.4-1 1.2-1.8q0.8-0.7 1.8-1.1q1-0.4 2.1-0.4q0.6 0 1.1 0.1q0.5 0.1 1 0.3q0.5 0.1 0.9 0.4q0.5 0.3 0.8 0.7q0.5 0.3 0.8 0.8q0.3 0.5 0.5 1q0.2 0.5 0.3 1.1q0.1 0.5 0.1 1.1q0 0.6-0.1 1.1q-0.1 0.6-0.3 1.2q-0.3 0.5-0.6 1q-0.3 0.5-0.7 0.9q-0.4 0.3-0.9 0.6q-0.4 0.2-0.9 0.4q-0.5 0.2-1 0.2q-0.5 0.1-1 0.1zm1.6-8.1q-0.2-0.2-0.3-0.4q-0.2-0.1-0.4-0.2q-0.2-0.1-0.4-0.2q-0.3 0-0.5 0q-0.2 0-0.5 0q-0.2 0.1-0.4 0.2q-0.2 0.1-0.4 0.2q-0.1 0.2-0.3 0.4q-0.1 0.3-0.2 0.6q-0.2 0.3-0.2 0.7q-0.1 0.3-0.1 0.6q-0.1 0.3 0 0.7q-0.1 0.3-0.1 0.6q0.1 0.4 0.1 0.7q0.1 0.3 0.2 0.6q0.1 0.3 0.3 0.6q0.1 0.3 0.3 0.4q0.1 0.2 0.4 0.3q0.2 0.1 0.4 0.2q0.2 0 0.5 0q0.2 0 0.5 0q0.2-0.1 0.4-0.2q0.2-0.1 0.4-0.3q0.2-0.1 0.3-0.4q0.2-0.3 0.3-0.6q0.1-0.3 0.1-0.6q0.1-0.3 0.1-0.7q0-0.3 0-0.6q0-0.4 0-0.7q0-0.3-0.1-0.6q0-0.4-0.2-0.7q-0.1-0.3-0.2-0.6zm-10 0.3q-0.3 0.3-0.5 0.6q-0.3 0.3-0.4 0.7q-0.2 0.3-0.2 0.7q-0.1 0.4 0 0.8v5h-3v-10.8h2.6v2.4h0.1q0-0.2 0.1-0.5q0-0.2 0.1-0.4q0.1-0.2 0.2-0.4q0.2-0.2 0.3-0.4q0.2-0.2 0.4-0.4q0.3-0.1 0.5-0.3q0.3-0.1 0.6-0.1q0.2-0.1 0.5-0.1q0.1 0 0.2 0q0 0 0.1 0q0.1 0 0.2 0q0 0 0.1 0v2.9h-0.5q-0.2 0-0.4 0q-0.1 0-0.3 0q-0.2 0.1-0.3 0.2q-0.2 0-0.4 0.1zm-10.8-3.7q-0.2-0.2-0.4-0.4q-0.2-0.2-0.4-0.3q-0.3-0.1-0.6-0.2q-0.3-0.1-0.5-0.1q-0.4 0-0.8 0.2q-0.3 0.1-0.6 0.3q-0.4 0.2-0.6 0.5q-0.2 0.3-0.4 0.6q-0.1 0.4-0.2 0.8q-0.2 0.5-0.2 0.9q-0.1 0.4-0.1 0.8q0 0.5 0 0.9q0 0.4 0 0.9q0 0.5 0.1 0.9q0.1 0.4 0.2 0.9q0.2 0.4 0.3 0.8q0.2 0.4 0.4 0.6q0.3 0.3 0.6 0.5q0.3 0.2 0.7 0.3q0.3 0.1 0.7 0.1q0.2 0 0.5-0.1q0.2 0 0.4-0.1q0.3-0.1 0.5-0.2q0.2-0.2 0.3-0.3q0.2-0.2 0.3-0.5q0.2-0.2 0.3-0.4q0-0.3 0.1-0.5q0-0.3 0-0.6v-0.3h-2.7v-2.5h5.6v7.8h-1.5l-0.5-1.6q-0.1 0.2-0.3 0.3q-0.1 0.2-0.3 0.4q-0.1 0.1-0.3 0.3q-0.2 0.1-0.4 0.2q-0.8 0.4-1.7 0.6q-0.9 0.1-1.8-0.1q-0.9-0.1-1.7-0.6q-0.8-0.4-1.5-1.1q-0.4-0.6-0.8-1.2q-0.3-0.7-0.5-1.4q-0.3-0.7-0.4-1.4q-0.1-0.8-0.1-1.5q0-0.8 0.1-1.5q0.1-0.7 0.3-1.4q0.2-0.8 0.6-1.4q0.3-0.7 0.7-1.3q0.5-0.5 1-0.9q0.5-0.4 1.1-0.7q0.6-0.3 1.3-0.4q0.6-0.1 1.3-0.1c4.2 0 5.4 2.9 5.6 5.1h-3.2q0-0.2 0-0.4q-0.1-0.2-0.1-0.4q-0.1-0.2-0.2-0.4q-0.1-0.2-0.2-0.4zm-13-4.5h2.7v15.6h-2.7zm-6.9 15.1q-0.3-0.3-0.4-0.6q-0.2-0.4-0.3-0.7q-0.1-0.4-0.1-0.8q0-0.4 0-0.8v-4.8h-1.6v-2.2h1.6l0.1-3.3l2.9 0.1v3.3h2.2v2.1h-2.1v4.8q-0.1 0.1-0.1 0.3q0.1 0.2 0.1 0.3q0 0.2 0.1 0.3q0.1 0.1 0.2 0.3q0.1 0 0.2 0.1q0.1 0.1 0.2 0.1q0.1 0.1 0.2 0.1q0.2 0 0.3 0h1.1v2.1q-0.3 0.1-0.5 0.1q-0.3 0-0.6 0.1q-0.3 0-0.6 0q-0.2 0-0.5 0q-0.4 0-0.7 0q-0.3-0.1-0.6-0.2q-0.3-0.1-0.6-0.3q-0.3-0.2-0.5-0.4zm-8.7-1.2q0.4 0 0.7-0.1q0.4-0.1 0.7-0.3q0.3-0.2 0.5-0.6q0.2-0.3 0.2-0.6h3c-0.1 0.8-1.2 3.7-5.2 3.7q-0.6 0-1.1-0.1q-0.6 0-1.1-0.2q-0.5-0.2-0.9-0.5q-0.5-0.3-0.9-0.7q-0.4-0.4-0.7-0.8q-0.3-0.5-0.5-1q-0.2-0.5-0.3-1.1q-0.1-0.5-0.1-1.1q0-0.6 0.1-1.2q0.1-0.6 0.4-1.2q0.2-0.5 0.6-1q0.4-0.5 0.9-0.9q0.3-0.3 0.8-0.5q0.4-0.3 0.9-0.4q0.4-0.2 0.9-0.2q0.5-0.1 1-0.1q0.6 0 1.1 0.1q0.6 0.1 1.1 0.3q0.6 0.3 1.1 0.6q0.4 0.3 0.8 0.8q0.3 0.4 0.6 0.8q0.2 0.5 0.4 1q0.2 0.5 0.2 1q0.1 0.5 0.1 1v0.5h-7.5c0 1.4 0.5 2.8 2.2 2.8zm2-4.5q0-0.5-0.1-0.9q-0.2-0.4-0.5-0.7q-0.3-0.3-0.7-0.5q-0.4-0.2-0.8-0.2q-0.4 0-0.9 0.1q-0.4 0.2-0.7 0.5q-0.3 0.4-0.4 0.8q-0.2 0.4-0.2 0.9c0 0 4.3 0 4.3 0zm-8.7 1.9q0 0.5-0.1 1q-0.1 0.5-0.3 0.9q-0.2 0.5-0.6 0.9q-0.3 0.3-0.6 0.7q-0.5 0.3-1 0.5q-0.5 0.3-1 0.4q-0.6 0.2-1.1 0.3q-0.6 0-1.1 0c-4.2 0-6-2.4-6.2-4.8h3.2q0.1 0.5 0.4 1q0.3 0.4 0.7 0.7q0.4 0.3 0.9 0.5q0.5 0.1 1.1 0.1c2 0 2.3-1.2 2.3-1.6c0-1.4-1.8-1.7-3.4-2.1c-1.7-0.5-4.5-1.2-4.5-4.3c0-2.4 1.7-4.5 5.5-4.5c4.8 0 5.4 3.7 5.4 4.4h-2.8q-0.2-0.4-0.4-0.8q-0.3-0.4-0.7-0.6q-0.4-0.3-0.8-0.4q-0.4-0.1-0.9 0c-1.6 0-2 0.9-2 1.4c0 1.4 2.2 1.7 3.6 2c1.5 0.4 4.4 1.2 4.4 4.3z" />
	<path id="Icon-4" fill-rule="evenodd" class="s3" d="m-326 244v6h-3v-3h-38v38h38v-13h3v16h-44v-44z" />
	<path id="Icon-5" class="s4" d="m46 14.2q0 0.1 0 0.1q0 0.1-0.1 0.2q0 0.1 0 0.1q-0.1 0.1-0.1 0.1q-0.1 0.1-0.2 0.1q0 0.1-0.1 0.1q-0.1 0-0.1 0q-0.1 0-0.2 0l-4.9-2l-3.9 3q-0.1 0-0.1 0q-0.1 0.1-0.1 0.1q0 0-0.1 0q0 0-0.1 0q0 0 0 0q0 0 0 0q0 0-0.1 0q0 0 0 0l-8.4-1.8q-0.1 0-0.2-0.1q-0.1 0-0.2-0.1q0-0.1-0.1-0.2q0-0.1 0-0.3v-10.5q0-0.1 0-0.2q0-0.1 0-0.2q0-0.1 0.1-0.1q0-0.1 0.1-0.2q0 0 0.1-0.1q0.1 0 0.2 0q0 0 0.1 0q0.1 0 0.2 0l7.6 2.2l4.9-3.4q0.1 0 0.1 0q0.1 0 0.1 0q0.1 0 0.1 0q0.1 0 0.1 0l4.9 2.5q0.1 0.1 0.2 0.2q0.1 0 0.1 0.1q0.1 0.1 0.1 0.2q0 0.1 0 0.2l-0.2 5.1z" />
	<path id="Icon-6" fill-rule="evenodd" class="s5" d="m15 13h-5c0 0 3.6-1.6 4-5q0.1-0.7 0.1-1.3q-0.1-0.7-0.3-1.3q-0.1-0.7-0.5-1.3q-0.3-0.6-0.7-1.1l-4.1 10l-4.1-10q-0.4 0.5-0.7 1.1q-0.4 0.6-0.5 1.3q-0.2 0.6-0.3 1.3q0 0.6 0.1 1.3c0.4 3.4 4 5 4 5h-5c0 0-2-1.2-2-5.2q0-0.9 0.2-1.7q0.1-0.9 0.5-1.7q0.3-0.9 0.8-1.6q0.6-0.7 1.2-1.3q0.3-0.3 0.7-0.6q0.4-0.2 0.8-0.4q0.4-0.2 0.8-0.3q0.4-0.1 0.9-0.2l2.1 5.9l0.5 1.3l0.5-1.4l2.1-5.8q0.5 0.1 0.9 0.2q0.4 0.1 0.8 0.3q0.4 0.2 0.8 0.4q0.4 0.3 0.7 0.6q0.6 0.6 1.2 1.3q0.5 0.7 0.8 1.6q0.4 0.8 0.5 1.7q0.2 0.8 0.2 1.7c0 4-2 5.2-2 5.2z" />
	<path id="Icon-7" fill-rule="evenodd" class="s5" d="m-16.5 17c0 0-6.5-6.5-6.5-11c0.1-1.6 0.9-3.2 2.1-4.3c1.2-1.1 2.8-1.7 4.4-1.7c1.6 0 3.2 0.6 4.4 1.7c1.2 1.1 2 2.7 2.1 4.3c0 4.5-6.5 11-6.5 11zm0-14c-1.4 0-2.7 0.8-3.2 2.1c-0.6 1.4-0.3 2.9 0.7 3.9c1 1 2.5 1.3 3.8 0.7c1.3-0.5 2.2-1.8 2.2-3.2q0-0.7-0.3-1.3q-0.2-0.7-0.7-1.2q-0.5-0.5-1.2-0.7q-0.6-0.3-1.3-0.3z" />
	<path id="Icon-8" class="s6" d="m86.3 42c-2.6-0.1-5.6-2.6-7.6-4.7c-2.1-2-4.6-5-4.7-7.6c0-0.9 2.2-2.5 2.2-2.5q0.1-0.1 0.3-0.2q0.2 0 0.4 0q0.2 0 0.4 0.1q0.2 0.1 0.3 0.2c0.2 0.3 1.8 2.8 2 3.1q0.1 0.1 0.1 0.3q0.1 0.1 0 0.3q0 0.1 0 0.3q-0.1 0.1-0.1 0.2c-0.2 0.3-0.6 1.1-0.8 1.4q0.2 0.3 0.4 0.6q0.3 0.3 0.5 0.6q0.3 0.3 0.5 0.6q0.3 0.2 0.6 0.5q0.2 0.3 0.5 0.5q0.3 0.3 0.6 0.6q0.3 0.2 0.6 0.5q0.3 0.2 0.6 0.4c0.3-0.2 1.1-0.6 1.4-0.8q0.1 0 0.2-0.1q0.2 0 0.3 0q0.2-0.1 0.3 0q0.2 0 0.3 0.1c0.3 0.1 2.8 1.8 3.1 2q0 0 0.1 0.1q0.1 0.1 0.1 0.2q0 0 0.1 0.1q0 0.1 0 0.2q0 0.1 0 0.2q0 0.1 0 0.2q-0.1 0.1-0.1 0.2q-0.1 0.1-0.1 0.2c0 0-1.6 2.2-2.5 2.2z" />
	<path id="Right" fill-rule="evenodd" class="s7" d="m65.6 44.7h-2l4.4-8.7l-4.4-8.7h2l4.4 8.7z" />
	<path id="Right-2" fill-rule="evenodd" class="s8" d="m57.6 44.7h-2l4.4-8.7l-4.4-8.7h2l4.4 8.7z" />
	<path id="Arrow" fill-rule="evenodd" class="s9" d="m42.8 44.2l-0.8 0.8l-0.8-0.8l-9.2-9.4l1-1.8l9 9.2l9-9.2l1 1.8z" />
	<path id="Arrow-2" fill-rule="evenodd" class="s10" d="m23 37.2l0.8 0.8l-0.8 0.8l-9.2 9.2l-1.8-1l9-9l-9-9l1.8-1z" />
	<path id="Icon-9" fill-rule="evenodd" class="s11" d="m-43.7 26q0.1 0.1 0.2 0.1q0.1 0.1 0.2 0.2q0 0.1 0.1 0.2l2.9 5.9l6.5 1q0.3 0 0.5 0.2q0.2 0.1 0.2 0.4q0.1 0.2 0.1 0.5q-0.1 0.2-0.3 0.4l-4.7 4.6l1.1 6.5q0 0.2 0 0.5q-0.1 0.2-0.3 0.3q-0.2 0.2-0.5 0.2q-0.2 0-0.5-0.1l-5.8-3.1l-5.9 3.1q-0.2 0.1-0.4 0.1q-0.3 0-0.5-0.2q-0.2-0.1-0.3-0.3q-0.1-0.3 0-0.5l1-6.5l-4.7-4.6q-0.1-0.2-0.2-0.4q0-0.3 0-0.5q0.1-0.3 0.3-0.4q0.2-0.2 0.4-0.2l6.6-1l2.9-5.9q0-0.1 0.1-0.2q0.1-0.1 0.2-0.2q0.1 0 0.3-0.1q0.1 0 0.2 0q0.1 0 0.3 0zm-2.7 7.6q0 0.1-0.1 0.2q0 0.1-0.1 0.1q-0.1 0.1-0.2 0.1q-0.1 0.1-0.2 0.1l-5.2 0.8l3.7 3.6q0.1 0.1 0.2 0.2q0 0.1 0.1 0.2q0 0.1 0 0.2q0 0.1 0 0.2l-0.9 5.2l4.7-2.4q0.1-0.1 0.2-0.1q0.1 0 0.2 0q0.1 0 0.2 0q0.1 0 0.2 0.1l4.6 2.4l-0.8-5.2q-0.1-0.1 0-0.2q0-0.1 0-0.2q0-0.1 0.1-0.2q0.1-0.1 0.1-0.2l3.8-3.6l-5.2-0.8q-0.1 0-0.2-0.1q-0.1 0-0.2-0.1q-0.1 0-0.2-0.1q0-0.1-0.1-0.2l-2.3-4.7z" />
	<path id="Icon_copy_2" fill-rule="evenodd" class="s11" d="m104.8 27.5l2.9 5.9l6.5 1q0.3 0 0.5 0.2q0.2 0.1 0.2 0.4q0.1 0.2 0.1 0.5q-0.1 0.2-0.3 0.4l-4.7 4.6l1.1 6.5q0 0.2 0 0.5q-0.1 0.2-0.3 0.3q-0.2 0.2-0.5 0.2q-0.2 0-0.5-0.1l-5.8-3.1l-5.9 3.1q-0.2 0.1-0.4 0.1q-0.3 0-0.5-0.2q-0.2-0.1-0.3-0.3q-0.1-0.3 0-0.5l1-6.5l-4.7-4.6q-0.1-0.2-0.2-0.4q0-0.3 0-0.5q0.1-0.3 0.3-0.4q0.2-0.2 0.4-0.2l6.6-1l2.9-5.9q0-0.1 0.1-0.2q0.1 0 0.1-0.1q0.1-0.1 0.2-0.1q0.1-0.1 0.2-0.1" />
	<path id="Layer" fill-rule="evenodd" class="s10" d="m-13 35.2l9.2-9.2l0.8 0.8l-9.2 9.2l9.2 9.2l-0.8 0.8l-9.2-9.2l-9.2 9.2l-0.8-0.8l9.2-9.2l-9.2-9.2l0.8-0.8z" />
	<path id="Icon-10" fill-rule="evenodd" class="s11" d="m-115.1 26.4q0.9 0.3 1.6 1q0.7 0.7 1 1.7q0.4 0.9 0.4 1.9q0 1-0.4 2q-0.4 0.9-1.1 1.6q-0.7 0.7-1.6 1.1q-0.9 0.4-2 0.4q-0.2 0-0.4 0q-0.2 0-0.4 0q-0.2 0-0.4-0.1q-0.1-0.1-0.3-0.2v1.7h-1.7l-0.8 1.2v0.6h-1.8l-0.1 1.1v0.6h-3.9v-4.1l0.2-0.2l4.4-4.7q0-0.1 0-0.2q0-0.1 0-0.2q0-0.2 0-0.3q0-0.1 0-0.2q0.1-1 0.5-2q0.4-0.9 1.1-1.6q0.8-0.8 1.7-1.1q1-0.4 2-0.4q1 0 2 0.4zm-3.5 1.1q-0.7 0.3-1.3 0.9q-0.5 0.5-0.8 1.2q-0.3 0.7-0.3 1.5q-0.1 0.1-0.1 0.3q0 0.1 0 0.2q0 0.1 0 0.3q0 0.1 0 0.2l0.1 0.3l-0.2 0.2l-4.6 4.9l-0.4 2.8l2.2-0.2v-0.9l-0.1-0.8h0.6l1.2-0.3v-1.9h2.2l0.4-1v-0.7l0.8 0.1l0.7-0.2h0.1l0.2 0.1c0.5 0.3 0 0.3 0.7 0.3q0.8 0.1 1.5-0.2q0.7-0.3 1.2-0.9q0.6-0.5 0.9-1.2q0.3-0.7 0.2-1.5q0.1-0.7-0.2-1.4q-0.3-0.7-0.8-1.3q-0.6-0.5-1.3-0.8q-0.7-0.2-1.4-0.2q-0.8 0-1.5 0.2zm3 1.6q0.2 0.1 0.3 0.2q0.1 0.1 0.2 0.3q0.1 0.2 0.1 0.4c0 0.4-0.2 0.8-0.6 0.9c-0.4 0.2-0.8 0.1-1.1-0.2c-0.3-0.3-0.4-0.7-0.2-1.1c0.1-0.3 0.5-0.6 0.9-0.6q0.2 0 0.4 0.1z" />
	<path id="Icon-11" fill-rule="evenodd" class="s11" d="m-96.7 42.5q-0.2 0.2-0.4 0.4q-0.2 0.1-0.4 0.1q-0.2 0-0.4-0.1q-0.2-0.2-0.4-0.4c-0.7-0.8-5.7-7.3-5.7-10.4q0-1.2 0.5-2.3q0.5-1 1.3-1.9q0.8-0.8 1.9-1.3q1.1-0.5 2.3-0.6q0.1 0 0.2 0q0.2 0 0.3 0q0.1 0 0.3 0q0.1 0 0.2 0q1.2 0.1 2.3 0.6q1.1 0.5 1.9 1.3q0.8 0.9 1.3 2q0.5 1 0.5 2.2c0 3.1-5 9.6-5.7 10.4zm-0.8-15.5c-2.9 0-5.5 2.5-5.5 5.2c0 1.8 3.2 6.8 5.5 9.8c2.3-3 5.5-8 5.5-9.8c0-2.7-2.6-5.2-5.5-5.2zm0 8c-1 0-1.9-0.6-2.3-1.6c-0.4-0.9-0.2-2 0.5-2.7c0.8-0.7 1.8-0.9 2.8-0.5c0.9 0.4 1.5 1.3 1.5 2.3q0 0.5-0.2 0.9q-0.2 0.5-0.5 0.9q-0.4 0.3-0.9 0.5q-0.4 0.2-0.9 0.2zm0-4c-0.6 0-1.2 0.4-1.4 0.9c-0.2 0.6-0.1 1.2 0.3 1.7c0.5 0.4 1.1 0.5 1.7 0.3c0.5-0.2 0.9-0.8 0.9-1.4q0-0.3-0.1-0.6q-0.1-0.2-0.4-0.5q-0.2-0.2-0.4-0.3q-0.3-0.1-0.6-0.1z" />
	<path id="Ellipses" class="s12" d="m-73 46c-4 0-7.7-2.4-9.2-6.2c-1.6-3.7-0.7-8 2.1-10.9c2.9-2.8 7.2-3.7 10.9-2.1c3.8 1.5 6.2 5.2 6.2 9.2c0 1.3-0.3 2.6-0.8 3.8c-0.5 1.2-1.2 2.3-2.1 3.3c-1 0.9-2.1 1.6-3.3 2.1c-1.2 0.5-2.5 0.8-3.8 0.8zm3.4-18.3c1.1 0.4 2.1 1.1 3 1.9c0.8 0.9 1.5 1.9 1.9 3c0.5 1 0.7 2.2 0.7 3.4c0 3.6-2.2 6.9-5.6 8.3c-3.3 1.4-7.2 0.6-9.8-1.9c-2.5-2.6-3.3-6.5-1.9-9.8c1.4-3.4 4.7-5.6 8.3-5.6c1.2 0 2.4 0.2 3.4 0.7z" />
	<path id="Icon-12" fill-rule="evenodd" class="s11" d="m179 8.7l-1.3 1.1l-6.6-6.8l-0.2-0.5h-0.8l-0.2 0.5l-6.6 6.8l-1.3-1.1l8.2-8.4h0.6z" />
	<path id="Icon-13" fill-rule="evenodd" class="s11" d="m155.8 6.8q-0.6 1.4-1.6 2.5q-0.9 1.1-2.2 2q-1.2 0.8-2.6 1.2q-1.4 0.5-2.9 0.5q-1.5 0-2.9-0.5q-1.4-0.4-2.6-1.3q-1.3-0.8-2.2-1.9q-1-1.1-1.6-2.5l-0.2-0.3l0.2-0.3c0.7-1.9 2-3.4 3.7-4.5c1.7-1.1 3.6-1.7 5.6-1.7c2 0 3.9 0.6 5.6 1.7c1.6 1.1 2.9 2.6 3.7 4.5l0.2 0.3zm-9.3-5.8c-3.3 0-6.4 2.3-8.1 5.5c1.7 3.2 4.8 5.3 8.1 5.3c3.3 0 6.3-2.1 8.1-5.3c-1.8-3.2-4.8-5.5-8.1-5.5zm0 9c-1 0-1.8-0.4-2.5-1.1c-0.7-0.6-1-1.5-1-2.4c0-1 0.3-1.8 1-2.5c0.7-0.7 1.5-1 2.5-1q0 0 0.1 0q0 0 0.1 0q0 0 0 0q0.1 0 0.1 0q0 0.1 0 0.1q-0.1 0.1-0.1 0.1q0 0.1-0.1 0.2q0 0 0 0.1c-0.4 0.4-0.7 0.9-0.7 1.4c0 0.6 0.2 1.1 0.6 1.5c0.4 0.4 0.9 0.6 1.5 0.6c0.5 0 1-0.2 1.4-0.6q0.1-0.1 0.1-0.1q0.1 0 0.2-0.1q0 0 0.1 0q0.1-0.1 0.1-0.1q0 0 0.1 0.1q0 0 0 0.1q0 0 0 0.1q0 0 0 0.1q0 0.7-0.3 1.3q-0.3 0.6-0.8 1.1q-0.4 0.5-1.1 0.8q-0.6 0.3-1.3 0.3z" />
	<path id="Icon-14" fill-rule="evenodd" class="s11" d="m127.4 17q0 0-0.1 0q0 0 0 0q-0.1 0-0.1 0q0-0.1-0.1-0.1l-4.6-2.5l-4.7 2.5q0 0.1-0.1 0.1q-0.1 0-0.2 0q0 0-0.1 0q-0.1-0.1-0.2-0.1q0-0.1-0.1-0.1q0-0.1-0.1-0.2q0-0.1 0-0.1q0-0.1 0-0.2l0.9-5.4l-3.8-3.8q0-0.1-0.1-0.2q0 0 0-0.1q0-0.1 0-0.2q0-0.1 0-0.2q0 0 0.1-0.1q0-0.1 0.1-0.1q0-0.1 0.1-0.1q0.1 0 0.2-0.1l5.2-0.7l2.3-5q0-0.1 0.2-0.2q0.1-0.1 0.3-0.1q0.2 0 0.3 0.1q0.1 0.1 0.2 0.2l2.3 5l5.2 0.7q0.1 0.1 0.2 0.1q0 0 0.1 0.1q0.1 0 0.1 0.1q0.1 0.1 0.1 0.1q0 0.1 0 0.2q0 0.1 0 0.2q0 0.1-0.1 0.1q0 0.1-0.1 0.2l-3.7 3.8l0.9 5.4q0 0.1 0 0.2q0 0-0.1 0.1q0 0.1-0.1 0.2q0 0-0.1 0.1q0 0 0 0q-0.1 0-0.1 0.1q-0.1 0-0.1 0q-0.1 0-0.1 0zm-4.9-3.9q0 0 0.1 0q0 0 0 0q0.1 0 0.1 0q0 0.1 0 0.1l3.9 2.1l-0.7-4.5q0-0.1 0-0.2q0 0 0-0.1q0-0.1 0.1-0.1q0-0.1 0.1-0.1l3.1-3.3l-4.3-0.6q-0.1 0-0.2-0.1q0 0-0.1 0q-0.1-0.1-0.1-0.1q0-0.1-0.1-0.1l-1.9-4.2l-2 4.2q0 0 0 0.1q-0.1 0-0.1 0.1q-0.1 0-0.2 0q0 0.1-0.1 0.1l-4.4 0.6l3.2 3.3q0.1 0 0.1 0.1q0 0 0 0.1q0.1 0.1 0.1 0.1q0 0.1 0 0.2l-0.8 4.5l3.9-2.1q0.1 0 0.1-0.1q0 0 0 0q0.1 0 0.1 0q0.1 0 0.1 0z" />
	<path id="Icon-15" fill-rule="evenodd" class="s11" d="m-302 205.4l-0.2 0.4l0.2 0.2v14q0 0.2-0.1 0.4q-0.1 0.2-0.2 0.3q-0.1 0.1-0.3 0.2q-0.2 0.1-0.4 0.1h-15q-0.2 0-0.4-0.1q-0.2-0.1-0.3-0.2q-0.1-0.1-0.2-0.3q-0.1-0.2-0.1-0.4v-18q0-0.2 0.1-0.4q0.1-0.2 0.2-0.3q0.1-0.1 0.3-0.2q0.2-0.1 0.4-0.1h11l0.2 0.2l0.4-0.2zm-15-1.4v14q0 0.2 0.1 0.4q0.1 0.2 0.2 0.3q0.1 0.2 0.3 0.2q0.2 0.1 0.4 0.1h11q0.2 0 0.4-0.1q0.2 0 0.3-0.2q0.2-0.1 0.2-0.3q0.1-0.2 0.1-0.4v-12l-3-3h-9q-0.2 0-0.4 0.1q-0.2 0.1-0.3 0.2q-0.1 0.1-0.2 0.3q-0.1 0.2-0.1 0.4zm10.5 8.7q0.2 0.1 0.3 0.3q0.1 0.2 0.2 0.4q0 0.2 0 0.4q0 0.1-0.1 0.3q0 0.3-0.2 0.4q-0.1 0.2-0.3 0.3q-0.2 0.2-0.5 0.2q-0.2 0-0.4-0.1q-0.3-0.1-0.6-0.3q-0.2-0.1-0.4-0.3q-0.3-0.2-0.5-0.4q-0.2-0.2-0.3-0.5q-0.3 0.1-0.5 0.1q-0.3 0.1-0.5 0.1q-0.2 0.1-0.5 0.2q-0.2 0.1-0.4 0.1c-0.7 1.4-1.5 2.6-2.2 2.9q0 0.1-0.1 0.1q-0.1 0-0.1 0q-0.1 0.1-0.2 0.1q-0.1 0-0.1 0q-0.2 0-0.3 0q-0.1-0.1-0.2-0.1q-0.1-0.1-0.2-0.2q-0.1-0.1-0.1-0.2q-0.2-0.2-0.2-0.4q-0.1-0.3-0.1-0.5q0-0.3 0.2-0.5q0.1-0.2 0.2-0.4q0.3-0.3 0.6-0.5q0.3-0.2 0.7-0.4q0.3-0.2 0.7-0.4q0.4-0.1 0.7-0.2q0.2-0.4 0.3-0.7q0.1-0.3 0.2-0.6q0.2-0.3 0.3-0.6q0.1-0.3 0.1-0.6q-0.2-0.4-0.3-0.9q-0.2-0.4-0.3-0.8q-0.1-0.4-0.2-0.9q-0.1-0.4-0.1-0.9q0-0.2 0.1-0.5q0.1-0.2 0.3-0.3q0.1-0.2 0.4-0.3q0.2-0.1 0.4-0.1q0.2 0 0.4 0.1q0.3 0.1 0.4 0.2q0.2 0.2 0.3 0.4q0.1 0.2 0.1 0.4q0 0.5 0 0.9q0 0.5 0 0.9q-0.1 0.5-0.2 0.9q-0.1 0.4-0.3 0.9c0.3 0.5 0.7 1.2 1 1.8q0.3-0.1 0.7-0.1q0.3 0 0.6 0q0.3 0 0.6 0.1q0.4 0.1 0.6 0.2zm-0.9 1.3c0.1 0 0.3 0.1 0.4-0.3v-0.2q-0.1 0-0.2-0.1q-0.1 0-0.2 0q-0.1-0.1-0.3-0.1q-0.1 0-0.2 0h-0.4q0.1 0.2 0.2 0.3q0.1 0.1 0.3 0.1q0.1 0.1 0.2 0.2q0.1 0.1 0.2 0.1zm-6.6 1.6q-0.1 0-0.1 0.1q0 0 0 0.1q0 0 0 0q0 0.1 0.1 0.1c0.1 0.1 0.1 0.1 0.2 0.1q0.1-0.1 0.3-0.3q0.2-0.2 0.4-0.4q0.1-0.1 0.3-0.3q0.1-0.2 0.2-0.5q-0.2 0.1-0.4 0.2q-0.2 0.2-0.4 0.3q-0.1 0.1-0.3 0.3q-0.2 0.1-0.3 0.3zm3.6-8.2c-0.1-0.4-0.2-0.4-0.3-0.4c-0.1 0-0.3 0-0.3 0.4q0 0.2 0 0.5q0.1 0.2 0.1 0.5q0 0.2 0.1 0.4q0.1 0.3 0.2 0.5q0.1-0.3 0.1-0.5q0.1-0.2 0.1-0.5q0-0.2 0-0.4q0-0.3 0-0.5zm0 4.5q0 0.1-0.1 0.2q0 0.1-0.1 0.2q0 0.1-0.1 0.2q0 0.1-0.1 0.2c0.3-0.1 0.6-0.1 0.8-0.2q0 0-0.1-0.1q-0.1-0.1-0.1-0.2q-0.1-0.1-0.1-0.2q-0.1-0.1-0.1-0.1z" />
	<path id="Icon_copy" fill-rule="evenodd" class="s11" d="m-325 218h-2v4q0 0.2-0.1 0.4q-0.1 0.2-0.2 0.3q-0.1 0.1-0.3 0.2q-0.2 0.1-0.4 0.1h-12q-0.2 0-0.4-0.1q-0.2-0.1-0.3-0.2q-0.1-0.1-0.2-0.3q-0.1-0.2-0.1-0.4v-4h-2c-1.7 0-2-0.3-2-2v-8c0-1.7 0.3-2 2-2h2v-4q0-0.2 0.1-0.4q0.1-0.2 0.2-0.3q0.1-0.1 0.3-0.2q0.2-0.1 0.4-0.1h12q0.2 0 0.4 0.1q0.2 0.1 0.3 0.2q0.1 0.1 0.2 0.3q0.1 0.2 0.1 0.4v4h2c1.7 0 2 0.3 2 2v8c0 1.7-0.3 2-2 2zm-14 2q0 0.2 0.1 0.4q0.1 0.2 0.2 0.3q0.1 0.1 0.3 0.2q0.2 0.1 0.4 0.1h8q0.2 0 0.4-0.1q0.2-0.1 0.3-0.2q0.1-0.1 0.2-0.3q0.1-0.2 0.1-0.4v-5q0-0.2-0.1-0.4q-0.1-0.2-0.2-0.3q-0.1-0.1-0.3-0.2q-0.2-0.1-0.4-0.1h-8q-0.2 0-0.4 0.1q-0.2 0.1-0.3 0.2q-0.1 0.1-0.2 0.3q-0.1 0.2-0.1 0.4zm10-16.3l-0.5-0.7h-9l-0.5 0.7v2.3h10c0 0 0-2.3 0-2.3zm4 5.8c0-1.4-0.2-1.5-1.6-1.5h-14.8c-1.4 0-1.6 0.1-1.6 1.5v5c0 1.4 0.6 1.5 0.6 1.5h1.4v-3q0-0.2 0.1-0.4q0.1-0.2 0.2-0.3q0.1-0.1 0.3-0.2q0.2-0.1 0.4-0.1h12q0.2 0 0.4 0.1q0.2 0.1 0.3 0.2q0.1 0.1 0.2 0.3q0.1 0.2 0.1 0.4v3h1.4c0 0 0.6-0.1 0.6-1.5zm-13.3 0.5h-2.3q-0.1 0-0.2-0.1q-0.1 0-0.1-0.1q-0.1 0-0.1-0.1q0-0.1 0-0.2q0-0.1 0-0.2q0 0 0.1-0.1q0-0.1 0.1-0.1q0.1-0.1 0.2-0.1h2.3q0 0 0.1 0.1q0.1 0 0.1 0.1q0.1 0.1 0.1 0.1q0 0.1 0 0.2q0 0.1 0 0.2q0 0.1-0.1 0.1q0 0.1-0.1 0.1q-0.1 0.1-0.1 0.1zm8.3 7h-8v-1h8zm0 2h-8v-1h8z" />
	<path id="Icon-16" fill-rule="evenodd" class="s11" d="m-358.7 201q0.1 0.1 0.2 0.1q0.1 0.1 0.2 0.2q0 0.1 0.1 0.2l2.9 5.9l6.5 1q0.3 0 0.5 0.2q0.2 0.1 0.2 0.4q0.1 0.2 0.1 0.5q-0.1 0.2-0.3 0.4l-4.7 4.6l1.1 6.5q0 0.2 0 0.5q-0.1 0.2-0.3 0.3q-0.2 0.2-0.5 0.2q-0.2 0-0.5-0.1l-5.8-3.1l-5.9 3.1q-0.2 0.1-0.4 0.1q-0.3 0-0.5-0.2q-0.2-0.1-0.3-0.3q-0.1-0.3 0-0.5l1-6.5l-4.7-4.6q-0.1-0.2-0.2-0.4q0-0.3 0-0.5q0.1-0.3 0.3-0.4q0.2-0.2 0.4-0.2l6.6-1l2.9-5.9q0-0.1 0.1-0.2q0.1 0 0.1-0.1q0.1-0.1 0.2-0.1q0.1-0.1 0.2-0.1q0 0 0.1 0q0 0 0 0q0 0 0.1 0q0 0 0 0q0.1 0 0.3 0zm-2.7 7.6q0 0.1-0.1 0.2q0 0.1-0.1 0.1q-0.1 0.1-0.2 0.1q-0.1 0.1-0.2 0.1l-5.2 0.8l3.7 3.6q0.1 0.1 0.2 0.2q0 0.1 0.1 0.2q0 0.1 0 0.2q0 0.1 0 0.2l-0.9 5.2l4.7-2.4q0.1-0.1 0.2-0.1q0.1 0 0.2 0q0.1 0 0.2 0q0.1 0 0.2 0.1l4.6 2.4l-0.8-5.2q-0.1-0.1 0-0.2q0-0.1 0-0.2q0-0.1 0.1-0.2q0.1-0.1 0.1-0.2l3.8-3.6l-5.2-0.8q-0.1 0-0.2-0.1q-0.1 0-0.2-0.1q-0.1 0-0.2-0.1q0-0.1-0.1-0.2l-2.3-4.7z" />
	<path id="Icon-17" fill-rule="evenodd" class="s11" d="m-254.3 182.7c0 0.8 0 1.5 0 2.3c-0.8 0-1.7 0-2.4 0c0-0.8 0-1.5 0-2.3c-0.8 0-1.5 0-2.3 0v-2.4c0.8 0 1.5 0 2.3 0c0-0.8 0-1.5 0-2.3h2.4c0 0.8 0 1.5 0 2.3c0.8 0 1.5 0 2.3 0v2.4c-0.8 0-1.5 0-2.3 0zm-13.3 6.3q1 0 1.9-0.2q1-0.2 1.8-0.8q0.9-0.5 1.5-1.2q0.4-0.6 0.7-1.2q0.3-0.7 0.5-1.4q0.2-0.7 0.2-1.4q0.1-0.7 0-1.4c-2.1 0-3.9 0-6 0c0 0.8 0 1.6 0 2.4c1.3 0 2 0 3.3 0q-0.1 0.4-0.3 0.8q-0.1 0.4-0.4 0.7q-0.3 0.3-0.6 0.6q-0.3 0.2-0.7 0.4q-0.8 0.3-1.7 0.3q-0.8 0-1.6-0.3q-0.8-0.4-1.4-1q-0.6-0.6-0.9-1.4q-0.2-0.8-0.2-1.7q0.1-0.8 0.5-1.5q0.4-0.8 1-1.3q0.7-0.5 1.5-0.8q0.5-0.1 1-0.1q0.5 0 1 0.1q0.5 0.1 1 0.3q0.5 0.2 0.9 0.5q0.3-0.2 0.5-0.5q0.3-0.2 0.5-0.5q0.2-0.3 0.4-0.5q0.2-0.3 0.4-0.6c-2.9-1.6-3.7-1.3-4.9-1.3q-1.3 0.1-2.4 0.6q-1.2 0.5-2.1 1.4q-0.8 0.9-1.3 2.1q-0.5 1.2-0.5 2.4q0 1.1 0.3 2q0.4 1 1 1.8q0.6 0.8 1.4 1.4q0.8 0.6 1.8 0.9q0.9 0.4 1.9 0.4z" />
	<path id="Icon-18" fill-rule="evenodd" class="s11" d="m-281.9 186.6q-0.2 0.2-0.5 0.3q-0.3 0.1-0.6 0.3q-0.3 0.1-0.6 0.2q-0.3 0.1-0.7 0.1l2.8 2.3q0.2 0.2 0.2 0.4q0.1 0.3 0.1 0.5q0 0.2-0.1 0.5q0 0.2-0.2 0.4q-0.3 0.2-0.6 0.3q-0.2 0.1-0.6 0.1q-0.3 0-0.6-0.1q-0.2-0.1-0.5-0.3l-2.2-2.1l-2.2 2.1q-0.2 0.2-0.5 0.3q-0.3 0.1-0.6 0.1q-0.4 0-0.6-0.1q-0.3-0.1-0.6-0.3q-0.2-0.2-0.2-0.4q-0.1-0.3-0.1-0.5q0-0.2 0.1-0.5q0-0.2 0.2-0.4l2.8-2.3q-0.4 0-0.7-0.1q-0.3-0.1-0.6-0.2q-0.3-0.2-0.6-0.3q-0.3-0.1-0.5-0.3q-0.3-0.2-0.4-0.4q-0.2-0.3-0.3-0.6q-0.1-0.2-0.1-0.5q0-0.3 0.1-0.6c0.3-0.6 1-1.2 1.5-0.8q0.8 0.5 1.6 0.8q0.8 0.2 1.7 0.2q0.9 0 1.7-0.2q0.9-0.3 1.6-0.8c0.5-0.4 1.2 0.2 1.5 0.8q0.1 0.3 0.1 0.6q0 0.3-0.1 0.5q-0.1 0.3-0.3 0.6q-0.1 0.2-0.4 0.4zm-4.1-2.6c-1.1 0-2.1-0.4-2.9-1.1c-0.8-0.8-1.3-1.8-1.3-2.9c0-1.1 0.5-2.1 1.3-2.9c0.8-0.7 1.8-1.1 2.9-1.1c1.1 0 2.1 0.4 2.9 1.1c0.8 0.8 1.3 1.8 1.3 2.9c0 1.1-0.5 2.1-1.3 2.9c-0.8 0.7-1.8 1.1-2.9 1.1zm0-5.8c-0.4 0-0.9 0.2-1.2 0.5c-0.3 0.4-0.5 0.8-0.5 1.2c0 0.5 0.2 0.9 0.5 1.2c0.3 0.4 0.8 0.6 1.2 0.6c0.4 0 0.9-0.2 1.2-0.6c0.3-0.3 0.5-0.7 0.5-1.2c0-0.4-0.2-0.8-0.5-1.2c-0.3-0.3-0.8-0.5-1.2-0.5z" />
	<path id="Icon-19" fill-rule="evenodd" class="s11" d="m-301.5 178.6q-0.2 0.2-0.4 0.4q-0.3 0.2-0.5 0.3q-0.3 0.2-0.6 0.3q0 0.3 0 0.5c0 1.3-0.2 2.7-0.8 3.9c-0.5 1.2-1.3 2.3-2.2 3.3c-1 0.9-2.2 1.6-3.4 2.1c-1.3 0.4-2.6 0.6-3.9 0.6c-2.1 0-5-0.6-5.6-2c0.3 0 1.3 0.5 1.6 0.5q0.6 0 1.1-0.1q0.6-0.1 1.1-0.3q0.5-0.1 1-0.4q0.5-0.3 0.9-0.6q-0.6-0.1-1.2-0.2q-0.6-0.2-1.1-0.6q-0.5-0.3-0.9-0.8q-0.3-0.5-0.6-1q0.3 0 0.5 0q0.3 0.1 0.5 0.1q0.3-0.1 0.6-0.1q0.2 0 0.5-0.1c-1.7-0.3-3.7-1.6-3.7-3.3c0 0 0.1 0 0.1 0q0.3 0.2 0.6 0.3q0.3 0.2 0.6 0.3q0.3 0.1 0.6 0.2q0.4 0.1 0.7 0.1c-1-0.6-2-3.3-2-3.8q0-0.2 0-0.4q0-0.2 0-0.4q0-0.2 0.1-0.4q0.1-0.2 0.2-0.4q0.7 0.9 1.5 1.5q0.9 0.7 1.9 1.1q0.9 0.5 2 0.8q1 0.2 2.1 0.3q0-0.1 0-0.2q0-0.1 0-0.2q0-0.1 0-0.2q0-0.1 0-0.2q0-0.7 0.3-1.3q0.3-0.7 0.8-1.2q0.5-0.5 1.2-0.8q0.6-0.2 1.4-0.2q0.3 0 0.7 0.1q0.4 0 0.7 0.2q0.4 0.1 0.7 0.3q0.3 0.2 0.6 0.5q0.3 0 0.5-0.1q0.3-0.1 0.6-0.2q0.3-0.1 0.6-0.3q0.3-0.1 0.5-0.2c-0.3 0.8-1.7 1.7-2.5 2.2q0.4 0 0.8-0.1q0.4 0 0.8 0q0.3 0 0.7-0.1q0.4 0 0.8-0.1q-0.2 0.2-0.5 0.4z" />
	<path id="Icon-20" fill-rule="evenodd" class="s11" d="m-328 191h-2v-5.2h2v-1.8h-2v-2h2v-2h-3q-0.2 0-0.4 0.1q-0.2 0.1-0.3 0.2q-0.1 0.1-0.2 0.3q-0.1 0.2-0.1 0.4v3h-2v1.8h2v5.2h-7q-0.4 0-0.8-0.2q-0.3-0.1-0.6-0.4q-0.3-0.3-0.4-0.6q-0.2-0.4-0.2-0.8v-11q0-0.4 0.2-0.8q0.1-0.3 0.4-0.6q0.3-0.3 0.6-0.4q0.4-0.2 0.8-0.2h11q0.4 0 0.8 0.2q0.3 0.1 0.6 0.4q0.3 0.3 0.4 0.6q0.2 0.4 0.2 0.8v11q0 0.4-0.2 0.8q-0.1 0.3-0.4 0.6q-0.3 0.3-0.6 0.4q-0.4 0.2-0.8 0.2z" />
	<path id="Icon-21" fill-rule="evenodd" class="s11" d="m-359.8 187.8q-0.7-0.2-1.3-0.5q-0.6-0.3-1.1-0.7q-0.5-0.4-1-1c-2.5-2.7-4.7-8.8-4.7-8.8q-0.1-0.1-0.1-0.1q0-0.1 0-0.2q0-0.1 0-0.1q0-0.1 0.1-0.2q0 0 0.1-0.1q0.1 0 0.1 0q0.1-0.1 0.2-0.1q0.1 0 0.2 0h2.9q0.1 0 0.2 0q0 0 0.1 0.1q0 0 0.1 0q0 0 0.1 0.1q0 0 0.1 0.1q0 0 0 0.1q0.1 0 0.1 0.1q0 0 0 0.1q0.1 0.3 0.3 0.7q0.1 0.4 0.2 0.7q0.1 0.4 0.3 0.7q0.1 0.4 0.3 0.7c1.2 2.2 1.6 2.8 2 2.6c0.6-0.4 0.6-3.1 0.6-3.2q-0.1-0.2-0.1-0.4q0-0.2-0.1-0.4q0-0.1-0.1-0.3q-0.1-0.2-0.1-0.4q-0.1-0.1-0.2-0.1q-0.1-0.1-0.2-0.2q-0.1 0-0.3-0.1q-0.1 0-0.2 0c-0.2-0.1 0.1-0.4 0.4-0.6q0.3-0.1 0.6-0.2q0.3-0.1 0.7-0.1q0.3 0 0.6 0q0.3 0 0.6 0q0.2 0 0.4 0q0.2 0 0.3 0q0.2 0.1 0.4 0.1q0.2 0 0.3 0.1c1 0.2 0.8 1.2 0.8 3.5c0 0.8-0.1 1.9 0.4 2.3c0.2 0.1 0.6-0.3 1.9-2.9q0.2-0.3 0.4-0.6q0.1-0.4 0.3-0.7q0.1-0.3 0.2-0.7q0.1-0.3 0.3-0.6q0-0.1 0-0.1q0-0.1 0.1-0.1q0-0.1 0-0.1q0.1-0.1 0.1-0.1q0.1 0 0.1 0q0.1-0.1 0.1-0.1q0.1 0 0.1 0q0.1 0 0.1 0h3q0.2 0 0.3 0q0.2 0 0.3 0q0.1 0.1 0.3 0.1q0.1 0.1 0.2 0.2c0.1 0.5-0.4 1.7-1.6 3.5c-2 3-2.2 2.8-0.6 4.4q0.3 0.2 0.6 0.5q0.3 0.3 0.6 0.7q0.2 0.3 0.4 0.6q0.3 0.4 0.5 0.7c0.6 1.2-0.8 1.3-0.8 1.3h-2.7q-0.2 0-0.3 0q-0.2 0-0.4-0.1q-0.2 0-0.3-0.1q-0.2-0.1-0.3-0.2c-1-0.7-1.9-2.6-2.7-2.3c-0.7 0.2-1 1.8-1 1.9q0 0.1 0 0.1q0 0.1 0 0.2q0 0 0 0.1q-0.1 0.1-0.1 0.1q-0.1 0.1-0.1 0.1q-0.1 0.1-0.2 0.1q0 0-0.1 0.1q-0.1 0-0.2 0h-1.2q-0.6 0-1.3-0.2z" />
	<path id="Shape_20_copy" fill-rule="evenodd" class="s10" d="m-348.1 151.9h-0.1v2l-3-2.5v-0.5h1.8q0-0.2 0-0.5q-0.1-0.2-0.1-0.4q-0.1-0.3-0.2-0.5q-0.1-0.2-0.2-0.4q-0.1-0.2-0.3-0.3q-0.1-0.1-0.3-0.1q-0.2-0.1-0.3-0.2q-0.2 0-0.4 0q0 0-0.1 0q-0.1 0-0.2 0q0 0-0.1 0q-0.1 0-0.2 0q0 0.1 0 0.2q0 0-0.1 0.1q0 0.1 0 0.1q-0.1 0.1-0.1 0.1l-5.7 5.7l2.1 2q0.4-0.3 0.8-0.5q0.4-0.2 0.9-0.4q0.4-0.1 0.9-0.2q0.5-0.1 1 0v1.3q-0.5 0-0.9 0q-0.4 0.1-0.9 0.2q-0.4 0.1-0.8 0.4q-0.3 0.2-0.7 0.5l0.9 0.1l0.9 0.9c1-0.6 2.3-0.3 3.1 0.5c0.8 0.9 1 2.2 0.3 3.3c-0.6 1-1.8 1.4-3 1.1c-1.1-0.3-1.9-1.4-1.9-2.6q0-0.2 0-0.3q0-0.2 0.1-0.3q0-0.2 0.1-0.4q0-0.1 0.1-0.2l-0.8-1.1l-0.2-0.7q-0.2 0.4-0.5 0.7q-0.2 0.4-0.3 0.8q-0.2 0.5-0.2 0.9q-0.1 0.4 0 0.9h-1.4q0-0.5 0.1-1q0-0.4 0.2-0.9q0.1-0.5 0.3-0.9q0.3-0.4 0.6-0.8l-2.1-2.1l-4.1 4l-0.4-0.1q0.1 0.2 0.2 0.3q0.1 0.2 0.2 0.4q0 0.2 0 0.4q0.1 0.2 0.1 0.4c0 1.2-0.8 2.2-2 2.5c-1.2 0.3-2.4-0.2-3-1.3c-0.5-1-0.3-2.3 0.6-3.1c0.9-0.9 2.2-0.9 3.2-0.3v-0.6l3.9-3.8l-6.6-6.5c-0.4 0.4-0.8 0.8-1.1 1.1q-0.3 0.1-0.4 0.4q-0.2 0.2-0.2 0.5q0 0.3 0.1 0.6q0.1 0.2 0.4 0.4c0.3 0.4 0.8 0.8 1.4 1.3l-0.4 0.3l1.1 1.1h-4l0.9-1.8q0 0 0 0q0 0 0 0q0 0 0 0q0 0 0 0q-0.2-0.2-0.4-0.4q-0.1-0.2-0.2-0.5q-0.1-0.2-0.2-0.5q0-0.2 0-0.5q0-0.2 0.1-0.5q0-0.3 0.2-0.5q0.1-0.3 0.2-0.5q0.2-0.2 0.4-0.4q0.3-0.2 0.6-0.5v-2.4h2.3q0.3-0.3 0.6-0.5q0.1-0.2 0.4-0.4q0.2-0.2 0.4-0.3q0.3-0.1 0.5-0.2q0.3-0.1 0.6-0.1q0.2 0 0.5 0.1q0.3 0.1 0.5 0.2q0.2 0.1 0.5 0.2q0.2 0.2 0.4 0.3q0 0.1 0.1 0.2l1.7-0.9v4l-1.1-1.2l-0.3 0.3c-0.6-0.5-1-1.1-1.3-1.4q-0.1-0.1-0.2-0.2q-0.2-0.1-0.3-0.1q-0.1-0.1-0.3-0.1q-0.1 0-0.2-0.1q-0.2 0.1-0.3 0.1q-0.1 0.1-0.3 0.1q-0.1 0.1-0.2 0.2q-0.1 0.1-0.2 0.2q-0.4 0.4-1 1.1l6.6 6.5c2.6-2.6 5.3-5.3 5.7-5.6q0-0.1 0.1-0.1q0.1-0.1 0.1-0.1q0.1 0 0.2-0.1q0.1 0 0.2 0q0 0 0-0.1q0 0 0.1-0.1q0-0.1 0-0.1q0-0.1 0-0.1q0-0.2-0.1-0.4q0-0.2-0.1-0.3q-0.1-0.2-0.2-0.4q-0.1-0.1-0.2-0.2q-0.2-0.2-0.5-0.3q-0.2-0.1-0.4-0.2q-0.3-0.1-0.5-0.1q-0.3 0-0.5 0h-0.1l0.1 1.7h-0.5l-2.6-2.9l3-0.1h0.1q0.4 0 0.7 0q0.4 0 0.8 0.1q0.3 0.1 0.7 0.3q0.3 0.2 0.6 0.5q0.2 0.1 0.4 0.4q0.2 0.2 0.3 0.5q0.2 0.2 0.3 0.5q0 0.3 0.1 0.6q0 0.1 0 0.2q0.1 0 0.2 0q0.3 0 0.6 0.1q0.3 0.1 0.5 0.2q0.3 0.1 0.5 0.3q0.3 0.2 0.5 0.4c0.9 1 0.8 2.6 0.8 3.5q0 0.2 0 0.4zm-16.2 9.9c0.2-0.5 0-1.1-0.4-1.5c-0.4-0.4-1-0.6-1.5-0.3c-0.6 0.2-0.9 0.7-0.9 1.3q0 0.3 0.1 0.5q0.1 0.3 0.3 0.5q0.2 0.2 0.5 0.3q0.2 0.1 0.5 0.1c0.6 0 1.1-0.3 1.4-0.9zm13-1.5c-0.3-0.3-0.7-0.4-1.1-0.4c-0.3 0-0.7 0.1-1 0.4c-0.2 0.2-0.4 0.6-0.4 1c0 0.4 0.2 0.7 0.4 1c0.3 0.2 0.7 0.4 1 0.4c0.4 0 0.8-0.2 1-0.4c0.3-0.3 0.5-0.6 0.5-1c0-0.4-0.2-0.8-0.4-1z" />
	<path id="Layer" fill-rule="evenodd" class="s10" d="m-320 150.1v1.9q0 0.3-0.1 0.5q0 0.3-0.2 0.5q-0.2 0.2-0.4 0.3q-0.2 0.1-0.5 0.1h-20.6c-1.6 0-3.2-2.8-3.2-4.7h5.9l0.8 1q0 0.1 0.1 0.2q0.1 0 0.3 0.1q0.1 0.1 0.2 0.1q0.1 0 0.3 0h1v-6.1h1.2v6.1h1.9v-3.3h2q0 0 0.1 0q0.1 0 0.1-0.1q0.1 0 0.1 0q0.1-0.1 0.1-0.1l0.5-0.7h1.4v2.8h0.8q0.2 0 0.3 0.1q0.2 0.1 0.3 0.2q0.1 0.1 0.1 0.3q0.1 0.2 0.1 0.3v0.5h2.3v-5.2h1.2v5.2c0 0 3.9 0 3.9 0zm-0.8 14.4q0.2 0.2 0.4 0.4q0.1 0.3 0.2 0.6q0.1 0.3 0.2 0.5q0 0.3 0 0.6c0 0-2.1-1.6-2.9-1.6q-0.2 0-0.4 0q-0.2 0-0.3 0q-0.2 0-0.4 0.1q-0.1 0-0.3 0.1l-0.3 0.3q-0.1 0-0.2 0.1q0 0-0.1 0q-0.1 0.1-0.1 0.1q-0.1 0-0.2 0q-0.1 0-0.1 0q-0.1 0-0.1-0.1q-0.1 0-0.2 0q0-0.1-0.1-0.1q0-0.1 0-0.1q0 0 0-0.1q-0.1 0-0.1 0q0-0.1-0.1-0.1c-0.2 0-2.2 2.1-10.5 2.4l-0.2 1.4q-0.1 0-0.3 0q-0.1 0-0.2-0.1q-0.1 0-0.2-0.1q0-0.1-0.1-0.2c0-0.1 1-5.3-1.5-5.3q0.3 0.5 0.5 1q0.2 0.5 0.3 1q0.1 0.6 0.1 1.1q0 0.6-0.2 1.1v0.1q-0.8-0.1-1.5-0.3q-0.8-0.1-1.5-0.4q-0.7-0.3-1.3-0.6q-0.7-0.4-1.3-0.8q-0.2-0.1-0.4-0.3q-0.2-0.1-0.4-0.3q-0.1-0.1-0.2-0.3q-0.1-0.3-0.2-0.5v-0.2q0-0.1 0-0.2q0-0.1 0.1-0.2q0 0 0.1-0.1q0.1-0.1 0.1-0.2q0.6-0.3 1.2-0.6q0.7-0.3 1.3-0.5q0.7-0.2 1.4-0.3q0.7-0.1 1.3-0.1h1.5l1.2-1.2q0.6 0.4 1.3 0.7q0.7 0.4 1.4 0.6q0.7 0.3 1.4 0.6q0.7 0.3 1.4 0.5q0.2 0 0.5 0q0.2 0 0.5 0q0.2-0.1 0.5-0.1q0.2-0.1 0.4-0.2q0.1 0.1 0.1 0.2q0.1 0.1 0.2 0.2q0 0.1 0.1 0.2q0.1 0.1 0.2 0.1c7.6 1 7.6-2 7.6-1.8q0.1 0.2 0.1 0.4q0 0.2 0 0.5q0 0.2 0 0.4q0 0.3-0.1 0.5l-0.2 0.5zm-19.5-0.5q0.1-0.1 0.2-0.2q0.1-0.1 0.1-0.2q0.1-0.2 0.1-0.3c0-0.4-0.2-0.7-0.6-0.8c-0.3-0.2-0.7-0.1-0.9 0.2c-0.2 0.3-0.3 0.7-0.1 1c0.2 0.3 0.5 0.4 0.9 0.4q0.1 0 0.3-0.1z" />
	<path id="Layer" fill-rule="evenodd" class="s10" d="m-316.3 152.2c0-3.6 3.3-4.9 5.1-5.5q1.6-0.4 3.3-0.8q1.7-0.4 3.4-0.8q1.8-0.3 3.5-0.6q1.7-0.3 3.4-0.5l0.4 0.6c0 0-4.9 3-4.9 6.3c0 4.1 1.8 5.9 1.8 5.9l-0.6 0.6q-0.9-0.6-1.9-1.1q-1-0.5-2-0.8q-1.1-0.3-2.1-0.5q-1.1-0.2-2.2-0.1c-1.6 0-1.9 0.5-1.9 1.1q0.1 0.3 0.2 0.5q0.1 0.3 0.2 0.5q0.2 0.3 0.4 0.5q0.1 0.2 0.3 0.4l-0.4 0.5c0 0-6-2.6-6-6.2zm13.7 6.9h4.5v1.6l-2.5 1.6l1.7 1v1.9q-0.4-0.2-0.7-0.3q-0.3-0.1-0.7-0.2q-0.3-0.1-0.7-0.2q-0.4-0.1-0.7-0.1c-1.1 0-1.1 1.6-5.5 1.6c-4.2 0-6-3.3-6-4.2v-1.4l-4-2.2l0.3-1.1l4.9 2.6c0 0 0.8 1 5.2 1c4.4 0 4.2-1.6 4.2-1.6z" />
	<path id="Layer" fill-rule="evenodd" class="s10" d="m-287.3 152.7q-0.1 0-0.2 0q-0.1 0-0.1 0q-0.1 0-0.2 0q-0.1-0.1-0.1-0.1c-0.4-0.1-0.3-1.3-0.3-1.6q-0.2 0-0.3 0q-0.1 0-0.2 0q-0.2 0-0.3 0q-0.1 0-0.2 0c-0.1 0-1.1 2.7-1.9 2.7q-0.1 0-0.1 0q-0.1 0-0.2-0.1q-0.1 0-0.1 0q-0.1 0-0.2-0.1q0-0.1-0.1-0.2q0-0.1 0-0.2q0-0.1 0-0.2q0-0.1 0-0.2q0.1-0.2 0.2-0.4q0.1-0.3 0.3-0.5q0.1-0.2 0.2-0.4q0.2-0.2 0.3-0.3q-0.1-0.1-0.2-0.2q-0.1-0.1-0.2-0.2q-0.1-0.1-0.2-0.2q-0.2 0-0.3-0.1c-0.4 0.3-0.8 1.6-1.2 1.7q-0.1 0.1-0.2 0.1q-0.1 0.1-0.2 0.1q-0.2 0-0.3 0q-0.1-0.1-0.2-0.1c-0.4-0.4 0.1-1.9 1.5-3.5c1.8-2.1 3.6-4.8 5.9-3.9c1.6 0.7 3.1 3.6 3.9 4.7c0 0-0.8 1.1-1 1.2q-0.1-0.3-0.2-0.6q-0.2-0.2-0.4-0.4q-0.3-0.3-0.6-0.4q-0.3-0.1-0.6-0.1c-1.7 0-1.4 3.4-2 3.5zm20-4c-1.8-2.1-3.7-4.4-6-3.7c-1.7 0.5-3 3.4-3.8 4.5c0 0 1.1 1 1.2 1.1c0.3-0.8 0.6-1.4 1.5-1.4c1.9 0 1.5 3.1 2.1 3.1q0.1 0 0.2 0q0.1 0 0.1 0q0.1 0 0.2 0q0.1 0 0.1 0c0.4-0.2 0.2-0.8 0.2-1.1q0.2-0.1 0.3-0.1q0.1 0 0.2 0q0.2 0 0.3 0q0.1 0 0.2 0c0.1 0 0.9 2.1 1.7 2.1q0.1 0 0.2 0q0.1-0.1 0.1-0.1q0.1 0 0.2 0q0-0.1 0.1-0.1q0.1-0.1 0.1-0.2q0-0.1 0-0.2q0.1 0 0-0.1q0-0.1 0-0.2q0-0.2-0.1-0.4q-0.1-0.1-0.1-0.3q-0.1-0.1-0.2-0.3q-0.1-0.2-0.2-0.3q0.1-0.1 0.2-0.2q0.1 0 0.2-0.1q0.1 0 0.2-0.1q0.2 0 0.3 0q0.1 0.2 0.3 0.4q0.1 0.2 0.3 0.4q0.1 0.2 0.3 0.4q0.1 0.1 0.3 0.3q0.1 0.1 0.2 0.1q0.1 0.1 0.3 0.1q0.1 0 0.2 0q0.2-0.1 0.3-0.1c0.3-0.4-0.3-1.9-1.7-3.5zm-10.5 3.1c-0.5-0.5-0.8-3.1-1.9-3.1c-1.1 0-1.4 2.6-2 3c-5.1 4-5.1 8.1-5.1 8.1h0.5q0.4-0.2 0.7-0.4q0.4-0.2 0.8-0.4q0.3-0.1 0.7-0.2q0.4 0 0.8 0q0.6 0 1.1 0.2q0.6 0.3 0.9 0.7q0.4 0.4 0.6 0.9q0.2 0.6 0.2 1.2q-0.1 0.2-0.2 0.5q-0.1 0.2-0.3 0.5q-0.1 0.2-0.3 0.4q-0.2 0.2-0.4 0.4l2 2.3l2-2.3c0 0-1.3-1-1.3-1.8q0-0.6 0.2-1.2q0.2-0.5 0.6-1q0.4-0.4 1-0.6q0.6-0.3 1.2-0.2q0.3 0 0.7 0.1q0.4 0 0.8 0.2q0.3 0.1 0.7 0.3q0.3 0.2 0.6 0.4h0.6c0 0 0-4-5.2-8z" />
	<path id="Layer" fill-rule="evenodd" class="s13" d="m-348.1 122.9h-0.1v2l-3-2.5v-0.5h1.8q0-0.2 0-0.5q-0.1-0.2-0.1-0.4q-0.1-0.3-0.2-0.5q-0.1-0.2-0.2-0.4q-0.1-0.2-0.3-0.3q-0.1-0.1-0.3-0.1q-0.2-0.1-0.3-0.2q-0.2 0-0.4 0q0 0-0.1 0q-0.1 0-0.2 0q0 0-0.1 0q-0.1 0-0.2 0q0 0.1 0 0.2q0 0-0.1 0.1q0 0.1 0 0.1q-0.1 0.1-0.1 0.1l-5.7 5.7l2.1 2q0.4-0.3 0.8-0.5q0.4-0.2 0.9-0.4q0.4-0.1 0.9-0.2q0.5-0.1 1 0v1.3q-0.5 0-0.9 0q-0.4 0.1-0.9 0.2q-0.4 0.1-0.8 0.4q-0.3 0.2-0.7 0.5l0.9 0.1l0.9 0.9c1-0.6 2.3-0.3 3.1 0.5c0.8 0.9 1 2.2 0.3 3.3c-0.6 1-1.8 1.4-3 1.1c-1.1-0.3-1.9-1.4-1.9-2.6q0-0.2 0-0.3q0-0.2 0.1-0.3q0-0.2 0.1-0.4q0-0.1 0.1-0.2l-0.8-1.1l-0.2-0.7q-0.2 0.4-0.5 0.7q-0.2 0.4-0.3 0.8q-0.2 0.5-0.2 0.9q-0.1 0.4 0 0.9h-1.4q0-0.5 0.1-1q0-0.4 0.2-0.9q0.1-0.5 0.3-0.9q0.3-0.4 0.6-0.8l-2.1-2.1l-4.1 4l-0.4-0.1q0.1 0.2 0.2 0.3q0.1 0.2 0.2 0.4q0 0.2 0 0.4q0.1 0.2 0.1 0.4c0 1.2-0.8 2.2-2 2.5c-1.2 0.3-2.4-0.2-3-1.3c-0.5-1-0.3-2.3 0.6-3.1c0.9-0.9 2.2-0.9 3.2-0.3v-0.6l3.9-3.8l-6.6-6.5c-0.4 0.4-0.8 0.8-1.1 1.1q-0.3 0.1-0.4 0.4q-0.2 0.2-0.2 0.5q0 0.3 0.1 0.6q0.1 0.2 0.4 0.4c0.3 0.4 0.8 0.8 1.4 1.3l-0.4 0.3l1.1 1.1h-4l0.9-1.8q0 0 0 0q0 0 0 0q0 0 0 0q0 0 0 0q-0.2-0.2-0.4-0.4q-0.1-0.2-0.2-0.5q-0.1-0.2-0.2-0.5q0-0.2 0-0.5q0-0.2 0.1-0.5q0-0.3 0.2-0.5q0.1-0.3 0.2-0.5q0.2-0.2 0.4-0.4q0.3-0.2 0.6-0.5v-2.4h2.3q0.3-0.3 0.6-0.5q0.1-0.2 0.4-0.4q0.2-0.2 0.4-0.3q0.3-0.1 0.5-0.2q0.3-0.1 0.6-0.1q0.2 0 0.5 0.1q0.3 0.1 0.5 0.2q0.2 0.1 0.5 0.2q0.2 0.2 0.4 0.3q0 0.1 0.1 0.2l1.7-0.9v4l-1.1-1.2l-0.3 0.3c-0.6-0.5-1-1.1-1.3-1.4q-0.1-0.1-0.2-0.2q-0.2-0.1-0.3-0.1q-0.1-0.1-0.3-0.1q-0.1 0-0.2-0.1q-0.2 0.1-0.3 0.1q-0.1 0.1-0.3 0.1q-0.1 0.1-0.2 0.2q-0.1 0.1-0.2 0.2q-0.4 0.4-1 1.1l6.6 6.5c2.6-2.6 5.3-5.3 5.7-5.6q0-0.1 0.1-0.1q0.1-0.1 0.1-0.1q0.1 0 0.2-0.1q0.1 0 0.2 0q0 0 0-0.1q0 0 0.1-0.1q0-0.1 0-0.1q0-0.1 0-0.1q0-0.2-0.1-0.4q0-0.2-0.1-0.3q-0.1-0.2-0.2-0.4q-0.1-0.1-0.2-0.2q-0.2-0.2-0.5-0.3q-0.2-0.1-0.4-0.2q-0.3-0.1-0.5-0.1q-0.3 0-0.5 0h-0.1l0.1 1.7h-0.5l-2.6-2.9l3-0.1h0.1q0.4 0 0.7 0q0.4 0 0.8 0.1q0.3 0.2 0.7 0.3q0.3 0.2 0.6 0.5q0.2 0.2 0.4 0.4q0.2 0.2 0.3 0.5q0.2 0.2 0.3 0.5q0 0.3 0.1 0.6q0 0.1 0 0.2q0.1 0 0.2 0q0.3 0 0.6 0.1q0.3 0.1 0.5 0.2q0.3 0.1 0.5 0.3q0.3 0.2 0.5 0.4c0.9 1 0.8 2.6 0.8 3.5q0 0.2 0 0.4zm-16.2 9.9c0.2-0.5 0-1.1-0.4-1.5c-0.4-0.4-1-0.6-1.5-0.3c-0.6 0.2-0.9 0.7-0.9 1.3q0 0.3 0.1 0.5q0.1 0.3 0.3 0.5q0.2 0.2 0.5 0.3q0.2 0.1 0.5 0.1c0.6 0 1.1-0.3 1.4-0.9zm13-1.5c-0.3-0.3-0.7-0.4-1.1-0.4c-0.3 0-0.7 0.1-1 0.4c-0.2 0.2-0.4 0.6-0.4 1c0 0.4 0.2 0.7 0.4 1c0.3 0.2 0.7 0.4 1 0.4c0.4 0 0.8-0.2 1-0.4c0.3-0.3 0.5-0.6 0.5-1c0-0.4-0.2-0.8-0.4-1z" />
	<path id="Shape_21_copy" fill-rule="evenodd" class="s13" d="m-316.3 123.2c0-3.6 3.3-4.9 5.1-5.5q1.6-0.4 3.3-0.8q1.7-0.4 3.4-0.8q1.8-0.3 3.5-0.6q1.7-0.3 3.4-0.5l0.4 0.6c0 0-4.9 3-4.9 6.3c0 4.1 1.8 5.9 1.8 5.9l-0.6 0.6q-0.9-0.6-1.9-1.1q-1-0.5-2-0.8q-1.1-0.3-2.1-0.5q-1.1-0.2-2.2-0.1c-1.6 0-1.9 0.5-1.9 1.1q0.1 0.3 0.2 0.5q0.1 0.3 0.2 0.5q0.2 0.3 0.4 0.5q0.1 0.2 0.3 0.4l-0.4 0.5c0 0-6-2.6-6-6.2zm13.7 6.9h4.5v1.6l-2.5 1.6l1.7 1v1.9q-0.4-0.2-0.7-0.3q-0.3-0.1-0.7-0.2q-0.3-0.1-0.7-0.2q-0.4-0.1-0.7-0.1c-1.1 0-1.1 1.6-5.5 1.6c-4.2 0-6-3.3-6-4.2v-1.4l-4-2.2l0.3-1.1l4.9 2.6c0 0 0.8 1 5.2 1c4.4 0 4.2-1.6 4.2-1.6z" />
	<path id="Shape_12_copy" fill-rule="evenodd" class="s13" d="m-320 121.1v1.9q0 0.3-0.1 0.5q0 0.3-0.2 0.5q-0.2 0.2-0.4 0.3q-0.2 0.1-0.5 0.1h-20.6c-1.6 0-3.2-2.8-3.2-4.7h5.9l0.8 1q0 0.1 0.1 0.2q0.1 0 0.3 0.1q0.1 0.1 0.2 0.1q0.1 0 0.3 0h1v-6.1h1.2v6.1h1.9v-3.3h2q0 0 0.1 0q0.1 0 0.1-0.1q0.1 0 0.1 0q0.1-0.1 0.1-0.1l0.5-0.7h1.4v2.8h0.8q0.2 0 0.3 0.1q0.2 0.1 0.3 0.2q0.1 0.1 0.1 0.3q0.1 0.2 0.1 0.3v0.5h2.3v-5.2h1.2v5.2c0 0 3.9 0 3.9 0zm-0.8 14.4q0.2 0.2 0.4 0.4q0.1 0.3 0.2 0.6q0.1 0.3 0.2 0.5q0 0.3 0 0.6c0 0-2.1-1.6-2.9-1.6q-0.2 0-0.4 0q-0.2 0-0.3 0q-0.2 0-0.4 0.1q-0.1 0-0.3 0.1l-0.3 0.3q-0.1 0-0.2 0.1q0 0-0.1 0q-0.1 0.1-0.1 0.1q-0.1 0-0.2 0q-0.1 0-0.1 0q-0.1 0-0.1-0.1q-0.1 0-0.2 0q0-0.1-0.1-0.1q0-0.1 0-0.1q0 0 0-0.1q-0.1 0-0.1 0q0-0.1-0.1-0.1c-0.2 0-2.2 2.1-10.5 2.4l-0.2 1.4q-0.1 0-0.3 0q-0.1 0-0.2-0.1q-0.1 0-0.2-0.1q0-0.1-0.1-0.2c0-0.1 1-5.3-1.5-5.3q0.3 0.5 0.5 1q0.2 0.5 0.3 1q0.1 0.6 0.1 1.1q0 0.6-0.2 1.1v0.1q-0.8-0.1-1.5-0.3q-0.8-0.1-1.5-0.4q-0.7-0.3-1.3-0.6q-0.7-0.4-1.3-0.8q-0.2-0.1-0.4-0.3q-0.2-0.1-0.4-0.3q-0.1-0.1-0.2-0.3q-0.1-0.3-0.2-0.5v-0.2q0-0.1 0-0.2q0-0.1 0.1-0.2q0 0 0.1-0.1q0.1-0.1 0.1-0.2q0.6-0.3 1.2-0.6q0.7-0.3 1.3-0.5q0.7-0.2 1.4-0.3q0.7-0.1 1.3-0.1h1.5l1.2-1.2q0.6 0.4 1.3 0.7q0.7 0.4 1.4 0.6q0.7 0.3 1.4 0.6q0.7 0.3 1.4 0.5q0.2 0 0.5 0q0.2 0 0.5 0q0.2-0.1 0.5-0.1q0.2-0.1 0.4-0.2q0.1 0.1 0.1 0.2q0.1 0.1 0.2 0.2q0 0.1 0.1 0.2q0.1 0.1 0.2 0.1c7.6 1 7.6-2 7.6-1.8q0.1 0.2 0.1 0.4q0 0.2 0 0.5q0 0.2 0 0.4q0 0.3-0.1 0.5l-0.2 0.5zm-19.5-0.5q0.1-0.1 0.2-0.2q0.1-0.1 0.1-0.2q0.1-0.2 0.1-0.3c0-0.4-0.2-0.7-0.6-0.8c-0.3-0.2-0.7-0.1-0.9 0.2c-0.2 0.3-0.3 0.7-0.1 1c0.2 0.3 0.5 0.4 0.9 0.4q0.1 0 0.3-0.1z" />
	<path id="Shape_16_copy" fill-rule="evenodd" class="s13" d="m-287.3 123.7q-0.1 0-0.2 0q-0.1 0-0.1 0q-0.1 0-0.2 0q-0.1-0.1-0.1-0.1c-0.4-0.1-0.3-1.3-0.3-1.6q-0.2 0-0.3 0q-0.1 0-0.2 0q-0.2 0-0.3 0q-0.1 0-0.2 0c-0.1 0-1.1 2.7-1.9 2.7q-0.1 0-0.1 0q-0.1 0-0.2-0.1q-0.1 0-0.1 0q-0.1 0-0.2-0.1q0-0.1-0.1-0.2q0-0.1 0-0.2q0-0.1 0-0.2q0-0.1 0-0.2q0.1-0.2 0.2-0.4q0.1-0.3 0.3-0.5q0.1-0.2 0.2-0.4q0.2-0.2 0.3-0.3q-0.1-0.1-0.2-0.2q-0.1-0.1-0.2-0.2q-0.1-0.1-0.2-0.2q-0.2 0-0.3-0.1c-0.4 0.3-0.8 1.6-1.2 1.7q-0.1 0.1-0.2 0.1q-0.1 0.1-0.2 0.1q-0.2 0-0.3 0q-0.1-0.1-0.2-0.1c-0.4-0.4 0.1-1.9 1.5-3.5c1.8-2.1 3.6-4.8 5.9-3.9c1.6 0.7 3.1 3.6 3.9 4.7c0 0-0.8 1.1-1 1.2q-0.1-0.3-0.2-0.6q-0.2-0.2-0.4-0.4q-0.3-0.3-0.6-0.4q-0.3-0.1-0.6-0.1c-1.7 0-1.4 3.4-2 3.5zm20-4c-1.8-2.1-3.7-4.4-6-3.7c-1.7 0.5-3 3.4-3.8 4.5c0 0 1.1 1 1.2 1.1c0.3-0.8 0.6-1.4 1.5-1.4c1.9 0 1.5 3.1 2.1 3.1q0.1 0 0.2 0q0.1 0 0.1 0q0.1 0 0.2 0q0.1 0 0.1 0c0.4-0.2 0.2-0.8 0.2-1.1q0.2-0.1 0.3-0.1q0.1 0 0.2 0q0.2 0 0.3 0q0.1 0 0.2 0c0.1 0 0.9 2.1 1.7 2.1q0.1 0 0.2 0q0.1-0.1 0.1-0.1q0.1 0 0.2 0q0-0.1 0.1-0.1q0.1-0.1 0.1-0.2q0-0.1 0-0.2q0.1 0 0-0.1q0-0.1 0-0.2q0-0.2-0.1-0.4q-0.1-0.1-0.1-0.3q-0.1-0.1-0.2-0.3q-0.1-0.2-0.2-0.3q0.1-0.1 0.2-0.2q0.1 0 0.2-0.1q0.1 0 0.2-0.1q0.2 0 0.3 0q0.1 0.2 0.3 0.4q0.1 0.2 0.3 0.4q0.1 0.2 0.3 0.4q0.1 0.1 0.3 0.3q0.1 0.1 0.2 0.1q0.1 0.1 0.3 0.1q0.1 0 0.2 0q0.2-0.1 0.3-0.1c0.3-0.4-0.3-1.9-1.7-3.5zm-10.5 3.1c-0.5-0.5-0.8-3.1-1.9-3.1c-1.1 0-1.4 2.6-2 3c-5.1 4-5.1 8.1-5.1 8.1h0.5q0.4-0.2 0.7-0.4q0.4-0.2 0.8-0.4q0.3-0.1 0.7-0.2q0.4 0 0.8 0q0.6 0 1.1 0.2q0.6 0.3 0.9 0.7q0.4 0.4 0.6 0.9q0.2 0.6 0.2 1.2q-0.1 0.2-0.2 0.5q-0.1 0.2-0.3 0.5q-0.1 0.2-0.3 0.4q-0.2 0.2-0.4 0.4l2 2.3l2-2.3c0 0-1.3-1-1.3-1.8q0-0.6 0.2-1.2q0.2-0.5 0.6-1q0.4-0.4 1-0.6q0.6-0.3 1.2-0.2q0.3 0 0.7 0.1q0.4 0 0.8 0.2q0.3 0.1 0.7 0.3q0.3 0.2 0.6 0.4h0.6c0 0 0-4-5.2-8z" />
	<path id="Right-3" fill-rule="evenodd" class="s10" d="m-155.1 138h-3.1l19.2-40.5l-19.2-40.5h3.1l19.1 40.5zm-5.9-87h3.1z" />
	<path id="Left" fill-rule="evenodd" class="s10" d="m-199 97.5l19.2 40.5h-3.1l-19.1-40.5l19.1-40.5h3.1zm18.9-46.5h3.1c0 0-3.1 0-3.1 0z" />
	<path id="Layer" fill-rule="evenodd" class="s14" d="m89.8 208.8l-0.9 2q0 0.1-0.1 0.1q0 0.1 0 0.2q0 0.1 0 0.2q0.1 0 0.1 0.1l0.7 1.9q0.1 0.3 0.1 0.6q0 0.3-0.1 0.6q-0.1 0.3-0.3 0.5q-0.1 0.3-0.4 0.4l-1.6 1.2q-0.1 0.1-0.1 0.1q-0.1 0.1-0.2 0.2q0 0-0.1 0.1q-0.1 0.1-0.1 0.2l-0.7 1.9q-0.1 0.2-0.3 0.5q-0.1 0.2-0.4 0.4q-0.2 0.2-0.5 0.3q-0.3 0.1-0.6 0.1h-2q-0.1 0-0.2 0q0 0-0.1 0.1q-0.1 0-0.2 0q0 0.1-0.1 0.1l-1.7 1.1q-0.1 0-0.2 0.1q-0.2 0.1-0.3 0.1q-0.1 0.1-0.3 0.1q-0.1 0-0.3 0q-0.1 0-0.3 0q-0.1 0-0.2-0.1q-0.2 0-0.3-0.1q-0.1-0.1-0.3-0.1l-1.6-1.1q-0.1-0.1-0.2-0.1q0 0-0.1-0.1q-0.1 0-0.2 0q-0.1 0-0.1 0h-2.1q-0.3 0-0.5-0.1q-0.3-0.1-0.6-0.3q-0.2-0.2-0.4-0.4q-0.2-0.2-0.3-0.5l-0.6-1.9q-0.1-0.1-0.1-0.2q0-0.1-0.1-0.1q0-0.1-0.1-0.1q0-0.1-0.1-0.2l-1.9-1.1q-0.3-0.2-0.4-0.5q-0.2-0.2-0.3-0.5q-0.1-0.3-0.1-0.6q0-0.2 0.1-0.5l0.7-2q0-0.1 0-0.1q0-0.1 0-0.2q0-0.1 0-0.2q0 0 0-0.1l-0.7-1.9q-0.1-0.3-0.1-0.6q0-0.3 0.1-0.6q0.1-0.3 0.2-0.5q0.2-0.2 0.4-0.4l2-1.3q0 0 0.1-0.1q0.1 0 0.1-0.1q0 0 0.1-0.1q0-0.1 0-0.2l0.7-1.9q0.1-0.3 0.3-0.5q0.2-0.2 0.4-0.4q0.3-0.2 0.5-0.3q0.3-0.1 0.6-0.1h2q0.1 0 0.2 0q0.1 0 0.2-0.1q0 0 0.1 0q0.1-0.1 0.1-0.1l1.7-1.2q0.3-0.1 0.5-0.2q0.3-0.1 0.6-0.1q0.3 0 0.6 0.1q0.3 0.1 0.5 0.2l1.7 1.2q0.1 0 0.1 0.1q0.1 0 0.2 0q0 0.1 0.1 0.1q0.1 0 0.2 0h2q0.3 0 0.6 0.1q0.2 0.1 0.5 0.3q0.2 0.2 0.4 0.4q0.2 0.2 0.3 0.5l0.6 1.9q0.1 0.1 0.1 0.2q0.1 0 0.1 0.1q0 0.1 0.1 0.1q0.1 0.1 0.1 0.1l2 1.2q0.2 0.2 0.4 0.4q0.2 0.3 0.3 0.6q0.1 0.2 0.1 0.5q0 0.3-0.1 0.6zm-2.8 2l0.7-1.6q0.1-0.3 0.1-0.5q0-0.2-0.1-0.5q-0.1-0.2-0.2-0.4q-0.1-0.2-0.3-0.4l-1.7-0.9q-0.1 0-0.1-0.1q-0.1 0-0.1-0.1q0 0-0.1-0.1q0-0.1 0-0.1l-0.4-1.7q-0.1-0.3-0.3-0.5q-0.1-0.2-0.3-0.3q-0.2-0.2-0.4-0.2q-0.2-0.1-0.5-0.1l-1.7 0.1q-0.1 0-0.1 0q-0.1 0-0.2-0.1q0 0-0.1 0q0 0-0.1-0.1l-1.3-0.9q-0.2-0.2-0.4-0.2q-0.3-0.1-0.5-0.1q-0.2 0-0.5 0.1q-0.2 0-0.4 0.2l-1.3 0.9q-0.1 0.1-0.1 0.1q-0.1 0-0.2 0q0 0.1-0.1 0.1q0 0-0.1 0l-1.7-0.1q-0.3 0.1-0.5 0.1q-0.2 0.1-0.4 0.3q-0.2 0.1-0.4 0.3q-0.1 0.2-0.2 0.4l-0.4 1.7q0 0-0.1 0.1q0 0.1 0 0.1q-0.1 0.1-0.1 0.1q-0.1 0.1-0.1 0.1l-1.7 1.1q-0.2 0.1-0.3 0.3q-0.1 0.2-0.2 0.5q-0.1 0.2-0.1 0.4q0 0.3 0.1 0.5l0.6 1.6q0 0 0 0.1q0 0.1 0 0.1q0 0.1 0 0.1q0 0.1 0 0.2l-0.5 1.6q-0.1 0.2-0.1 0.5q0 0.2 0.1 0.4q0.1 0.3 0.2 0.5q0.2 0.2 0.4 0.3l1.5 1q0.1 0.1 0.1 0.1q0 0 0.1 0.1q0 0.1 0 0.1q0.1 0.1 0.1 0.1l0.5 1.8q0.1 0.2 0.2 0.4q0.1 0.2 0.3 0.4q0.2 0.1 0.4 0.2q0.3 0.1 0.5 0.1l1.7-0.2q0.1 0 0.1 0q0.1 0 0.2 0.1q0 0 0.1 0q0 0 0.1 0.1l1.2 1.1q0.1 0 0.2 0.1q0.1 0 0.2 0.1q0.2 0 0.3 0q0.1 0 0.2 0q0.1 0 0.2 0q0.2 0 0.3 0q0.1-0.1 0.2-0.1q0.1-0.1 0.2-0.1l1.4-1.1q0.1 0 0.1-0.1q0.1 0 0.2 0q0-0.1 0.1-0.1q0 0 0.1 0l1.8 0.1q0.3 0 0.5-0.1q0.2 0 0.4-0.2q0.2-0.1 0.3-0.3q0.2-0.2 0.3-0.4l0.3-1.8q0 0 0-0.1q0.1-0.1 0.1-0.1q0-0.1 0.1-0.1q0-0.1 0.1-0.1l1.7-1q0.2-0.1 0.3-0.3q0.1-0.2 0.2-0.4q0.1-0.3 0.1-0.5q0-0.2-0.1-0.5l-0.7-1.6q0-0.1 0-0.2q0 0 0-0.1q0-0.1 0-0.1q0-0.1 0-0.2zm-6.6 1.1h-1.8v0.9h1.8v1.7h-1.8v1.7h-1.7v-1.7h-0.9v-1.7h0.9v-0.9h-0.9v-1.7h0.9v-4.3h3.5c0.7 0.1 1.3 0.4 1.8 1c0.5 0.5 0.8 1.3 0.8 2c0 0.7-0.3 1.4-0.8 2c-0.5 0.5-1.1 0.9-1.8 1zm-0.9-4.3h-0.9v2.6h0.9c0.9 0 1.7 0 1.7-1.3c0-1.3-0.8-1.3-1.7-1.3zm-24.5 13.4c-1 0-1.9-0.2-2.7-0.6c-0.9-0.5-1.6-1.1-2.2-1.9c-0.5-0.7-0.9-1.6-1-2.6c-0.2-0.9-0.1-1.9 0.2-2.8l-0.7-0.5c0 0-1.1-0.1-1.6-0.1c-1 0-1 0-1-1v-1h-1c-1 0-1 0-1-1v-2.1l-1-1.1v-3.2l2.8-1l7.2 6.9q0.3-0.1 0.5-0.1q0.2-0.1 0.5-0.1q0.2 0 0.5 0q0.2 0 0.5 0c1.6 0 3.2 0.7 4.3 1.8c1.1 1.1 1.8 2.7 1.8 4.3c0 1.6-0.6 3.2-1.8 4.3c-1.1 1.2-2.7 1.8-4.3 1.8zm0.5-10.5q-0.2-0.1-0.4-0.1q-0.2 0-0.3 0q-0.2 0.1-0.4 0.1q-0.2 0-0.3 0.1q-0.2 0-0.5 0.1q-0.2 0-0.4 0.1q-0.2 0-0.4 0.1q-0.2 0.1-0.4 0.2l-6.5-6.4l-0.9-0.6l-0.1 1.7l1.1 1v2.5h0.9c0.9 0 0.9 0 0.9 0.9v0.9h1.8l1.5 1.5q-0.1 0.2-0.2 0.4q-0.1 0.1-0.1 0.3q-0.1 0.2-0.1 0.3q-0.1 0.2-0.1 0.4q0 0.1-0.1 0.2q0 0.2 0 0.3q0 0.1 0 0.2q0 0.2 0 0.3q0.1 0.9 0.4 1.6q0.4 0.8 1 1.4q0.7 0.6 1.5 1q0.7 0.3 1.6 0.4q0.8-0.1 1.6-0.4q0.8-0.4 1.4-1q0.6-0.6 1-1.3q0.4-0.8 0.4-1.7q0.1-0.8-0.2-1.6q-0.3-0.8-0.8-1.4q-0.6-0.7-1.4-1.1q-0.7-0.3-1.5-0.4zm-3 4.5c0-1.1 0.7-2.1 1.7-2.5c1-0.4 2.2-0.2 3 0.6c0.7 0.8 1 1.9 0.6 3c-0.5 1-1.5 1.6-2.6 1.6q-0.5 0-1-0.2q-0.5-0.2-0.9-0.6q-0.4-0.3-0.6-0.8q-0.2-0.5-0.2-1.1zm4.1 0c0-0.5-0.3-1.1-0.8-1.3c-0.5-0.2-1.1-0.1-1.5 0.3c-0.4 0.4-0.6 1-0.3 1.5c0.2 0.6 0.7 0.9 1.2 0.9q0.3 0 0.6-0.1q0.2-0.1 0.4-0.3q0.2-0.2 0.3-0.5q0.1-0.2 0.1-0.5zm-20.6 4l-6-2l-6 3c0 0-8-3-8-3v-12.9l8 2l6-3l6 3c0 0 0 12.9 0 12.9zm-2-11.9l-4-2l-6 3l-6-1.5v9.4l6 2l6-3l4 1.5c0 0 0-9.4 0-9.4zm-27 1.2c0 2.7-5.7 12.4-8 12.7c-2.3-0.3-8-10-8-12.7c0-3.9 3.6-7.1 8-7.2c4.4 0.1 8 3.3 8 7.2zm-8-5.4c-3.4 0-6.2 2.5-6.2 5.4c0 1.9 4.2 9.1 6.2 10.7c1.9-1.6 6.2-8.8 6.2-10.7c0-2.9-2.8-5.4-6.2-5.4zm0 9.2c-1.2 0-2.3-0.8-2.8-1.9c-0.4-1.1-0.2-2.4 0.7-3.3c0.8-0.8 2.1-1.1 3.2-0.6c1.2 0.4 1.9 1.5 1.9 2.8q0 0.5-0.2 1.1q-0.3 0.6-0.7 1q-0.4 0.4-1 0.6q-0.5 0.3-1.1 0.3zm0-4.8c-0.7 0-1.4 0.4-1.7 1.1c-0.2 0.6-0.1 1.4 0.4 1.9c0.5 0.5 1.3 0.7 2 0.4c0.7-0.3 1.1-0.9 1.1-1.6q0-0.4-0.2-0.7q-0.1-0.3-0.4-0.6q-0.2-0.2-0.5-0.4q-0.3-0.1-0.7-0.1zm-27.5 6.7h1l3.5-8.9q1.4 0.5 2.5 1.4q1.1 0.9 1.9 2.1q0.8 1.2 1.2 2.6q0.4 1.4 0.4 2.9q0 0.9-0.1 1.8q-0.2 1-0.5 1.9q-0.3 0.9-0.8 1.7q-0.5 0.8-1.1 1.5h-6.5c0 0 6.3-2.6 6.5-6.8c0.2-4.2-2.5-6.1-2.8-6.1l-4.2 10.9h-1l-4.2-10.9c-0.3 0-3 1.9-2.8 6.1c0.2 4.2 6.5 6.8 6.5 6.8h-6.5q-0.6-0.7-1.1-1.5q-0.5-0.8-0.8-1.7q-0.3-0.9-0.5-1.9q-0.1-0.9-0.1-1.8q0-1.5 0.4-2.9q0.4-1.4 1.2-2.6q0.8-1.2 1.9-2.1q1.1-0.9 2.5-1.4zm-28.5-12v4h8c1 0 1 0 1 1v13c0 1 0 1-1 1h-18c-1 0-1 0-1-1v-18c0-1 0-1 1-1h9c1 0 1 0 1 1zm0 17h1v-3c0-1 0-1 1-1h3c1 0 1 0 1 1v3h1v-11h-7zm3 0h1v-2h-1zm-5-16h-7v16h1v-3c0-1 0-1 1-1h3c1 0 1 0 1 1v3h1zm-4 16h1v-2h-1zm1-15h2v10h-2zm-3 0h2v9.9h-2zm9 8h5v2h-5zm0-3h5v2h-5z" />
	<path id="Shape_2_copy_2" fill-rule="evenodd" class="s15" d="m89.8 230.8l-0.9 2q0 0.1-0.1 0.1q0 0.1 0 0.2q0 0.1 0 0.2q0.1 0 0.1 0.1l0.7 1.9q0.1 0.3 0.1 0.6q0 0.3-0.1 0.6q-0.1 0.3-0.3 0.5q-0.1 0.3-0.4 0.4l-1.6 1.2q-0.1 0.1-0.1 0.1q-0.1 0.1-0.2 0.2q0 0-0.1 0.1q-0.1 0.1-0.1 0.2l-0.7 1.9q-0.1 0.2-0.3 0.5q-0.1 0.2-0.4 0.4q-0.2 0.2-0.5 0.3q-0.3 0.1-0.6 0.1h-2q-0.1 0-0.2 0q0 0-0.1 0.1q-0.1 0-0.2 0q0 0.1-0.1 0.1l-1.7 1.1q-0.1 0-0.2 0.1q-0.2 0.1-0.3 0.1q-0.1 0.1-0.3 0.1q-0.1 0-0.3 0q-0.1 0-0.3 0q-0.1 0-0.2-0.1q-0.2 0-0.3-0.1q-0.1-0.1-0.3-0.1l-1.6-1.1q-0.1-0.1-0.2-0.1q0 0-0.1-0.1q-0.1 0-0.2 0q-0.1 0-0.1 0h-2.1q-0.3 0-0.5-0.1q-0.3-0.1-0.6-0.3q-0.2-0.2-0.4-0.4q-0.2-0.2-0.3-0.5l-0.6-1.9q-0.1-0.1-0.1-0.2q0-0.1-0.1-0.1q0-0.1-0.1-0.1q0-0.1-0.1-0.2l-1.9-1.1q-0.3-0.2-0.4-0.5q-0.2-0.2-0.3-0.5q-0.1-0.3-0.1-0.6q0-0.2 0.1-0.5l0.7-2q0-0.1 0-0.1q0-0.1 0-0.2q0-0.1 0-0.2q0 0 0-0.1l-0.7-1.9q-0.1-0.3-0.1-0.6q0-0.3 0.1-0.6q0.1-0.3 0.2-0.5q0.2-0.2 0.4-0.4l2-1.3q0 0 0.1-0.1q0.1 0 0.1-0.1q0 0 0.1-0.1q0-0.1 0-0.2l0.7-1.9q0.1-0.3 0.3-0.5q0.2-0.2 0.4-0.4q0.3-0.2 0.5-0.3q0.3-0.1 0.6-0.1h2q0.1 0 0.2 0q0.1 0 0.2-0.1q0 0 0.1 0q0.1-0.1 0.1-0.1l1.7-1.2q0.3-0.1 0.5-0.2q0.3-0.1 0.6-0.1q0.3 0 0.6 0.1q0.3 0.1 0.5 0.2l1.7 1.2q0.1 0 0.1 0.1q0.1 0 0.2 0q0 0.1 0.1 0.1q0.1 0 0.2 0h2q0.3 0 0.6 0.1q0.2 0.1 0.5 0.3q0.2 0.2 0.4 0.4q0.2 0.2 0.3 0.5l0.6 1.9q0.1 0.1 0.1 0.2q0.1 0 0.1 0.1q0 0.1 0.1 0.1q0.1 0.1 0.1 0.1l2 1.2q0.2 0.2 0.4 0.4q0.2 0.3 0.3 0.6q0.1 0.2 0.1 0.5q0 0.3-0.1 0.6zm-2.8 2l0.7-1.6q0.1-0.3 0.1-0.5q0-0.2-0.1-0.5q-0.1-0.2-0.2-0.4q-0.1-0.2-0.3-0.4l-1.7-0.9q-0.1 0-0.1-0.1q-0.1 0-0.1-0.1q0 0-0.1-0.1q0-0.1 0-0.1l-0.4-1.7q-0.1-0.3-0.3-0.5q-0.1-0.2-0.3-0.3q-0.2-0.2-0.4-0.2q-0.2-0.1-0.5-0.1l-1.7 0.1q-0.1 0-0.1 0q-0.1 0-0.2-0.1q0 0-0.1 0q0 0-0.1-0.1l-1.3-0.9q-0.2-0.2-0.4-0.2q-0.3-0.1-0.5-0.1q-0.2 0-0.5 0.1q-0.2 0-0.4 0.2l-1.3 0.9q-0.1 0.1-0.1 0.1q-0.1 0-0.2 0q0 0.1-0.1 0.1q0 0-0.1 0l-1.7-0.1q-0.3 0.1-0.5 0.1q-0.2 0.1-0.4 0.3q-0.2 0.1-0.4 0.3q-0.1 0.2-0.2 0.4l-0.4 1.7q0 0-0.1 0.1q0 0.1 0 0.1q-0.1 0.1-0.1 0.1q-0.1 0.1-0.1 0.1l-1.7 1.1q-0.2 0.1-0.3 0.3q-0.1 0.2-0.2 0.5q-0.1 0.2-0.1 0.4q0 0.3 0.1 0.5l0.6 1.6q0 0 0 0.1q0 0.1 0 0.1q0 0.1 0 0.1q0 0.1 0 0.2l-0.5 1.6q-0.1 0.2-0.1 0.5q0 0.2 0.1 0.4q0.1 0.3 0.2 0.5q0.2 0.2 0.4 0.3l1.5 1q0.1 0.1 0.1 0.1q0 0 0.1 0.1q0 0.1 0 0.1q0.1 0.1 0.1 0.1l0.5 1.8q0.1 0.2 0.2 0.4q0.1 0.2 0.3 0.4q0.2 0.1 0.4 0.2q0.3 0.1 0.5 0.1l1.7-0.2q0.1 0 0.1 0q0.1 0 0.2 0.1q0 0 0.1 0q0 0 0.1 0.1l1.2 1.1q0.1 0 0.2 0.1q0.1 0 0.2 0.1q0.2 0 0.3 0q0.1 0 0.2 0q0.1 0 0.2 0q0.2 0 0.3 0q0.1-0.1 0.2-0.1q0.1-0.1 0.2-0.1l1.4-1.1q0.1 0 0.1-0.1q0.1 0 0.2 0q0-0.1 0.1-0.1q0 0 0.1 0l1.8 0.1q0.3 0 0.5-0.1q0.2 0 0.4-0.2q0.2-0.1 0.3-0.3q0.2-0.2 0.3-0.4l0.3-1.8q0 0 0-0.1q0.1-0.1 0.1-0.1q0-0.1 0.1-0.1q0-0.1 0.1-0.1l1.7-1q0.2-0.1 0.3-0.3q0.1-0.2 0.2-0.4q0.1-0.3 0.1-0.5q0-0.2-0.1-0.5l-0.7-1.6q0-0.1 0-0.2q0 0 0-0.1q0-0.1 0-0.1q0-0.1 0-0.2zm-6.6 1.1h-1.8v0.9h1.8v1.7h-1.8v1.7h-1.7v-1.7h-0.9v-1.7h0.9v-0.9h-0.9v-1.7h0.9v-4.3h3.5c0.7 0.1 1.3 0.4 1.8 1c0.5 0.5 0.8 1.3 0.8 2c0 0.7-0.3 1.4-0.8 2c-0.5 0.5-1.1 0.9-1.8 1zm-0.9-4.3h-0.9v2.6h0.9c0.9 0 1.7 0 1.7-1.3c0-1.3-0.8-1.3-1.7-1.3zm-24.5 13.4c-1 0-1.9-0.2-2.7-0.6c-0.9-0.5-1.6-1.1-2.2-1.9c-0.5-0.7-0.9-1.6-1-2.6c-0.2-0.9-0.1-1.9 0.2-2.8l-0.7-0.5c0 0-1.1-0.1-1.6-0.1c-1 0-1 0-1-1v-1h-1c-1 0-1 0-1-1v-2.1l-1-1.1v-3.2l2.8-1l7.2 6.9q0.3-0.1 0.5-0.1q0.2-0.1 0.5-0.1q0.2 0 0.5 0q0.2 0 0.5 0c1.6 0 3.2 0.7 4.3 1.8c1.1 1.1 1.8 2.7 1.8 4.3c0 1.6-0.6 3.2-1.8 4.3c-1.1 1.2-2.7 1.8-4.3 1.8zm0.5-10.5q-0.2-0.1-0.4-0.1q-0.2 0-0.3 0q-0.2 0.1-0.4 0.1q-0.2 0-0.3 0.1q-0.2 0-0.5 0.1q-0.2 0-0.4 0.1q-0.2 0-0.4 0.1q-0.2 0.1-0.4 0.2l-6.5-6.4l-0.9-0.6l-0.1 1.7l1.1 1v2.5h0.9c0.9 0 0.9 0 0.9 0.9v0.9h1.8l1.5 1.5q-0.1 0.2-0.2 0.4q-0.1 0.1-0.1 0.3q-0.1 0.2-0.1 0.3q-0.1 0.2-0.1 0.4q0 0.1-0.1 0.2q0 0.2 0 0.3q0 0.1 0 0.2q0 0.2 0 0.3q0.1 0.9 0.4 1.6q0.4 0.8 1 1.4q0.7 0.6 1.5 1q0.7 0.3 1.6 0.4q0.8-0.1 1.6-0.4q0.8-0.4 1.4-1q0.6-0.6 1-1.3q0.4-0.8 0.4-1.7q0.1-0.8-0.2-1.6q-0.3-0.8-0.8-1.4q-0.6-0.7-1.4-1.1q-0.7-0.3-1.5-0.4zm-3 4.5c0-1.1 0.7-2.1 1.7-2.5c1-0.4 2.2-0.2 3 0.6c0.7 0.8 1 1.9 0.6 3c-0.5 1-1.5 1.6-2.6 1.6q-0.5 0-1-0.2q-0.5-0.2-0.9-0.6q-0.4-0.3-0.6-0.8q-0.2-0.5-0.2-1.1zm4.1 0c0-0.5-0.3-1.1-0.8-1.3c-0.5-0.2-1.1-0.1-1.5 0.3c-0.4 0.4-0.6 1-0.3 1.5c0.2 0.6 0.7 0.9 1.2 0.9q0.3 0 0.6-0.1q0.2-0.1 0.4-0.3q0.2-0.2 0.3-0.5q0.1-0.2 0.1-0.5zm-20.6 4l-6-2l-6 3c0 0-8-3-8-3v-12.9l8 2l6-3l6 3c0 0 0 12.9 0 12.9zm-2-11.9l-4-2l-6 3l-6-1.5v9.4l6 2l6-3l4 1.5c0 0 0-9.4 0-9.4zm-27 1.2c0 2.7-5.7 12.4-8 12.7c-2.3-0.3-8-10-8-12.7c0-3.9 3.6-7.1 8-7.2c4.4 0.1 8 3.3 8 7.2zm-8-5.4c-3.4 0-6.2 2.5-6.2 5.4c0 1.9 4.2 9.1 6.2 10.7c1.9-1.6 6.2-8.8 6.2-10.7c0-2.9-2.8-5.4-6.2-5.4zm0 9.2c-1.2 0-2.3-0.8-2.8-1.9c-0.4-1.1-0.2-2.4 0.7-3.3c0.8-0.8 2.1-1.1 3.2-0.6c1.2 0.4 1.9 1.5 1.9 2.8q0 0.5-0.2 1.1q-0.3 0.6-0.7 1q-0.4 0.4-1 0.6q-0.5 0.3-1.1 0.3zm0-4.8c-0.7 0-1.4 0.4-1.7 1.1c-0.2 0.6-0.1 1.4 0.4 1.9c0.5 0.5 1.3 0.7 2 0.4c0.7-0.3 1.1-0.9 1.1-1.6q0-0.4-0.2-0.7q-0.1-0.3-0.4-0.6q-0.2-0.2-0.5-0.4q-0.3-0.1-0.7-0.1zm-27.5 6.7h1l3.5-8.9q1.4 0.5 2.5 1.4q1.1 0.9 1.9 2.1q0.8 1.2 1.2 2.6q0.4 1.4 0.4 2.9q0 0.9-0.1 1.8q-0.2 1-0.5 1.9q-0.3 0.9-0.8 1.7q-0.5 0.8-1.1 1.5h-6.5c0 0 6.3-2.6 6.5-6.8c0.2-4.2-2.5-6.1-2.8-6.1l-4.2 10.9h-1l-4.2-10.9c-0.3 0-3 1.9-2.8 6.1c0.2 4.2 6.5 6.8 6.5 6.8h-6.5q-0.6-0.7-1.1-1.5q-0.5-0.8-0.8-1.7q-0.3-0.9-0.5-1.9q-0.1-0.9-0.1-1.8q0-1.5 0.4-2.9q0.4-1.4 1.2-2.6q0.8-1.2 1.9-2.1q1.1-0.9 2.5-1.4zm-28.5-12v4h8c1 0 1 0 1 1v13c0 1 0 1-1 1h-18c-1 0-1 0-1-1v-18c0-1 0-1 1-1h9c1 0 1 0 1 1zm0 17h1v-3c0-1 0-1 1-1h3c1 0 1 0 1 1v3h1v-11h-7zm3 0h1v-2h-1zm-5-16h-7v16h1v-3c0-1 0-1 1-1h3c1 0 1 0 1 1v3h1zm-4 16h1v-2h-1zm1-15h2v10h-2zm-3 0h2v9.9h-2zm9 8h5v2h-5zm0-3h5v2h-5z" />
	<path id="Shape_2_copy" fill-rule="evenodd" class="s10" d="m58.7 157.8q0 0.1 0 0.2q0 0.1 0 0.2q0 0.1 0 0.2q0 0.1 0 0.2l1 2.5q0.1 0.4 0.1 0.7q0 0.4-0.1 0.8q-0.1 0.3-0.3 0.6q-0.3 0.3-0.6 0.6l-2 1.5q-0.1 0.1-0.2 0.1q-0.1 0.1-0.2 0.2q-0.1 0.1-0.2 0.2q-0.1 0.1-0.1 0.2l-0.9 2.4q-0.1 0.4-0.3 0.7q-0.3 0.3-0.6 0.5q-0.3 0.2-0.6 0.3q-0.4 0.2-0.8 0.2h-2.6q-0.1 0-0.2 0q-0.1 0.1-0.2 0.1q-0.1 0-0.1 0.1q-0.1 0-0.2 0.1l-2.2 1.3q-0.1 0.1-0.3 0.2q-0.2 0.1-0.3 0.2q-0.2 0-0.4 0q-0.2 0.1-0.4 0.1q-0.2 0-0.4 0q-0.1-0.1-0.3-0.1q-0.2-0.1-0.4-0.2q-0.1-0.1-0.3-0.2l-2.1-1.3q-0.1-0.1-0.2-0.1q-0.1-0.1-0.2-0.1q-0.1-0.1-0.2-0.1q-0.1 0-0.2 0h-2.6q-0.4 0-0.7-0.1q-0.4-0.2-0.7-0.4q-0.3-0.2-0.5-0.5q-0.3-0.3-0.4-0.7l-0.8-2.4q-0.1-0.1-0.1-0.2q-0.1-0.1-0.1-0.2q-0.1-0.1-0.2-0.1q0-0.1-0.1-0.2l-2.5-1.5q-0.3-0.2-0.5-0.5q-0.2-0.3-0.3-0.7q-0.2-0.4-0.2-0.7q0-0.4 0.2-0.8l0.9-2.5q0-0.1 0-0.2q0-0.1 0-0.2q0-0.1 0-0.2q0-0.1 0-0.2l-0.9-2.4q-0.2-0.4-0.2-0.8q0-0.4 0.1-0.7q0.2-0.4 0.4-0.7q0.2-0.3 0.5-0.5l2.5-1.6q0-0.1 0.1-0.1q0.1-0.1 0.1-0.2q0.1-0.1 0.1-0.2q0.1 0 0.1-0.1l0.9-2.5q0.1-0.4 0.3-0.7q0.3-0.3 0.6-0.5q0.3-0.2 0.6-0.3q0.4-0.1 0.8-0.2h2.6q0.1 0 0.2 0q0.1 0 0.2-0.1q0.1 0 0.1 0q0.1-0.1 0.2-0.1l2.2-1.5q0.3-0.2 0.6-0.3q0.4-0.2 0.8-0.2q0.3 0 0.7 0.2q0.4 0.1 0.7 0.3l2.1 1.5q0.1 0 0.2 0.1q0.1 0 0.2 0q0.1 0.1 0.2 0.1q0.1 0 0.2 0h2.6q0.3 0 0.7 0.2q0.4 0.1 0.7 0.3q0.3 0.2 0.5 0.5q0.2 0.3 0.3 0.7l0.9 2.5q0 0 0.1 0.1q0 0.1 0.1 0.2q0.1 0.1 0.1 0.2q0.1 0 0.2 0.1l2.5 1.5q0.3 0.2 0.5 0.5q0.3 0.3 0.4 0.7q0.1 0.4 0.1 0.7q0 0.4-0.1 0.8zm-1.6-4.4l-2.3-1.3q0 0-0.1-0.1q-0.1 0-0.1-0.1q-0.1-0.1-0.1-0.2q0 0-0.1-0.1l-0.5-2.3q-0.1-0.3-0.3-0.5q-0.2-0.3-0.5-0.5q-0.2-0.2-0.5-0.3q-0.4-0.1-0.7-0.1l-2.3 0.2q-0.1 0-0.2 0q-0.1-0.1-0.2-0.1q-0.1 0-0.1-0.1q-0.1 0-0.2 0l-1.8-1.3q-0.3-0.2-0.6-0.3q-0.3-0.1-0.6-0.1q-0.3 0-0.6 0.1q-0.3 0.1-0.6 0.3l-1.8 1.3q-0.1 0-0.1 0q-0.1 0.1-0.2 0.1q-0.1 0-0.2 0.1q-0.1 0-0.1 0l-2.4-0.1q-0.3 0-0.6 0.1q-0.3 0.1-0.6 0.3q-0.2 0.2-0.4 0.5q-0.2 0.2-0.3 0.5l-0.6 2.2q-0.1 0.1-0.1 0.1q0 0.1-0.1 0.2q0 0.1-0.1 0.1q-0.1 0.1-0.1 0.1l-2.3 1.5q-0.2 0.1-0.4 0.4q-0.2 0.3-0.3 0.6q-0.1 0.3-0.1 0.6q0 0.3 0.1 0.6l0.7 2.1q0.1 0 0.1 0.1q0 0.1 0 0.2q0 0.1 0 0.2q0 0.1-0.1 0.1l-0.6 2.1q-0.1 0.3 0 0.7q0 0.3 0.1 0.6q0 0.3 0.2 0.5q0.2 0.3 0.5 0.5l2.1 1.3q0 0.1 0.1 0.1q0.1 0.1 0.1 0.2q0.1 0 0.1 0.1q0 0.1 0.1 0.2l0.6 2.3q0.1 0.3 0.3 0.5q0.2 0.3 0.5 0.5q0.2 0.2 0.5 0.3q0.3 0.1 0.7 0.1l2.3-0.2q0.1 0 0.1 0q0.1 0 0.2 0q0.1 0.1 0.2 0.1q0 0 0.1 0.1l1.7 1.4q0.1 0.1 0.3 0.1q0.1 0.1 0.3 0.2q0.1 0 0.3 0q0.1 0.1 0.3 0.1q0.1 0 0.3-0.1q0.2 0 0.3 0q0.2-0.1 0.3-0.2q0.2 0 0.3-0.1l1.9-1.4q0.1-0.1 0.2-0.1q0.1 0 0.1-0.1q0.1 0 0.2 0q0.1 0 0.2 0l2.5 0.1q0.3 0 0.6-0.1q0.3-0.1 0.5-0.3q0.3-0.2 0.5-0.4q0.2-0.3 0.3-0.6l0.5-2.2q0-0.1 0-0.2q0-0.1 0.1-0.2q0 0 0.1-0.1q0 0 0.1-0.1l2.3-1.3q0.3-0.1 0.5-0.4q0.2-0.3 0.3-0.6q0.1-0.3 0.1-0.6q0-0.3-0.1-0.6l-1-2.2q0-0.1 0-0.2q0 0 0-0.1q0-0.1 0-0.2q0-0.1 0-0.2l1-2.2q0.1-0.3 0.1-0.6q0-0.3-0.1-0.6q-0.1-0.3-0.3-0.6q-0.2-0.2-0.5-0.4zm-7.1 5.8q-0.1 0.1-0.3 0.2q-0.2 0.1-0.4 0.2q-0.2 0.1-0.4 0.1q-0.2 0.1-0.4 0.2q-0.2 0-0.4 0.1q-0.2 0-0.5 0q-0.2 0.1-0.4 0.1q-0.2 0-0.5 0h-1.2v1h3v2h-3v2h-2v-2h-2v-2h2v-1h-2v-2h2v-6q0.2 0 0.3 0q0.1 0 0.2 0q0.2 0 0.3 0q0.1 0 0.2 0c0.6-0.1 1.4 0 2 0q0.2 0 0.5 0q0.2 0 0.5 0q0.2 0 0.4 0.1q0.3 0 0.5 0q0.2 0.1 0.4 0.1q0.2 0.1 0.4 0.2q0.2 0 0.4 0.1q0.2 0.1 0.4 0.2q0.2 0.2 0.3 0.3q0.2 0.1 0.3 0.3q0.2 0.1 0.3 0.3q0.1 0.2 0.2 0.4q0.1 0.2 0.2 0.4q0.1 0.3 0.1 0.5q0.1 0.3 0.1 0.5q0 0.3 0 0.5q0 0.3 0 0.5q0 0.3-0.1 0.5q0 0.2-0.1 0.5q-0.1 0.2-0.2 0.4q-0.1 0.2-0.2 0.4q-0.1 0.1-0.3 0.3q-0.1 0.2-0.2 0.3q-0.2 0.1-0.4 0.3zm-1.2-4.7q-0.1-0.1-0.3-0.2q-0.1-0.1-0.3-0.1q-0.2-0.1-0.3-0.1q-0.2 0-0.4 0c-0.3 0-0.7 0-1 0c-0.2 0-0.8 0-1 0v4c0.2 0 0.8 0 1 0c0.3 0 0.7 0 1 0q0.2 0 0.4 0q0.1 0 0.3-0.1q0.2-0.1 0.3-0.1q0.2-0.1 0.3-0.2q0.2-0.2 0.3-0.3q0.2-0.2 0.3-0.4q0.1-0.2 0.1-0.4q0-0.2 0-0.4q0-0.1 0-0.1q0 0 0 0q0 0 0-0.1q0 0 0 0q0 0 0 0q0-0.2 0-0.4q0-0.2-0.1-0.4q-0.1-0.2-0.3-0.4q-0.1-0.2-0.3-0.3zm-33.3 15.7c-1.2 0-2.4-0.3-3.4-0.8c-1.1-0.6-2-1.3-2.7-2.3c-0.7-0.9-1.1-2-1.3-3.1c-0.2-1.2-0.2-2.4 0.2-3.5l-1.4-1.3h-2q-0.1-0.1-0.3-0.1q-0.2-0.1-0.3-0.3q-0.2-0.1-0.2-0.3q-0.1-0.1-0.2-0.3v-1h-1q-0.1-0.1-0.3-0.1q-0.2-0.1-0.3-0.3q-0.2-0.1-0.2-0.3q-0.1-0.1-0.2-0.3v-2h-1q-0.1-0.1-0.3-0.1q-0.2-0.1-0.3-0.3q-0.2-0.1-0.2-0.3q-0.1-0.1-0.2-0.3v-4q0-0.1 0.1-0.2q0-0.1 0-0.1q0-0.1 0.1-0.2q0 0 0.1-0.1l2.1-2.2q0.2-0.1 0.4-0.2q0.2-0.1 0.4-0.1q0.2 0 0.5 0q0.2 0.1 0.4 0.2l8.8 9.4c2-0.8 4.4-0.7 6.3 0.4c2 1.1 3.3 3 3.7 5.2c0.5 2.2-0.1 4.5-1.6 6.2c-1.4 1.7-3.5 2.7-5.7 2.7zm0-13q-0.2 0-0.4 0q-0.1 0-0.3 0q-0.1 0-0.3 0.1q-0.1 0-0.3 0l-2.3 0.1l-7.2-7.5l-1.8-1.8l-1 1.1v3h1q0.2 0 0.4 0.1q0.1 0.1 0.3 0.2q0.1 0.1 0.2 0.3q0.1 0.2 0.1 0.4v2h1q0.2 0 0.4 0.1q0.2 0.1 0.3 0.2q0.1 0.2 0.2 0.3q0.1 0.2 0.1 0.4v1h2l2.5 2.6q-0.1 0.4-0.3 0.7q-0.1 0.3-0.1 0.7q-0.1 0.4-0.1 0.7q0 0.4 0 0.7q0 1.1 0.4 2.2q0.5 1 1.2 1.8q0.8 0.7 1.8 1.2q1.1 0.4 2.2 0.4c1.4 0 2.8-0.6 3.8-1.6c1.1-1.1 1.7-2.5 1.7-3.9c0-1.5-0.6-2.9-1.7-3.9c-1-1-2.4-1.6-3.8-1.6zm0.4 8.9c-1 0-1.9-0.5-2.5-1.3c-0.5-0.8-0.6-1.9-0.2-2.8c0.3-0.9 1.2-1.6 2.1-1.8c1-0.2 2 0.1 2.7 0.8q0.5 0.4 0.7 1q0.2 0.5 0.2 1.1q0 0.6-0.2 1.2q-0.2 0.5-0.7 0.9q-0.2 0.2-0.4 0.4q-0.2 0.2-0.5 0.3q-0.3 0.1-0.6 0.2q-0.3 0-0.6 0zm1-3.9c-0.4-0.4-1-0.5-1.5-0.3c-0.5 0.2-0.8 0.7-0.8 1.3c0 0.5 0.3 1 0.8 1.2c0.5 0.2 1.1 0.1 1.5-0.3q0.2-0.2 0.3-0.4q0.1-0.3 0.1-0.5q0-0.3-0.1-0.6q-0.1-0.2-0.3-0.4zm-28.4 5.4l-6.1-2.5l-6 3.8q-0.1 0.1-0.1 0.1q-0.1 0-0.1 0q-0.1 0-0.2 0.1q0 0-0.1 0q0 0 0 0q0 0 0 0q0 0-0.1 0q0-0.1 0-0.1l-10.6-2.2q-0.2 0-0.3-0.1q-0.1-0.1-0.2-0.2q-0.1-0.1-0.1-0.3q-0.1-0.1-0.1-0.3v-15.3q0-0.1 0-0.2q0-0.2 0-0.3q0.1-0.1 0.1-0.1q0.1-0.1 0.2-0.2q0-0.1 0.1-0.1q0.1-0.1 0.2-0.1q0.1 0 0.2 0q0.1 0 0.2 0l9.6 2.7l7.3-4.2q0 0 0.1 0q0.1 0 0.1 0q0.1 0 0.1 0q0.1 0 0.2 0.1l6.1 3.1q0.2 0.1 0.2 0.1q0.1 0.1 0.2 0.2q0.1 0.1 0.1 0.3q0 0.1 0 0.2v14.6q0 0.1 0 0.2q0 0.1 0 0.2q-0.1 0.1-0.1 0.2q-0.1 0.1-0.2 0.2q0 0-0.1 0.1q-0.1 0-0.2 0q-0.1 0.1-0.2 0q-0.1 0-0.2 0zm-1-4.5v-9q0-0.3 0-0.5q-0.1-0.3-0.2-0.5q-0.1-0.3-0.3-0.4q-0.2-0.2-0.4-0.4l-3.6-1.8q0 0-0.1 0q0-0.1-0.1-0.1q0 0-0.1 0q0 0-0.1 0l-7 3.9l-9.1-2.2v12.6c0 0.2 0.7 0.3 1 0.4l8 1.8l7-4.2l4 1.9q0.2 0 0.3 0q0.1 0 0.2 0q0.2 0 0.3 0q0.1 0 0.2-0.1q0.1-0.2 0.1-0.3q0-0.2 0-0.4q0-0.2 0-0.4q0-0.1-0.1-0.3zm-42.3 6.9c-2.6-0.4-9.2-12-9.2-15.2c0-4.7 4.1-8.6 9.2-8.7c5.2 0.1 9.3 4 9.3 8.7c0 3.2-6.6 14.8-9.3 15.2zm0-21.8c-3.6 0.1-6.9 3.2-6.9 6.6c0 2.6 4.9 10.2 6.9 12.8c2.1-2.6 7-10.2 7-12.8c0-3.4-3.3-6.5-7-6.6zm-3.7 7.4c0-1.4 0.9-2.7 2.2-3.3c1.3-0.5 2.8-0.2 3.8 0.8c1 1 1.3 2.5 0.8 3.8c-0.6 1.3-1.8 2.2-3.3 2.2q-0.7 0-1.3-0.3q-0.6-0.3-1.1-0.7q-0.5-0.5-0.8-1.2q-0.3-0.6-0.3-1.3zm5.4 0c0-0.8-0.4-1.5-1.1-1.8c-0.8-0.3-1.6-0.1-2.1 0.4c-0.6 0.6-0.7 1.4-0.4 2.1c0.3 0.7 1 1.2 1.7 1.2q0.4 0 0.8-0.1q0.3-0.2 0.6-0.5q0.3-0.2 0.4-0.6q0.1-0.3 0.1-0.7zm-31.9 13.4c0 0 7.8-3.1 7.8-9.9c0-4-1.2-5.2-2.7-6.7q-0.3-0.2-0.5-0.3q-0.2-0.1-0.4-0.2q-0.3-0.1-0.5-0.3q-0.2-0.1-0.4-0.2l-5.4 14.8h-0.9l-5.4-14.8q-0.2 0.1-0.4 0.2q-0.3 0.2-0.5 0.3q-0.2 0.1-0.4 0.2q-0.3 0.1-0.5 0.3c-1.6 1.5-2.8 2.7-2.8 6.7c0 6.8 7.8 9.9 7.8 9.9h-7.8c0 0-3.1-2.4-3.1-8.3c0-3.9 1.8-8.2 4.2-10.3q0.5-0.4 1.1-0.8q0.6-0.4 1.2-0.7q0.6-0.3 1.3-0.5q0.6-0.2 1.3-0.3l3.9 11.6h1l4-11.6q0.7 0.1 1.3 0.3q0.7 0.2 1.3 0.5q0.6 0.3 1.2 0.7q0.5 0.4 1.1 0.8c2.4 2.1 4.2 6.4 4.2 10.3c0 5.9-3.1 8.3-3.1 8.3c0 0-7.8 0-7.9 0zm-27.1 1.1h-22q-0.2 0-0.3-0.1q-0.2-0.1-0.4-0.2q-0.1-0.2-0.2-0.4q-0.1-0.1-0.1-0.3v-22q0-0.2 0.1-0.4q0.1-0.2 0.2-0.3q0.2-0.2 0.4-0.2q0.1-0.1 0.3-0.1h12q0.2 0 0.4 0.1q0.2 0 0.3 0.2q0.2 0.1 0.3 0.3q0 0.2 0 0.4v5h9q0.2 0 0.4 0.1q0.2 0 0.3 0.2q0.2 0.1 0.3 0.3q0 0.2 0 0.4v16q0 0.2 0 0.3q-0.1 0.2-0.3 0.4q-0.1 0.1-0.3 0.2q-0.2 0.1-0.4 0.1zm-11-22h-10v20h2v-3q0-0.2 0.1-0.4q0.1-0.2 0.2-0.3q0.2-0.2 0.4-0.3q0.1 0 0.3 0h4q0.2 0 0.4 0q0.2 0.1 0.3 0.3q0.2 0.1 0.3 0.3q0 0.2 0 0.4v3h2c0 0 0-20 0-20zm-6 20h2v-2h-2zm16-14h-8v14h1v-3q0-0.2 0.1-0.4q0.1-0.2 0.2-0.3q0.2-0.2 0.4-0.3q0.1 0 0.3 0h4q0.2 0 0.4 0q0.2 0.1 0.3 0.3q0.2 0.1 0.3 0.3q0 0.2 0 0.4v3h1c0 0 0-14 0-14zm-5 14h2v-2h-2zm3-6h-4q-0.4 0-0.7-0.3q-0.3-0.3-0.3-0.7q0-0.4 0.3-0.7q0.3-0.3 0.7-0.3h4q0.5 0 0.7 0.3q0.3 0.3 0.3 0.7q0 0.4-0.3 0.7q-0.2 0.3-0.7 0.3zm0-4h-4q-0.4 0-0.7-0.3q-0.3-0.3-0.3-0.7q0-0.4 0.3-0.7q0.3-0.3 0.7-0.3h4q0.5 0 0.7 0.3q0.3 0.3 0.3 0.7q0 0.4-0.3 0.7q-0.2 0.3-0.7 0.3zm-11 4q-0.2 0-0.3-0.1q-0.2-0.1-0.4-0.2q-0.1-0.2-0.2-0.3q-0.1-0.2-0.1-0.4v-10q0-0.4 0.3-0.7q0.3-0.3 0.7-0.3q0.5 0 0.7 0.3q0.3 0.3 0.3 0.7v10q0 0.2 0 0.4q-0.1 0.1-0.2 0.3q-0.2 0.1-0.4 0.2q-0.2 0.1-0.4 0.1zm-4 0q-0.2 0-0.3-0.1q-0.2-0.1-0.4-0.2q-0.1-0.2-0.2-0.3q-0.1-0.2-0.1-0.4v-10q0-0.4 0.3-0.7q0.3-0.3 0.7-0.3q0.5 0 0.7 0.3q0.3 0.3 0.3 0.7v10q0 0.2 0 0.4q-0.1 0.1-0.2 0.3q-0.2 0.1-0.4 0.2q-0.2 0.1-0.4 0.1z" />
	<path id="Name-2" fill-rule="evenodd" class="s11" d="m-266.8 75.8q-0.2 0.4-0.5 0.6q-0.4 0.3-0.7 0.5q-0.4 0.1-0.8 0.2q-0.4 0.1-0.8 0.1q-0.4 0-0.7-0.1q-0.3 0-0.6-0.2q-0.3-0.1-0.5-0.3q-0.3-0.2-0.5-0.5v4.8h-3.1v-13.9h2.9l0.1 1.1q0.1-0.2 0.2-0.3q0.1-0.2 0.3-0.3q0.1-0.1 0.2-0.2q0.2-0.1 0.3-0.2q0.2-0.1 0.3-0.1q0.2-0.1 0.4-0.2q0.1 0 0.3 0q0.2 0 0.3 0q0.5 0 0.9 0q0.4 0.1 0.8 0.3q0.4 0.2 0.7 0.5q0.3 0.3 0.5 0.6q0.3 0.4 0.5 0.9q0.2 0.4 0.3 0.9q0.2 0.5 0.2 1q0.1 0.5 0.1 1v0.2q0 0.5-0.1 1q0 0.4-0.2 0.9q-0.1 0.5-0.3 0.9q-0.2 0.4-0.5 0.8zm-2.1-3.8q0-0.3 0-0.5q0-0.3 0-0.5q-0.1-0.3-0.2-0.5q0-0.3-0.1-0.5q-0.1-0.2-0.2-0.4q-0.2-0.1-0.3-0.2q-0.2-0.1-0.4-0.2q-0.1 0-0.3 0q-0.1 0-0.3 0q-0.1 0-0.2 0q-0.1 0.1-0.2 0.1q-0.1 0-0.2 0.1q-0.1 0-0.2 0.1q-0.1 0.1-0.2 0.1q0 0.1-0.1 0.2q0 0.1-0.1 0.2v4.1q0.1 0.1 0.1 0.2q0.1 0.1 0.2 0.1q0 0.1 0.1 0.1q0.1 0.1 0.2 0.1q0.1 0.1 0.2 0.1q0.1 0 0.2 0q0.1 0.1 0.3 0.1q0.1 0 0.2 0q0.2 0 0.3 0q0.2-0.1 0.4-0.2q0.1-0.1 0.3-0.2q0.1-0.1 0.2-0.3q0.1-0.2 0.1-0.5q0.1-0.2 0.2-0.4q0-0.3 0-0.5q0-0.3 0-0.5c0 0 0-0.2 0-0.2zm-11.1 3.8q-0.1 0.2-0.2 0.3q-0.2 0.2-0.3 0.3q-0.2 0.1-0.3 0.2q-0.2 0.1-0.4 0.2q-0.1 0.1-0.3 0.2q-0.2 0.1-0.4 0.1q-0.2 0.1-0.4 0.1q-0.2 0-0.4 0q-0.4 0-0.7 0q-0.4-0.1-0.7-0.2q-0.3-0.2-0.6-0.4q-0.3-0.2-0.5-0.4q-0.2-0.3-0.4-0.7q-0.2-0.4-0.3-0.8q-0.1-0.4-0.2-0.8q0-0.4 0-0.8v-6.1h3.2v6.1q-0.1 0.2 0 0.3q0 0.2 0 0.4q0 0.1 0.1 0.3q0.1 0.1 0.2 0.3q0.1 0.1 0.2 0.1q0.1 0.1 0.2 0.2q0.1 0 0.2 0.1q0.2 0 0.3 0q0.1 0 0.2 0q0.1 0 0.2-0.1q0.1 0 0.2 0q0.2 0 0.3-0.1q0.1 0 0.1 0q0.1-0.1 0.2-0.1q0.1-0.1 0.2-0.1q0-0.1 0.1-0.2v-7.2h3.1v10h-2.7zm-12.5 1.4q-0.5 0-1-0.1q-0.5 0-1-0.2q-0.4-0.2-0.8-0.5q-0.5-0.3-0.8-0.6q-0.3-0.4-0.6-0.9q-0.2-0.4-0.4-0.9q-0.2-0.4-0.2-0.9q-0.1-0.5-0.1-1v-0.2q0-0.5 0.1-1q0-0.5 0.2-1q0.2-0.5 0.4-0.9q0.3-0.4 0.6-0.8q0.7-0.7 1.6-1.1q1-0.3 2-0.3q1 0 1.9 0.3q0.9 0.4 1.6 1.1q0.4 0.4 0.6 0.8q0.3 0.4 0.4 0.9q0.2 0.5 0.3 1q0 0.5 0 1v0.2q0 0.5 0 1q-0.1 0.5-0.3 0.9q-0.1 0.5-0.4 0.9q-0.2 0.5-0.6 0.9q-0.3 0.3-0.7 0.6q-0.4 0.3-0.9 0.5q-0.4 0.1-0.9 0.2q-0.5 0.1-1 0.1zm1.7-5.3q0-0.3 0-0.5q0-0.3-0.1-0.5q0-0.3-0.1-0.5q-0.1-0.3-0.2-0.5q-0.1-0.2-0.2-0.3q-0.2-0.2-0.4-0.3q-0.1-0.1-0.3-0.1q-0.2 0-0.4 0q-0.2 0-0.4 0q-0.2 0.1-0.4 0.1q-0.2 0.1-0.3 0.3q-0.2 0.1-0.3 0.3q-0.1 0.2-0.1 0.5q-0.1 0.2-0.2 0.5q0 0.2 0 0.5q-0.1 0.2-0.1 0.5v0.2q0 0.2 0.1 0.5q0 0.2 0 0.5q0.1 0.2 0.2 0.5q0 0.2 0.1 0.5q0.1 0.1 0.3 0.3q0.1 0.1 0.3 0.2q0.2 0.1 0.4 0.1q0.2 0.1 0.4 0.1q0.2 0 0.4-0.1q0.2 0 0.3-0.1q0.2-0.1 0.4-0.2q0.1-0.2 0.2-0.4q0.1-0.2 0.2-0.4q0.1-0.3 0.1-0.5q0.1-0.3 0.1-0.5q0-0.3 0-0.5c0 0 0-0.2 0-0.2zm-8.8-2.2q-0.2 0-0.3 0q-0.1 0-0.2 0q-0.1 0.1-0.2 0.1q-0.1 0-0.2 0.1q-0.1 0-0.2 0.1q-0.1 0-0.1 0.1q-0.1 0.1-0.1 0.1q-0.1 0.1-0.1 0.2v6.6h-3.2v-10.1h3l0.1 1.5q0.1-0.2 0.1-0.3q0.1-0.2 0.2-0.3q0.1-0.2 0.3-0.3q0.1-0.2 0.2-0.3q0.1-0.1 0.3-0.2q0.1-0.1 0.3-0.1q0.1-0.1 0.3-0.1q0.2 0 0.3 0q0.1 0 0.1 0q0.1 0 0.2 0q0 0 0.1 0q0 0 0.1 0q0 0 0.1 0q0 0 0.1 0q0 0 0.1 0q0 0.1 0.1 0.1l-0.3 2.8zm-12.2 7.5q-0.6 0-1.1-0.1q-0.6-0.1-1.1-0.3q-0.5-0.2-1-0.5q-0.5-0.3-0.9-0.6q-0.4-0.4-0.7-0.9q-0.3-0.5-0.5-1q-0.2-0.5-0.3-1q-0.1-0.6 0-1.1v-2.9q0-0.5 0-1.1q0.1-0.5 0.3-1q0.2-0.5 0.5-1q0.3-0.5 0.7-0.9q0.4-0.3 0.8-0.6q0.5-0.3 1-0.5q0.5-0.2 1-0.3q0.6-0.1 1.1-0.1q0.5 0 1.1 0q0.5 0.1 1 0.2q0.5 0.2 0.9 0.4q0.5 0.3 0.9 0.6q0.3 0.3 0.6 0.7q0.3 0.4 0.5 0.8q0.2 0.4 0.3 0.9q0.1 0.4 0.1 0.9v0.1h-3q0-0.3 0-0.5q-0.1-0.2-0.2-0.4q-0.1-0.2-0.2-0.4q-0.1-0.2-0.3-0.3q-0.1-0.2-0.3-0.3q-0.2-0.1-0.4-0.2q-0.2 0-0.4-0.1q-0.3 0-0.5 0q-0.2 0-0.5 0.1q-0.2 0-0.5 0.1q-0.2 0.1-0.4 0.3q-0.2 0.2-0.3 0.4q-0.2 0.2-0.3 0.5q-0.2 0.3-0.3 0.5q-0.1 0.3-0.1 0.6q0 0.3 0 0.6v2.9q0 0.3 0 0.6q0 0.3 0.1 0.6q0.1 0.2 0.2 0.5q0.2 0.3 0.3 0.5q0.2 0.2 0.4 0.4q0.2 0.2 0.5 0.3q0.2 0.1 0.5 0.1q0.2 0.1 0.5 0.1q0.2 0 0.3 0q0.2 0 0.4 0q0.1-0.1 0.3-0.1q0.2 0 0.3-0.1q0.1 0 0.3 0q0.1-0.1 0.2-0.1q0 0 0.1-0.1q0.1-0.1 0.2-0.1v-2.2h-2.1v-2h5.3v5q-0.2 0.3-0.5 0.5q-0.2 0.2-0.5 0.4q-0.2 0.1-0.5 0.3q-0.2 0.1-0.5 0.3q-0.4 0.1-0.8 0.3q-0.4 0.1-0.8 0.2q-0.4 0-0.9 0.1q-0.4 0-0.8 0zm-11.1-14.7h3.1v14.5h-3.1c0 0 0-14.5 0-14.5zm-3.6 14.7q-0.3 0-0.7 0q-0.3-0.1-0.6-0.2q-0.3-0.1-0.6-0.2q-0.2-0.2-0.5-0.4q-0.2-0.3-0.4-0.6q-0.1-0.3-0.2-0.7q-0.1-0.3-0.2-0.7q0-0.3 0-0.6v-4.7h-1.4v-2.1h1.4v-2.5h3.2v2.5h1.7v2.1h-1.7v4.6q-0.1 0.1 0 0.2q0 0.1 0 0.2q0 0.1 0.1 0.2q0 0.1 0.1 0.2q0 0.1 0.1 0.1q0.1 0.1 0.1 0.1q0.1 0 0.2 0q0.1 0 0.2 0q0 0 0.1 0q0 0 0.1 0q0.1 0 0.1 0q0.1 0 0.1 0q0.2 0 0.5-0.1l0.2 2.4q-0.1 0-0.2 0q-0.2 0-0.3 0.1q-0.1 0-0.2 0q-0.1 0-0.2 0q-0.2 0.1-0.3 0.1q-0.1 0-0.2 0q-0.2 0-0.3 0q-0.1 0-0.2 0zm-11-4.2q0 0.2 0.1 0.4q0 0.1 0.1 0.3q0.1 0.2 0.2 0.3q0.1 0.2 0.2 0.3q0.2 0.1 0.3 0.2q0.2 0.1 0.4 0.2q0.2 0 0.4 0.1q0.2 0 0.3 0q0.2 0 0.4 0q0.2 0 0.4 0q0.1-0.1 0.3-0.1q0.2 0 0.4-0.1q0.1 0 0.3-0.1q0.2 0 0.3-0.1q0.2 0 0.4-0.1q0.1-0.1 0.3-0.1l0.8 1.9q-0.2 0.1-0.4 0.2q-0.3 0.1-0.5 0.2q-0.2 0.1-0.4 0.2q-0.2 0.1-0.4 0.2q-0.3 0.1-0.6 0.1q-0.3 0.1-0.6 0.1q-0.2 0.1-0.5 0.1q-0.3 0-0.6 0q-0.5 0-1-0.1q-0.4 0-0.9-0.2q-0.5-0.2-0.9-0.5q-0.4-0.3-0.7-0.6q-0.3-0.4-0.6-0.8q-0.3-0.4-0.4-0.8q-0.2-0.5-0.3-0.9q-0.1-0.5 0-1v-0.3q-0.1-0.5 0-1q0.1-0.5 0.2-1q0.2-0.5 0.4-0.9q0.3-0.5 0.6-0.9q0.3-0.4 0.7-0.6q0.4-0.3 0.8-0.5q0.5-0.2 0.9-0.3q0.5-0.1 1 0q0.4-0.1 0.9 0q0.4 0.1 0.8 0.2q0.4 0.2 0.8 0.4q0.4 0.3 0.7 0.6q0.3 0.3 0.5 0.7q0.2 0.4 0.4 0.8q0.1 0.5 0.2 0.9q0.1 0.5 0 0.9v1.7h-5.7zm2.7-2.3q0-0.1 0-0.3q0-0.2-0.1-0.3q0-0.2-0.1-0.3q0-0.1-0.1-0.3q-0.2-0.2-0.5-0.3q-0.2-0.1-0.5-0.1q-0.3 0-0.6 0.2q-0.2 0.1-0.4 0.3q-0.1 0.2-0.2 0.3q0 0.2-0.1 0.3q0 0.2-0.1 0.4q0 0.1 0 0.3h2.7c0 0 0-0.2 0-0.2zm-12.3-1.8q0.5 0.1 0.9 0.3q0.5 0.2 0.9 0.4q0.5 0.2 0.9 0.4q0.4 0.3 0.8 0.6q0.3 0.2 0.5 0.6q0.2 0.3 0.4 0.6q0.1 0.4 0.2 0.8q0.1 0.4 0 0.7q0.1 0.4 0 0.8q-0.1 0.4-0.3 0.8q-0.2 0.4-0.4 0.7q-0.3 0.3-0.6 0.5q-0.4 0.3-0.9 0.5q-0.4 0.2-0.9 0.3q-0.5 0.2-0.9 0.2q-0.5 0.1-1 0q-0.5 0-1.1 0q-0.5-0.1-1-0.2q-0.5-0.2-1-0.4q-0.5-0.2-0.9-0.5q-0.4-0.3-0.7-0.7q-0.3-0.3-0.6-0.8q-0.2-0.4-0.3-0.9q-0.1-0.5 0-0.9v-0.1h3.1q-0.1 0.2 0 0.5q0 0.2 0.1 0.4q0.1 0.2 0.2 0.4q0.1 0.2 0.3 0.4q0.2 0.1 0.4 0.2q0.2 0.1 0.5 0.2q0.2 0 0.5 0.1q0.2 0 0.5 0q0.2 0 0.4 0q0.2-0.1 0.3-0.1q0.2-0.1 0.4-0.1q0.2-0.1 0.3-0.2q0.2-0.1 0.2-0.2q0.1-0.1 0.2-0.3q0.1-0.1 0.1-0.3q0-0.1 0-0.2q0-0.2 0-0.4q0-0.1-0.1-0.2q-0.1-0.2-0.1-0.3q-0.1-0.1-0.3-0.2q-0.2-0.2-0.4-0.3q-0.2-0.1-0.4-0.2q-0.2-0.1-0.4-0.2q-0.2-0.1-0.5-0.2q-0.5-0.1-1-0.3q-0.4-0.2-0.9-0.4q-0.5-0.2-1-0.5q-0.4-0.2-0.8-0.5q-0.4-0.2-0.6-0.5q-0.2-0.3-0.4-0.7q-0.2-0.3-0.2-0.7q-0.1-0.4-0.1-0.8q0-0.4 0.1-0.8q0.1-0.4 0.3-0.7q0.2-0.4 0.5-0.7q0.2-0.3 0.6-0.5q0.4-0.3 0.8-0.5q0.5-0.2 1-0.3q0.4-0.2 0.9-0.2q0.5-0.1 1-0.1q0.5 0 1 0.1q0.5 0 1 0.2q0.4 0.1 0.9 0.4q0.4 0.2 0.8 0.5q0.3 0.3 0.6 0.6q0.3 0.3 0.5 0.7q0.1 0.4 0.2 0.8q0.1 0.4 0.1 0.9h-3.1q0-0.2 0-0.3q0-0.2-0.1-0.4q-0.1-0.2-0.2-0.3q-0.1-0.2-0.2-0.3q-0.2-0.1-0.4-0.2q-0.1-0.1-0.3-0.2q-0.2-0.1-0.4-0.1q-0.2 0-0.4 0q-0.2 0-0.4 0q-0.2 0-0.4 0.1q-0.2 0-0.4 0.1q-0.2 0.1-0.3 0.2q-0.1 0.1-0.2 0.2q-0.1 0.1-0.2 0.3q-0.1 0.1-0.1 0.3q-0.1 0.1-0.1 0.3q0 0.1 0.1 0.2q0 0.2 0.1 0.3q0.1 0.1 0.2 0.2q0.1 0.1 0.2 0.2q0.2 0.1 0.5 0.3q0.2 0.1 0.5 0.2q0.2 0.1 0.5 0.2q0.3 0.1 0.5 0.2z" />
	<path id="Icon-22" fill-rule="evenodd" class="s16" d="m-320 82v19h-50v-50h50v7h-3v-4h-44v44h44v-16z" />
	<path id="Right-4" fill-rule="evenodd" class="s11" d="m-88.1 138h-3.1l19.2-40.5l-19.2-40.5h3.1l19.1 40.5zm-5.9-87h3.1z" />
	<path id="Left-2" fill-rule="evenodd" class="s11" d="m-132 97.5l19.2 40.5h-3.1l-19.1-40.5l19.1-40.5h3.1zm18.9-46.5h3.1c0 0-3.1 0-3.1 0z" />
	<path id="Background" fill-rule="evenodd" class="s16" d="m-69 51h183v48.5h-183zm183 48.5h-183l91.5 14.5z" />
	<path id="Background-2" fill-rule="evenodd" class="s17" d="m22.5 109q0 0 0 0q0 0 0 0q0 0-0.1 0q0 0 0 0l-86.9-13.7q-0.1 0-0.2-0.1q-0.1 0-0.2-0.1q-0.1-0.1-0.1-0.2q0-0.1 0-0.2q0 0 0 0q0 0 0 0q0 0 0 0q0 0 0 0v-39.2q0-0.1 0-0.2q0.1-0.1 0.1-0.2q0.1 0 0.2-0.1q0.1 0 0.2 0h175q0.1 0 0.2 0q0.1 0.1 0.2 0.1q0 0.1 0.1 0.2q0 0.1 0 0.2v39.2q0 0 0 0q0 0 0 0q0 0 0 0q0 0 0 0q0 0.1 0 0.2q0 0.1-0.1 0.2q-0.1 0.1-0.2 0.1q-0.1 0.1-0.2 0.1l-87.9 13.7q0 0 0 0q-0.1 0-0.1 0q0 0 0 0q0 0 0 0zm-86.5-14.6l86.5 13.6l87.5-13.6v-38.4h-174z" />
	<path id="Icon-23" fill-rule="evenodd" class="s7" d="m-244.7 160.5q-0.2 0.2-0.4 0.4q-0.2 0.1-0.4 0.1q-0.2 0-0.4-0.1q-0.2-0.2-0.4-0.4c-0.7-0.8-5.7-7.3-5.7-10.4q0-1.2 0.5-2.3q0.5-1 1.3-1.9q0.8-0.8 1.9-1.3q1.1-0.5 2.3-0.6q0.1 0 0.2 0q0.2 0 0.3 0q0.1 0 0.3 0q0.1 0 0.2 0q1.2 0.1 2.3 0.6q1.1 0.5 1.9 1.3q0.8 0.9 1.3 2q0.5 1 0.5 2.2c0 3.1-5 9.6-5.7 10.4zm-0.8-15.5c-2.9 0-5.5 2.5-5.5 5.2c0 1.8 3.2 6.8 5.5 9.8c2.3-3 5.5-8 5.5-9.8c0-2.7-2.6-5.2-5.5-5.2zm0 8c-1 0-1.9-0.6-2.3-1.6c-0.4-0.9-0.2-2 0.5-2.7c0.8-0.7 1.8-0.9 2.8-0.5c0.9 0.4 1.5 1.3 1.5 2.3q0 0.5-0.2 0.9q-0.2 0.5-0.5 0.9q-0.4 0.3-0.9 0.5q-0.4 0.2-0.9 0.2zm0-4c-0.6 0-1.2 0.4-1.4 0.9c-0.2 0.6-0.1 1.2 0.3 1.7c0.5 0.4 1.1 0.5 1.7 0.3c0.5-0.2 0.9-0.8 0.9-1.4q0-0.3-0.1-0.6q-0.1-0.2-0.4-0.5q-0.2-0.2-0.4-0.3q-0.3-0.1-0.6-0.1z" />
	<path id="Layer" fill-rule="evenodd" class="s7" d="m-204 155q-0.1 0.2-0.2 0.3q-0.1 0.2-0.2 0.3q-0.1 0.1-0.3 0.2q-0.1 0.1-0.3 0.2h-12q-0.2-0.1-0.3-0.2q-0.2-0.1-0.3-0.2q-0.1-0.1-0.2-0.3q-0.1-0.1-0.2-0.3v-9q0.1-0.2 0.2-0.3q0.1-0.2 0.2-0.3q0.1-0.1 0.3-0.2q0.1-0.1 0.3-0.2h12q0.2 0.1 0.3 0.2q0.2 0.1 0.3 0.2q0.1 0.1 0.2 0.3q0.1 0.1 0.2 0.3zm-13-8l6 4l6-4v-1h-12zm12 1.3l-6 3.7l-6-4v7h12z" />
	<path id="Layer" fill-rule="evenodd" class="s7" d="m-233.2 144q0 0 0.1 0q0.1 0 0.2 0q0.1 0.1 0.1 0.1q0.1 0 0.2 0.1q0.1 0.1 0.1 0.1c0.1 0.2 0.6 0.8 1 1.5c0.5 0.7 0.9 1.4 1 1.6q0.1 0.1 0.1 0.3q0 0.1 0 0.3q0 0.1 0 0.3q-0.1 0.1-0.2 0.2c-0.1 0.3-0.6 1.2-0.7 1.4q0.2 0.3 0.4 0.6q0.3 0.3 0.5 0.6q0.3 0.3 0.5 0.6q0.3 0.2 0.6 0.5q0.2 0.3 0.5 0.6q0.3 0.2 0.6 0.5q0.2 0.2 0.5 0.5q0.3 0.2 0.6 0.4c0.2-0.1 1.1-0.6 1.4-0.8q0.1 0 0.2 0q0.1-0.1 0.1-0.1q0.1 0 0.2 0q0.1-0.1 0.2-0.1q0.1 0 0.1 0.1q0.1 0 0.1 0q0.1 0 0.1 0q0.1 0 0.1 0.1c0.4 0.2 2.8 1.8 3.1 2q0.1 0.1 0.2 0.3q0.1 0.2 0.1 0.4q0 0.2 0 0.4q-0.1 0.2-0.2 0.3q-0.1 0.2-0.3 0.3q-0.1 0.2-0.2 0.3q-0.1 0.2-0.3 0.3q-0.1 0.2-0.2 0.3q-0.1 0.1-0.2 0.2q-0.1 0.1-0.2 0.2q-0.1 0.1-0.2 0.1q-0.1 0.1-0.1 0.2q-0.1 0-0.2 0.1q-0.1 0.1-0.2 0.1q-0.1 0-0.2 0.1q-0.1 0-0.2 0q-0.3 0-0.6-0.1q-0.3 0-0.6-0.1q-0.3-0.1-0.6-0.2q-0.3-0.1-0.5-0.2q-1.5-0.9-2.8-1.9q-1.3-1-2.5-2.2q-1.1-1.1-2.1-2.5q-1-1.3-1.8-2.7q-0.2-0.3-0.3-0.6q-0.1-0.3-0.2-0.6q-0.1-0.3-0.1-0.6q-0.1-0.3-0.1-0.6q0-0.1 0.1-0.2q0-0.1 0-0.2q0.1-0.1 0.1-0.2q0.1-0.1 0.1-0.1q0.1-0.1 0.2-0.2q0.1-0.1 0.1-0.2q0.1-0.1 0.2-0.2q0.1-0.1 0.2-0.1q0.1-0.2 0.3-0.3q0.1-0.1 0.3-0.3q0.1-0.1 0.3-0.2q0.1-0.1 0.3-0.3q0.1 0 0.1-0.1q0.1 0 0.2 0q0.1-0.1 0.1-0.1q0.1 0 0.2 0q0 0 0.1 0zm-0.1 1q0 0 0 0q0 0 0 0.1q0 0-0.1 0q-0.1 0.1-0.2 0.2q-0.2 0.1-0.3 0.2q-0.2 0.1-0.3 0.3q-0.1 0.1-0.3 0.2q0 0.1-0.1 0.1q-0.1 0.1-0.1 0.2q-0.1 0.1-0.2 0.1q0 0.1-0.1 0.2c0 0-0.1 0.1-0.1 0.1q0 0.3 0.1 0.5q0 0.3 0.1 0.5q0 0.3 0.1 0.5q0.1 0.2 0.2 0.5q0.8 1.3 1.8 2.6q0.9 1.2 2 2.3q1.1 1.2 2.4 2.1q1.2 1 2.6 1.8q0.2 0.1 0.4 0.2q0.3 0.1 0.5 0.1q0.2 0.1 0.5 0.2q0.2 0 0.5 0c0 0 0.1-0.1 0.1-0.1q0.1-0.1 0.2-0.1q0.1-0.1 0.1-0.2q0.1 0 0.2-0.1q0.1-0.1 0.1-0.1q0.1-0.2 0.3-0.3q0.1-0.1 0.2-0.3q0.1-0.1 0.2-0.3q0.1-0.1 0.2-0.2q0.1-0.1 0.1-0.1q0 0 0 0q0 0 0 0q0 0 0 0c-0.5-0.4-2.4-1.7-2.8-1.9q-0.1 0-0.1 0q0 0-0.1 0q0 0 0 0q0 0 0 0q-0.1 0-0.1 0.1q0 0 0 0q0 0 0 0q0 0 0 0c-0.4 0.2-1.1 0.6-1.3 0.7q-0.1 0.1-0.2 0.1q-0.2 0-0.3 0q-0.1 0-0.3 0q-0.1-0.1-0.2-0.1q-0.3-0.3-0.7-0.5q-0.3-0.3-0.6-0.5q-0.3-0.3-0.6-0.6q-0.3-0.3-0.6-0.6q-0.3-0.3-0.5-0.5q-0.3-0.3-0.6-0.6q-0.2-0.4-0.5-0.7q-0.2-0.3-0.5-0.6q-0.1-0.1-0.1-0.3q0-0.1 0-0.2q0-0.2 0-0.3q0-0.1 0.1-0.3c0.1-0.2 0.6-1 0.7-1.3q0.1 0 0.1-0.1q0 0 0 0q0 0 0-0.1q0 0 0 0c-0.1-0.2-0.5-0.9-0.9-1.5c-0.5-0.7-0.8-1.2-1-1.4q0 0 0 0z" />
	<g id="Icon-24">
		<path id="Background-3" fill-rule="evenodd" class="s16" d="m-370 1h47v49h-47z" />
		<path id="Icon-25" fill-rule="evenodd" class="s11" d="m-336 35v-7l-2 1v6c-2.8-0.2-6.2 2.5-8 3v-33c0 0 4.2-2.4 8-2v22l2-1v-16c1.1-0.1 6.2-0.4 9-3.4v27q-0.9 0.8-2 1.4q-1.1 0.6-2.2 1q-1.2 0.5-2.4 0.7q-1.2 0.3-2.4 0.3zm-20-13l-1.1 1.3l-0.9 0.7v20q-0.7 0.9-1.6 1.7q-0.9 0.8-1.9 1.3q-1.1 0.5-2.2 0.8q-1.1 0.2-2.3 0.2v-26.2q1.2-0.1 2.4-0.4q1.1-0.3 2.3-0.7q1.1-0.4 2.1-1q1.1-0.6 2.1-1.3q0.1-0.1 0.3-0.3q0.1-0.1 0.3-0.3q0.1-0.1 0.3-0.3q0.1-0.2 0.2-0.3v-6.2c0 0 3.7-4.1 8-5v33c0 0-5.9 1.9-8 4.4c0 0 0-21.4 0-21.4z" />
	</g>
	<path id="Layer" fill-rule="evenodd" class="s13" d="m-139.2 20.9v-11.4h-2.2q-0.1 0-0.3 0q-0.1 0-0.3 0q-0.1 0-0.2 0q-0.2 0.1-0.3 0.1q-0.1 0-0.1 0.1q-0.1 0-0.1 0q0 0.1 0 0.1q0 0.1 0 0.1q0 0.2 0 0.4q0.1 0.1 0.1 0.3q0.1 0.1 0.2 0.3q0 0.1 0.1 0.3q0.4 0.2 0.7 0.5q0.4 0.3 0.7 0.5q0.4 0.3 0.8 0.5q0.4 0.2 0.7 0.5q-0.3 0.6-0.6 1.2q-0.3 0.6-0.7 1.2q-0.3 0.6-0.7 1.2q-0.4 0.6-0.8 1.2q-0.3 0.6-0.7 1.1q-0.4 0.6-0.8 1.1q-0.4 0.6-0.8 1.1q-0.5 0.5-0.9 1l-0.3 0.3l-3.4-2.6l0.3-0.3q0.2-0.4 0.5-0.7q0.2-0.3 0.5-0.6q0.2-0.4 0.4-0.7q0.3-0.4 0.5-0.7q0.8-1.2 1.7-2.9q-0.2-0.2-0.5-0.4q-0.3-0.2-0.5-0.4q-0.2-0.3-0.4-0.5q-0.2-0.3-0.4-0.5q-0.2-0.3-0.3-0.6q-0.2-0.3-0.3-0.6q0-0.3-0.1-0.7q0-0.3 0-0.6q-0.1-0.5 0.1-1q0.1-0.5 0.4-0.9q0.2-0.5 0.6-0.8q0.4-0.4 0.8-0.6q0.4-0.1 0.7-0.2q0.3-0.1 0.7-0.2q0.3-0.1 0.7-0.1q0.3 0 0.7 0h8v14.9zm-21.3-2.6q-0.6-0.7-1.1-1.5q-0.4-0.7-0.7-1.6q-0.4-0.8-0.5-1.7q-0.2-0.9-0.2-1.7q0-4.1 3.2-5.3q0.3-0.2 0.7-0.2q0.3-0.1 0.7-0.2q0.3-0.1 0.7-0.1q0.4 0 0.7 0h7v15h-4.6q-0.8 0-1.6-0.2q-0.9-0.2-1.6-0.5q-0.8-0.4-1.5-0.9q-0.6-0.5-1.2-1.1zm5.9-8.3h-1.4q-0.2 0-0.4 0.1q-0.3 0-0.5 0q-0.1 0.1-0.3 0.1q-0.2 0.1-0.4 0.2q-0.2 0.1-0.4 0.3q-0.1 0.2-0.2 0.5q-0.1 0.2-0.1 0.4q0 0.3 0 0.5q0 0.6 0.1 1.1q0.1 0.6 0.4 1.1q0.2 0.5 0.5 0.9q0.4 0.5 0.8 0.9q0.2 0.1 0.4 0.3q0.3 0.1 0.5 0.2q0.3 0.2 0.5 0.2q0.3 0.1 0.5 0.1c0 0 0-6.9 0-6.9zm-13.4 11l-3.7-8.3l3.1-6.7h5l-3 6.6l3.6 8.4c0 0-5 0-5 0zm-8-15h4.3v15h-4.3zm-4.5 10.2q0.2 0.2 0.4 0.3q0.3 0.2 0.5 0.2q0.2 0.1 0.5 0.2q0.3 0 0.5 0h1.6l-1.1 4.1h-0.7q-0.6 0-1.1-0.1q-0.6-0.1-1.1-0.2q-0.6-0.2-1.1-0.5q-0.5-0.2-0.9-0.5q-0.5-0.4-0.9-0.7q-0.4-0.4-0.7-0.8q-0.4-0.5-0.7-0.9q-0.3-0.5-0.6-1q-0.3-0.5-0.5-1.1q-0.2-0.5-0.3-1.1q-0.1-0.6-0.2-1.2q-0.1-0.6-0.1-1.2q0-4 3.1-5.2q0.3-0.2 0.7-0.3q0.3-0.1 0.7-0.1q0.3-0.1 0.7-0.1q0.3 0 0.7 0h2.8l1.1 4h-3q-0.2 0-0.4 0q-0.2 0.1-0.4 0.1q-0.2 0.1-0.4 0.1q-0.2 0.1-0.4 0.2q-0.1 0.1-0.3 0.3q-0.1 0.2-0.2 0.4q-0.1 0.3-0.1 0.5q-0.1 0.3 0 0.5q0 0.3 0 0.6q0.1 0.3 0.1 0.6q0.1 0.3 0.2 0.6q0.1 0.3 0.2 0.5q0.2 0.3 0.3 0.5q0.2 0.3 0.3 0.5q0.2 0.2 0.4 0.4q0.2 0.2 0.4 0.4zm-12 1.4q0 0.2 0 0.4q0 0.3 0 0.5q0 0.2 0.1 0.4q0 0.2 0.1 0.4l0.1 0.3l-4 2.4l-0.2-0.4q-0.1-0.4-0.3-0.7q-0.1-0.4-0.2-0.8q0-0.4-0.1-0.8q0-0.3 0-0.7v-12.6h8.9l1.1 3.9h-5.5c0 0 0 7.7 0 7.7zm-13.9 2.8v5.6h-4.6v-20h7q0.6-0.1 1.3 0q0.6 0.1 1.2 0.3q0.6 0.2 1.2 0.5q0.5 0.4 1 0.8q0.3 0.4 0.6 0.9q0.3 0.4 0.4 0.9q0.2 0.5 0.3 1q0 0.5 0 1q0 0.8-0.1 1.5q-0.1 0.8-0.4 1.5q-0.3 0.7-0.7 1.4q-0.3 0.6-0.9 1.2q-0.6 0.7-1.3 1.2q-0.7 0.6-1.5 1q-0.8 0.5-1.7 0.8q-0.9 0.3-1.8 0.4zm3-10.3q-0.1-0.1-0.3-0.1q-0.2-0.1-0.4-0.1q-0.2-0.1-0.4-0.1q-0.2 0-0.4 0h-1.5v6.5q0.5-0.1 1-0.3q0.5-0.2 1-0.5q0.4-0.4 0.7-0.8q0.3-0.4 0.6-0.9q0.1-0.2 0.2-0.5q0-0.2 0.1-0.5q0.1-0.3 0.1-0.5q0-0.3 0-0.6q0.1-0.2 0-0.4q0-0.2-0.1-0.5q-0.1-0.2-0.2-0.4q-0.2-0.1-0.4-0.3zm-19.8 14.9l2.1-6.1l-4.9-12.9h5.2l2 6.7l2-6.7h4.8l-6.5 19zm-9.6-20.8q-0.2 0-0.4 0.1q-0.2 0-0.4 0.1q-0.1 0.1-0.3 0.3q-0.2 0.1-0.3 0.2q-0.1 0.2-0.3 0.4q-0.1 0.2-0.2 0.5q0 0.2-0.1 0.4q0 0.3 0 0.5q0.2 0 0.4-0.1q0.2 0 0.4 0q0.2-0.1 0.4-0.1q0.2 0 0.3 0q0.3-0.1 0.5-0.1q0.2 0 0.4 0q0.2 0 0.4 0q0.3 0 0.5 0q0.5-0.1 1.1 0q0.5 0.1 1 0.2q0.6 0.2 1 0.5q0.5 0.2 1 0.6q0.3 0.4 0.6 0.8q0.3 0.5 0.5 1q0.2 0.5 0.3 1.1q0.1 0.5 0 1q0 0.5 0 0.9q0 0.4-0.1 0.9q-0.1 0.4-0.2 0.8q0 0.5-0.2 0.9q-0.1 0.4-0.2 0.8q-0.1 0.3-0.3 0.7q-0.1 0.4-0.3 0.7q-0.2 0.4-0.4 0.7q-0.2 0.3-0.4 0.6q-0.2 0.3-0.5 0.6q-0.3 0.3-0.5 0.5q-0.3 0.3-0.6 0.5q-0.3 0.2-0.6 0.3q-0.4 0.2-0.7 0.3q-0.4 0.1-0.7 0.1q-0.4 0.1-0.8 0.1q-0.4 0-0.9-0.1q-0.4-0.1-0.9-0.3q-0.4-0.1-0.8-0.4q-0.4-0.2-0.7-0.6q-0.4-0.3-0.7-0.8q-0.4-0.4-0.6-0.8q-0.3-0.5-0.6-0.9q-0.2-0.5-0.4-1q-0.2-0.5-0.3-1.1q-0.2-0.5-0.3-1.1q-0.1-0.6-0.2-1.1q0-0.6 0-1.2q-0.1-2.1-0.1-2.2q0-0.7 0-1.4q0.1-0.6 0.1-1.3q0.1-0.7 0.2-1.3q0.1-0.7 0.3-1.3q0.1-0.5 0.3-0.9q0.2-0.5 0.5-0.8q0.3-0.4 0.6-0.8q0.4-0.3 0.8-0.6q0.5-0.3 1-0.5q0.6-0.2 1.1-0.3q0.6-0.1 1.2-0.2q0.6 0 1.2 0h3.7l1.1 4h-3.7q-0.3 0-0.6 0q-0.2 0-0.5 0q-0.3 0-0.6 0.1q-0.3 0-0.5 0.1zm-1.4 10.3q0 0.2 0.1 0.5q0.1 0.2 0.2 0.4q0.1 0.3 0.3 0.5q0.1 0.2 0.2 0.4q0.1 0.2 0.2 0.3q0.1 0.1 0.2 0.2q0.1 0.1 0.3 0.1q0.1 0.1 0.2 0.1q0.2 0 0.3-0.1q0.2 0 0.3-0.1q0.1-0.1 0.2-0.2q0.1-0.1 0.2-0.3q0.1-0.2 0.2-0.4q0.2-0.2 0.3-0.5q0.1-0.2 0.2-0.4q0.1-0.3 0.1-0.5q0.1-0.3 0.2-0.6q0-0.3 0.1-0.6q0-0.4 0-0.7q0-0.3 0-0.6q0-1.9-2.1-1.9q-2 0-2 1.9q0 0.3 0 0.6q0 0.3 0 0.7q0.1 0.3 0.1 0.6q0.1 0.3 0.2 0.6zm-14.2 5.9v5.6h-4.6v-20h7q0.6-0.1 1.3 0q0.6 0.1 1.2 0.3q0.6 0.2 1.2 0.5q0.5 0.4 1 0.8q0.3 0.4 0.6 0.9q0.3 0.4 0.4 0.9q0.2 0.5 0.3 1q0 0.5 0 1q0 0.8-0.1 1.5q-0.1 0.8-0.4 1.5q-0.3 0.7-0.7 1.4q-0.4 0.6-0.9 1.2q-0.6 0.7-1.3 1.2q-0.7 0.6-1.5 1q-0.8 0.5-1.7 0.8q-0.9 0.3-1.8 0.4zm3-10.3q-0.1-0.1-0.3-0.1q-0.2-0.1-0.4-0.1q-0.2-0.1-0.4-0.1q-0.2 0-0.4 0h-1.5v6.5q0.5-0.1 1-0.3q0.5-0.2 1-0.5q0.4-0.4 0.7-0.8q0.3-0.4 0.5-0.9q0.2-0.2 0.3-0.5q0-0.2 0.1-0.5q0.1-0.3 0.1-0.5q0-0.3 0-0.6q0.1-0.2 0-0.4q0-0.3-0.1-0.5q-0.1-0.2-0.2-0.4q-0.2-0.1-0.4-0.3zm-11.8 5.3q-0.8 0.6-2 1.4q0.3 0 0.7 0.1q0.3 0 0.6 0.1q0.4 0 0.7 0q0.4 0 0.7 0h1.8l-1.1 4h-2.8q-0.8 0-1.6-0.2q-0.9-0.2-1.6-0.5q-0.8-0.4-1.5-0.9q-0.6-0.5-1.2-1.1q-0.6-0.6-1-1.4q-0.5-0.7-0.8-1.5q-0.4-0.9-0.5-1.7q-0.2-0.9-0.2-1.8c0.1-2.7 0.9-4.5 2.8-5.3q0.5-0.2 1-0.3q0.4-0.1 0.9-0.2q0.5-0.1 1-0.1q0.5 0 0.9 0h1q5.4 0 5.4 4q0 0.6-0.1 1.1q-0.1 0.5-0.3 1.1q-0.2 0.5-0.5 0.9q-0.3 0.5-0.7 0.9q-0.2 0.2-0.3 0.4q-0.2 0.2-0.4 0.3q-0.2 0.2-0.4 0.4q-0.2 0.1-0.5 0.3zm-1.9-5.4q-0.1 0-0.2 0q-0.2 0-0.3-0.1q-0.1 0-0.2 0q-0.2 0-0.3 0q-0.4 0-0.9 0.1q-0.4 0.1-0.7 0.5q-0.4 0.3-0.5 0.7q-0.2 0.5-0.1 0.9q0 0.2 0 0.5q0 0.2 0.1 0.4q0 0.2 0.1 0.4q0 0.3 0.1 0.5q0.3-0.2 0.6-0.4q0.3-0.2 0.6-0.3q0.2-0.2 0.5-0.4q0.3-0.2 0.6-0.4q0.2-0.2 0.4-0.4q0.1-0.1 0.3-0.4q0.1-0.2 0.2-0.4q0.1-0.3 0.1-0.5q0-0.1 0-0.2q0-0.1-0.1-0.2q0-0.1-0.1-0.2q-0.1 0-0.2-0.1zm-12.1 11h-4.6v-11.1h-4.2q0-0.1 0-0.1l1.1-3.8h10.8l1.1 3.9h-4.2c0 0 0 11.1 0 11.1zm-8.8-11.1q0 0 0 0.1q0 0.6-0.1 1.1q-0.1 0.5-0.3 1.1q-0.2 0.5-0.5 0.9q-0.3 0.5-0.7 0.9q-0.2 0.2-0.4 0.4q-0.1 0.2-0.3 0.3q-0.2 0.2-0.4 0.4q-0.2 0.1-0.5 0.3q-0.8 0.6-2 1.4q0.3 0 0.6 0.1q0.4 0 0.7 0.1q0.4 0 0.7 0q0.4 0 0.7 0h1.8l-1.1 4h-2.8q-0.8 0-1.7-0.2q-0.8-0.2-1.5-0.5q-0.8-0.4-1.5-0.9q-0.7-0.5-1.2-1.1q-0.6-0.6-1.1-1.4q-0.4-0.7-0.8-1.5q-0.3-0.9-0.4-1.7q-0.2-0.9-0.2-1.8c0-2.7 0.9-4.4 2.8-5.3q0.5-0.2 0.9-0.3q0.5-0.1 1-0.2q0.5-0.1 1-0.1q0.4 0 0.9 0h1q5.3 0 5.4 3.8v0.1zm-5.1 0.1q-0.1 0-0.3 0q-0.1 0-0.2-0.1q-0.1 0-0.2 0q-0.2 0-0.3 0q-0.4 0-0.9 0.1q-0.4 0.1-0.8 0.5q-0.3 0.3-0.4 0.7q-0.2 0.5-0.1 0.9q0 0.2 0 0.5q0 0.2 0.1 0.4q0 0.2 0.1 0.4q0 0.3 0.1 0.5q0.3-0.2 0.6-0.4q0.3-0.2 0.6-0.3q0.2-0.2 0.5-0.4q0.3-0.2 0.5-0.4q0.3-0.2 0.4-0.4q0.2-0.1 0.4-0.4q0.1-0.2 0.2-0.4q0.1-0.3 0.1-0.5q0-0.1 0-0.2q0-0.1-0.1-0.2q0-0.1-0.1-0.2q-0.1 0-0.2-0.1zm-1.3 24h1q5.4 0 5.4 4q0 0.6-0.1 1.1q-0.1 0.5-0.3 1.1q-0.2 0.5-0.5 0.9q-0.3 0.5-0.7 0.9q-0.1 0.2-0.3 0.4q-0.2 0.1-0.4 0.3q-0.2 0.2-0.4 0.4q-0.2 0.1-0.4 0.3q-0.9 0.6-2.1 1.3q0.3 0.1 0.7 0.2q0.3 0 0.6 0.1q0.4 0 0.7 0q0.4 0 0.7 0h1.8l-1.1 4h-2.8q-0.8 0-1.6-0.2q-0.9-0.2-1.6-0.5q-0.8-0.4-1.5-0.9q-0.6-0.5-1.2-1.1q-0.6-0.6-1.1-1.4q-0.4-0.7-0.8-1.5q-0.3-0.9-0.4-1.7q-0.2-0.9-0.2-1.8c0-2.7 0.9-4.5 2.8-5.3q0.5-0.2 0.9-0.3q0.5-0.1 1-0.2q0.5-0.1 1-0.1q0.4 0 0.9 0zm-1.6 7.9q0.3-0.2 0.6-0.4q0.3-0.2 0.6-0.3q0.3-0.2 0.5-0.4q0.3-0.2 0.6-0.4q0.2-0.2 0.4-0.4q0.1-0.1 0.3-0.4q0.1-0.2 0.2-0.4q0.1-0.3 0.1-0.5q0-0.1 0-0.2q0-0.1-0.1-0.2q0-0.1-0.1-0.2q-0.1 0-0.2-0.1q-0.1 0-0.2 0q-0.2 0-0.3-0.1q-0.1 0-0.2 0q-0.2 0-0.3 0q-0.4 0-0.9 0.1q-0.4 0.1-0.7 0.5q-0.4 0.3-0.5 0.7q-0.2 0.5-0.1 0.9q0 0.2 0 0.5q0 0.2 0.1 0.4q0 0.2 0.1 0.4q0 0.2 0.1 0.5zm-18.1-2.8v6.3q0 1 0.1 1.6q0 0.1 0 0.3q0 0.1 0.1 0.2q0 0.2 0 0.3q0.1 0.2 0.1 0.3l-4.4 2.9q-0.2-0.5-0.4-1q-0.1-0.5-0.2-1.1q-0.1-0.5-0.2-1q0-0.6 0-1.1v-17.8h4.9v6h5.2v-6h4.9v20h-4.9c0 0 0-10 0-10zm5.1-34h-5.4l0.3 12.4q0 1 0 1.6q0.1 0.1 0.1 0.2q0 0.2 0 0.3q0.1 0.2 0.1 0.3q0 0.2 0.1 0.3l-4.5 2.9q-0.2-0.5-0.3-1q-0.2-0.6-0.3-1.1q-0.1-0.5-0.1-1.1q0-0.5 0-1v-17.8h15v19.9h-4.9zm22.2 38.5q0-0.6 0-1.3q0.1-0.6 0.2-1.3q0.2-0.6 0.4-1.2q0.2-0.6 0.5-1.2q0.3-0.5 0.6-1q0.3-0.5 0.7-0.9q0.4-0.4 0.9-0.8q0.4-0.3 0.9-0.6q0.6-0.3 1.3-0.6q0.7-0.2 1.4-0.4q0.7-0.1 1.4-0.2q0.7 0 1.5 0h2.2v10.9h1.7l-1.1 4.1h-12.7l-1.1-4.1h1.3q-0.1-0.1-0.1-0.3q0-0.2 0-0.4q0-0.1 0-0.3q0-0.2 0-0.4zm4.6 1.4h3.1v-6.7q-3.3 0.9-3.3 5q0 0.2 0 0.4q0.1 0.2 0.1 0.5q0 0.2 0 0.4q0.1 0.2 0.1 0.4zm21.4-9.8q0.3 0.2 0.5 0.5q0.2 0.3 0.4 0.7q0.1 0.3 0.2 0.7q0 0.3 0 0.7q0 0.4-0.1 0.9q-0.1 0.4-0.3 0.8q-0.3 0.5-0.6 0.8q-0.2 0.4-0.6 0.6q0.3 0.3 0.6 0.6q0.3 0.3 0.5 0.7q0.3 0.3 0.5 0.7q0.2 0.3 0.4 0.7q0 0.2 0.1 0.4q0 0.2 0.1 0.4q0 0.2 0 0.4q0.1 0.2 0.1 0.4q0 0.4-0.1 0.8q-0.1 0.3-0.2 0.7q-0.2 0.4-0.4 0.7q-0.3 0.3-0.6 0.5q-0.4 0.4-0.9 0.6q-0.4 0.2-1 0.4q-0.5 0.1-1 0.2q-0.5 0-1.1 0h-7.7v-15h7.8q0.4 0 0.9 0q0.5 0.1 0.9 0.2q0.4 0.1 0.9 0.4q0.4 0.2 0.7 0.5zm-4.5 4.6q0.1-0.1 0.2-0.2q0.1-0.1 0.2-0.2q0.1-0.1 0.1-0.3q0.1-0.1 0.1-0.2c0-0.6-0.4-0.8-1.3-0.8h-1.5v6.9h2.2q1.2 0 1.2-0.7q0-0.1 0-0.3q-0.1-0.1-0.1-0.2q-0.1-0.1-0.2-0.2q0-0.2-0.1-0.2q-0.2-0.2-0.3-0.3q-0.2-0.1-0.4-0.3q-0.1-0.1-0.3-0.2q-0.1-0.1-0.3-0.2l-1.4-1.1q0.2-0.1 0.5-0.3q0.2-0.2 0.5-0.4q0.2-0.2 0.5-0.4q0.2-0.2 0.4-0.4zm14.4-5.7q-0.2 0.5-0.6 1.5l-0.6 1.7q-0.2 0.6-0.5 1.6q-0.2 0.9-0.4 1.7q-0.1 0.2-0.1 0.5q0 0.2-0.1 0.5q0 0.2 0 0.4q0 0.3 0 0.5c0 1.6 0.5 2.3 1.8 2.5q0.1 0 0.3 0q0.2 0 0.3 0q0.2 0 0.4 0q0.2 0 0.3 0h0.8v-10.9h4.3v15h-7.3q-5.7 0-5.7-6.3q0-3.3 2.4-8.7c0 0 4.7 0 4.7 0zm7.5 0h5.1l1.9 6.8l-2.3 8.2h-5.3l2.7-8.3zm11.5 14.9h-4.3v-14.9h4.3c0 0 0 14.9 0 14.9zm7.2-14.9l-2.1 6.6l2.8 8.3h-5.4l-2.3-8.1l1.9-6.8zm7.8 0q-0.2 0.4-0.6 1.5l-0.6 1.7q-0.2 0.6-0.5 1.5q-0.3 0.9-0.4 1.8q-0.1 0.2-0.1 0.4q-0.1 0.3-0.1 0.5q0 0.2 0 0.5q0 0.2 0 0.5c0 1.5 0.5 2.3 1.8 2.4q0.1 0 0.3 0.1q0.2 0 0.3 0q0.2 0 0.4 0q0.1 0 0.3 0h0.9v-10.9h4.2v14.9h-7.3q-5.8 0-5.7-6.2q0-3.3 2.4-8.7c0 0 4.7 0 4.7 0zm14.9 3.8l2.8-3.8h4.2v14.9h-4.3v-7.8l-2.7 3.4l-2.8-3.4v7.8h-4.2v-14.9h4.1zm10.8-2.9q0.4-0.3 0.9-0.5q0.4-0.2 0.9-0.3q0.5-0.2 1-0.2q0.4-0.1 0.9 0h1.9q0.5-0.1 1 0q0.5 0 1 0.2q0.5 0.1 0.9 0.3q0.4 0.2 0.8 0.5q0.3 0.2 0.6 0.5q0.2 0.3 0.4 0.5q0.2 0.3 0.3 0.6q0.2 0.4 0.3 0.7q0.1 0.2 0.1 0.5q0.1 0.3 0.1 0.5q0 0.3 0.1 0.6q0 0.2 0 0.5q0 0.4 0 0.9q-0.1 0.4-0.1 0.9q-0.1 0.4-0.2 0.9q-0.1 0.4-0.2 0.8q-0.1 0.4-0.2 0.8q-0.1 0.4-0.3 0.8q-0.2 0.4-0.3 0.7q-0.2 0.4-0.4 0.7q-0.2 0.4-0.5 0.7q-0.2 0.3-0.4 0.5q-0.3 0.3-0.6 0.6q-0.2 0.2-0.6 0.4q-0.3 0.3-0.6 0.4q-0.3 0.2-0.7 0.3q-0.3 0.1-0.7 0.1q-0.3 0.1-0.7 0.1q-0.5 0-0.9-0.1q-0.5-0.1-1-0.3q-0.4-0.1-0.8-0.4q-0.4-0.3-0.7-0.6q-0.4-0.4-0.7-0.8q-0.4-0.4-0.7-0.9q-0.3-0.5-0.5-1q-0.2-0.5-0.4-1q-0.2-0.5-0.4-1.1q-0.1-0.5-0.2-1.1q-0.1-0.6-0.2-1.2q0-0.5 0-1.1q0-0.3 0-0.5q0-0.3 0.1-0.6q0-0.2 0.1-0.5q0-0.3 0.1-0.5q0.1-0.4 0.2-0.7q0.2-0.3 0.4-0.6q0.2-0.2 0.4-0.5q0.2-0.3 0.5-0.5zm2.9 7.3q0.1 0.2 0.2 0.5q0.1 0.2 0.2 0.5q0.1 0.2 0.2 0.5q0.1 0.2 0.3 0.4q0.1 0.3 0.3 0.5q0.3 0.2 0.6 0.2q0.3 0 0.6-0.2q0.2-0.2 0.3-0.5q0.1-0.2 0.3-0.4q0.1-0.3 0.2-0.5q0.1-0.2 0.2-0.5q0.1-0.2 0.1-0.5q0.1-0.3 0.2-0.6q0-0.3 0.1-0.6q0-0.4 0-0.7q0.1-0.3 0.1-0.6c-0.1-0.5-0.3-1-0.7-1.4c-0.4-0.3-0.9-0.5-1.4-0.5c-0.6 0-1.1 0.2-1.5 0.5c-0.4 0.4-0.6 0.9-0.6 1.4q0 0.3 0 0.6q0 0.3 0.1 0.6q0 0.4 0.1 0.7q0 0.3 0.1 0.6zm15.1-8.3h2.8l1.1 4h-3q-0.2 0-0.4 0q-0.2 0.1-0.4 0.1q-0.2 0.1-0.4 0.1q-0.1 0.1-0.3 0.2q-0.2 0.1-0.4 0.3q-0.1 0.2-0.2 0.4q-0.1 0.3-0.1 0.5q0 0.3 0 0.5q0 0.3 0.1 0.6q0 0.3 0.1 0.6q0 0.3 0.1 0.6q0.1 0.3 0.3 0.5q0.1 0.3 0.3 0.5q0.1 0.3 0.3 0.5q0.2 0.2 0.3 0.4q0.2 0.2 0.5 0.4q0.2 0.2 0.4 0.3q0.2 0.1 0.5 0.2q0.2 0.1 0.5 0.2q0.2 0 0.5 0h1.6l-1.2 4.1h-0.7q-0.5 0-1.1-0.1q-0.5-0.1-1.1-0.3q-0.5-0.1-1-0.4q-0.5-0.2-1-0.5q-0.4-0.4-0.8-0.7q-0.4-0.4-0.8-0.8q-0.4-0.5-0.7-0.9q-0.3-0.5-0.5-1q-0.3-0.5-0.5-1.1q-0.2-0.5-0.4-1.1q-0.1-0.6-0.2-1.2q0-0.6 0-1.2q0-4 3.1-5.2q0.3-0.2 0.6-0.3q0.4-0.1 0.7-0.1q0.3-0.1 0.7-0.1q0.3 0 0.7 0zm17.1 0l1.1 3.9h-4.3v11.1h-4.5v-11.1h-4.2l1.1-3.9c0 0 10.8 0 10.8 0zm6.4 3.3q0.5 0.2 1.1 0.5q0.5 0.2 0.9 0.5q0.5 0.3 1 0.6q0.5 0.3 0.9 0.6q0.3 0.2 0.6 0.5q0.3 0.2 0.6 0.5q0.3 0.3 0.5 0.6q0.2 0.3 0.4 0.7q0.2 0.2 0.3 0.5q0.1 0.4 0.2 0.7q0.1 0.3 0.1 0.6q0.1 0.4 0.1 0.7q0 0.6-0.2 1.2q-0.1 0.5-0.4 1.1q-0.3 0.5-0.7 0.9q-0.4 0.5-0.9 0.8q-0.3 0.2-0.6 0.3q-0.3 0.1-0.7 0.2q-0.3 0.1-0.7 0.2q-0.4 0-0.7 0h-6.1v-15h4.3c0 0 0 3.3 0 3.3zm0 7.7h0.8q1.4 0 1.4-0.7q0-0.2-0.1-0.3q0-0.2 0-0.3q-0.1-0.1-0.2-0.2q-0.1-0.2-0.2-0.3q-0.2-0.1-0.4-0.3q-0.2-0.2-0.4-0.3q-0.2-0.2-0.4-0.4q-0.2-0.1-0.5-0.2c0 0 0 3 0 3z" />
	<g id="YouTube">
		<path id="Icon-26" fill-rule="evenodd" class="s11" d="m-33.2 12.8q0 0.2 0 0.4q-0.1 0.2-0.1 0.4q-0.1 0.2-0.2 0.3q-0.1 0.2-0.2 0.4q-0.1 0.1-0.3 0.2q-0.2 0.1-0.4 0.2q-0.1 0.1-0.3 0.1q-0.2 0.1-0.4 0.1c-2 0.1-4.9 0.1-4.9 0.1c0 0-3.6 0-4.7-0.1q-0.3 0-0.5-0.1q-0.2 0-0.4-0.1q-0.2-0.1-0.4-0.2q-0.1-0.1-0.3-0.2q-0.1-0.2-0.2-0.4q-0.1-0.1-0.2-0.3q0-0.2-0.1-0.4q0-0.2 0-0.4q-0.1-0.2-0.1-0.5q0-0.3 0-0.6q-0.1-0.3-0.1-0.6q0-0.3 0-0.6v-1q0-0.3 0-0.6q0-0.3 0.1-0.6q0-0.3 0-0.6q0-0.2 0.1-0.5q0-0.2 0-0.4q0.1-0.2 0.1-0.4q0.1-0.2 0.2-0.3q0.1-0.2 0.2-0.3q0.1-0.2 0.3-0.3q0.2-0.1 0.4-0.2q0.1-0.1 0.3-0.1q0.2 0 0.4 0c2-0.2 4.9-0.2 4.9-0.2c0 0 2.9 0 4.9 0.1q0.2 0 0.4 0.1q0.2 0 0.3 0.1q0.2 0.1 0.4 0.2q0.1 0.1 0.3 0.2q0.1 0.2 0.2 0.4q0.1 0.1 0.2 0.3q0 0.2 0.1 0.4q0 0.2 0 0.4q0.1 0.2 0.1 0.5q0 0.3 0 0.6q0.1 0.3 0.1 0.6q0 0.3 0 0.6v1q0 0.3 0 0.6q0 0.3-0.1 0.6q0 0.3 0 0.6q0 0.3-0.1 0.5zm-8.8-4.8v4l4.9-2z" />
	</g>
	<g id="Instagram">
		<path id="Icon-27" fill-rule="evenodd" class="s11" d="m-53 12.9q0 0.2-0.1 0.4q0 0.2 0 0.4q-0.1 0.3-0.1 0.5q-0.1 0.2-0.2 0.4q-0.1 0.3-0.3 0.6q-0.2 0.4-0.5 0.6q-0.2 0.3-0.6 0.5q-0.3 0.2-0.6 0.3q-0.2 0.1-0.4 0.2q-0.2 0-0.5 0.1q-0.2 0-0.4 0q-0.2 0.1-0.4 0.1c-0.8 0-1 0-2.9 0c-1.9 0-2.1 0-2.9 0q-0.2 0-0.4-0.1q-0.2 0-0.4 0q-0.3-0.1-0.5-0.1q-0.2-0.1-0.4-0.2q-0.3-0.1-0.6-0.3q-0.4-0.2-0.6-0.5q-0.3-0.2-0.5-0.6q-0.2-0.3-0.3-0.6q-0.1-0.2-0.2-0.4q0-0.2-0.1-0.5q0-0.2 0-0.4q-0.1-0.2-0.1-0.4c0-0.8 0-1 0-2.9c0-1.9 0-2.1 0-2.9q0-0.2 0.1-0.4q0-0.2 0-0.4q0.1-0.3 0.1-0.5q0.1-0.2 0.2-0.4q0.1-0.3 0.3-0.6q0.2-0.4 0.5-0.6q0.2-0.3 0.6-0.5q0.3-0.2 0.6-0.3q0.2-0.1 0.4-0.2q0.2 0 0.5-0.1q0.2 0 0.4 0q0.2-0.1 0.4-0.1c0.8 0 1 0 2.9 0c1.9 0 2.1 0 2.9 0q0.2 0 0.4 0.1q0.2 0 0.4 0q0.3 0.1 0.5 0.1q0.2 0.1 0.4 0.2q0.3 0.1 0.6 0.3q0.4 0.2 0.6 0.5q0.3 0.2 0.5 0.6q0.2 0.3 0.3 0.6q0.1 0.2 0.2 0.4q0 0.2 0.1 0.5q0 0.2 0 0.4q0.1 0.2 0.1 0.4c0 0.8 0 1 0 2.9c0 1.9 0 2.1 0 2.9zm-1.3-5.8q0-0.1 0-0.3q0-0.2 0-0.3q-0.1-0.2-0.1-0.3q0-0.2-0.1-0.4q-0.1-0.2-0.2-0.4q-0.2-0.2-0.3-0.4q-0.2-0.1-0.4-0.3q-0.2-0.1-0.4-0.2q-0.2-0.1-0.4-0.1q-0.1 0-0.3-0.1q-0.1 0-0.3 0q-0.2 0-0.3 0c-0.8-0.1-1-0.1-2.9-0.1c-1.9 0-2.1 0-2.9 0.1q-0.1 0-0.3 0q-0.2 0-0.3 0q-0.2 0.1-0.3 0.1q-0.2 0-0.4 0.1q-0.2 0.1-0.4 0.2q-0.2 0.2-0.4 0.3q-0.1 0.2-0.3 0.4q-0.1 0.2-0.2 0.4q-0.1 0.2-0.1 0.4q0 0.1-0.1 0.3q0 0.1 0 0.3q0 0.2 0 0.3c-0.1 0.8-0.1 1-0.1 2.9c0 1.9 0 2.1 0.1 2.9q0 0.1 0 0.3q0 0.2 0 0.3q0.1 0.2 0.1 0.3q0 0.2 0.1 0.4q0.1 0.2 0.2 0.4q0.2 0.2 0.3 0.4q0.2 0.1 0.4 0.3q0.2 0.1 0.4 0.2q0.2 0.1 0.4 0.1q0.1 0 0.3 0.1q0.1 0 0.3 0q0.2 0 0.3 0c0.8 0.1 1 0.1 2.9 0.1c1.9 0 2.1 0 2.9-0.1q0.1 0 0.3 0q0.2 0 0.3 0q0.2-0.1 0.3-0.1q0.2 0 0.4-0.1q0.2-0.1 0.4-0.2q0.2-0.2 0.4-0.3q0.1-0.2 0.3-0.4q0.1-0.2 0.2-0.4q0.1-0.2 0.1-0.4q0-0.1 0.1-0.3q0-0.1 0-0.3q0-0.2 0-0.3c0.1-0.8 0.1-1 0.1-2.9c0-1.9 0-2.1-0.1-2.9zm-1.7-0.1c-0.4 0-0.8-0.2-0.9-0.6c-0.2-0.4-0.1-0.8 0.2-1.1c0.3-0.3 0.7-0.4 1.1-0.2c0.4 0.1 0.6 0.5 0.6 0.9q0 0.2-0.1 0.4q-0.1 0.2-0.2 0.3q-0.1 0.2-0.3 0.2q-0.2 0.1-0.4 0.1zm-4 7c-1.6 0-3.1-1-3.7-2.5c-0.6-1.5-0.3-3.2 0.9-4.3c1.1-1.2 2.8-1.5 4.3-0.9c1.5 0.6 2.5 2.1 2.5 3.7q0 0.8-0.3 1.5q-0.3 0.8-0.9 1.3q-0.5 0.6-1.3 0.9q-0.7 0.3-1.5 0.3zm0-6.4c-1 0-1.9 0.6-2.3 1.5c-0.3 0.9-0.1 1.9 0.6 2.6c0.7 0.7 1.7 0.9 2.6 0.5c0.9-0.3 1.5-1.2 1.5-2.2q0-0.5-0.2-0.9q-0.1-0.5-0.5-0.8q-0.3-0.4-0.8-0.6q-0.4-0.1-0.9-0.1z" />
	</g>
	<g id="Twitter">
		<path id="Icon-28" fill-rule="evenodd" class="s11" d="m-72.3 5.7q-0.2 0.2-0.4 0.4q-0.1 0.2-0.3 0.3q-0.2 0.2-0.4 0.3q0 0.2 0 0.4q0 1.6-0.7 3.1q-0.6 1.4-1.8 2.6q-1.1 1.1-2.6 1.7q-1.5 0.5-3.1 0.5q-0.7 0-1.3-0.1q-0.7-0.1-1.4-0.2q-0.6-0.2-1.2-0.4q-0.7-0.2-1.3-0.5c0.3 0 2 0 2.3 0q0.3-0.1 0.7-0.2q0.4-0.1 0.7-0.2q0.4-0.2 0.7-0.3q0.3-0.2 0.6-0.4q-0.4 0-0.8-0.2q-0.4-0.1-0.8-0.4q-0.4-0.3-0.6-0.6q-0.3-0.4-0.4-0.8q0.1 0 0.3 0q0.2 0 0.3 0q0.2 0 0.3 0q0.2 0 0.4-0.1c-1.3-0.2-2.8-1.5-2.8-2.8c0 0 0.5 0.1 0.5 0.1q0.1 0 0.3 0.1q0.1 0.1 0.3 0.1q0.2 0.1 0.3 0.1q0.2 0 0.4 0q-0.3-0.2-0.6-0.4q-0.2-0.3-0.4-0.6q-0.1-0.3-0.2-0.6q-0.1-0.4-0.1-0.7q0-0.2 0-0.4q0-0.2 0.1-0.3q0-0.2 0.1-0.4q0.1-0.1 0.2-0.3q0.5 0.7 1.2 1.2q0.6 0.5 1.4 0.9q0.7 0.4 1.6 0.6q0.8 0.3 1.6 0.3q0-0.1 0-0.2q0-0.1 0-0.2q0 0 0-0.1q0-0.1 0-0.2q0-0.6 0.2-1.1q0.3-0.5 0.7-0.9q0.4-0.4 0.9-0.6q0.5-0.2 1.1-0.2q0.3 0 0.6 0q0.3 0.1 0.5 0.2q0.3 0.1 0.5 0.3q0.3 0.2 0.5 0.4q0.2-0.1 0.5-0.2q0.2-0.1 0.5-0.2q0.2-0.1 0.4-0.2q0.3-0.1 0.5-0.2q-0.1 0.2-0.2 0.5q-0.2 0.2-0.3 0.4q-0.2 0.2-0.4 0.4q-0.2 0.2-0.4 0.3q0.2 0 0.4 0q0.2-0.1 0.4-0.1q0.2-0.1 0.4-0.2q0.2 0 0.4-0.1q-0.1 0.2-0.3 0.4z" />
	</g>
	<g id="Facebook">
		<path id="Icon-29" fill-rule="evenodd" class="s11" d="m-100.9 17v-6.4h-2.1v-2.5h2.1v-1.8q-0.1-0.7 0.1-1.3q0.2-0.6 0.6-1.1q0.5-0.4 1.1-0.7q0.6-0.2 1.3-0.2q0.2 0 0.4 0q0.2 0 0.5 0q0.2 0 0.4 0.1q0.3 0 0.5 0v2.2h-1.3q-0.2 0-0.5 0q-0.2 0.1-0.4 0.3q-0.2 0.2-0.2 0.4q-0.1 0.3-0.1 0.5v1.6h2.4l-0.3 2.5h-2.1v6.4c0 0-2.4 0-2.4 0z" />
	</g>
	<g id="VKontakte">
		<path id="Icon-30" fill-rule="evenodd" class="s11" d="m-120.2 14q-0.4 0-0.9-0.2q-0.5-0.1-1-0.3q-0.4-0.2-0.8-0.5q-0.4-0.3-0.7-0.6c-1.8-1.9-3.4-5.9-3.4-5.9q0-0.1 0-0.1q0-0.1 0-0.1q0-0.1 0-0.1q0-0.1 0-0.1q0.1 0 0.1-0.1q0.1 0 0.1 0q0.1 0 0.1 0q0.1 0 0.2 0h2q0 0 0 0q0.1 0 0.1 0q0.1 0 0.1 0q0 0.1 0.1 0.1q0 0 0 0q0.1 0.1 0.1 0.1q0 0 0 0.1q0 0 0 0q0.1 0.3 0.2 0.5q0.1 0.3 0.2 0.5q0.1 0.3 0.2 0.5q0.1 0.2 0.2 0.5c0.8 1.4 1.2 1.7 1.5 1.6c0.4-0.2 0.3-2 0.3-2.1q0-0.1 0-0.2q0-0.1 0-0.2q-0.1-0.2-0.1-0.3q-0.1-0.1-0.1-0.2q-0.1-0.1-0.1-0.1q-0.1-0.1-0.2-0.1q-0.1-0.1-0.2-0.1q0 0-0.1 0c-0.1 0 0-0.3 0.3-0.4q0.2-0.1 0.4-0.1q0.2-0.1 0.4-0.1q0.3 0 0.5 0q0.2 0 0.4 0q0.2 0 0.3 0q0.1 0 0.2 0q0.1 0 0.3 0.1q0.1 0 0.2 0c0.7 0.2 0.5 0.8 0.5 2.4q-0.1 0.1-0.1 0.3q0 0.2 0.1 0.4q0 0.2 0.1 0.4q0 0.1 0.1 0.3c0.2 0.1 0.6 0 1.5-1.6q0.1-0.2 0.2-0.5q0.2-0.2 0.2-0.5q0.1-0.3 0.2-0.5q0.1-0.3 0.2-0.5q0-0.1 0-0.1q0 0 0.1-0.1q0 0 0 0q0 0 0.1-0.1q0 0 0 0q0.1 0 0.1 0q0 0 0.1 0q0 0 0 0h2.1q0.1-0.1 0.2 0q0.1 0 0.2 0q0.1 0 0.2 0.1q0.1 0 0.2 0.1q0 0.3-0.1 0.7q-0.1 0.3-0.3 0.6q-0.1 0.4-0.3 0.7q-0.2 0.3-0.4 0.5c-1.4 1.9-1.6 1.7-0.4 2.8q0.2 0.2 0.4 0.4q0.2 0.2 0.3 0.4q0.2 0.2 0.4 0.4q0.1 0.2 0.3 0.4c0.4 0.8-0.5 0.9-0.5 0.9h-1.9q-0.1 0-0.3 0q-0.1 0-0.2-0.1q-0.1 0-0.2-0.1q-0.1 0-0.2-0.1c-0.7-0.5-1.4-1.7-1.9-1.6c-0.5 0.2-0.5 1.3-0.5 1.3q0 0.1 0 0.1q0 0.1 0 0.1q-0.1 0.1-0.1 0.1q0 0.1 0 0.1q-0.1 0-0.1 0.1q-0.1 0-0.1 0q-0.1 0-0.1 0q-0.1 0.1-0.1 0.1h-0.9q0 0 0 0z" />
	</g>
</svg>