<svg width="116" height="50" viewBox="0 0 116 50" xmlns="http://www.w3.org/2000/svg">
  <path d="M21.046,17.096h-3.203c0-0.242-0.608-2.074-3.183-2.074c-1.885,0-2.285,0.989-2.285,1.649
				c0,1.53,2.554,1.842,4.078,2.227c1.719,0.436,5.089,1.327,5.089,4.726c0,1.884-1.013,3.11-1.907,3.818
				c-1.18,0.919-2.829,1.39-4.762,1.39c-4.779,0-6.87-2.732-7.094-5.35h3.644c0.07,0.583,0.808,2.521,3.566,2.521
				c2.357,0,2.641-1.247,2.641-1.767c0-1.484-2.075-1.833-3.903-2.309c-1.889-0.493-5.125-1.298-5.125-4.786
				c0-2.569,1.863-4.949,6.245-4.949C20.434,12.193,21.046,16.255,21.046,17.096"/>
  <path d="M34.634,24.614c-0.169,0.881-1.31,4.218-5.754,4.218c-1.979,0-3.442-0.778-4.338-1.673
				c-0.824-0.825-1.719-2.287-1.719-4.548c0-2.64,1.178-4.125,2.12-4.926c1.393-1.178,2.899-1.344,3.96-1.344
				c2.287,0,3.725,1.037,4.527,2.004c0.731,0.873,1.39,2.309,1.39,4.337v0.611h-8.231c0,1.583,0.609,3.183,2.457,3.183
				c1.576,0,2.215-1.212,2.357-1.861H34.634z M31.214,21.291c0-0.585-0.265-2.593-2.264-2.593c-1.998,0-2.362,1.762-2.362,2.593
				H31.214z"/>
  <path d="M41.104,16.576H43.6v2.476h-2.497v5.397c0,0.424,0,0.942,0.377,1.342c0.306,0.308,0.706,0.354,1.083,0.354h1.296v2.476
				c-0.8,0.119-1.836,0.212-2.593,0.212c-0.871,0-2.049-0.188-2.828-1.014c-0.894-0.94-0.847-2.121-0.847-3.275v-5.491h-1.888
				v-2.476h1.888l0.329-3.676h3.183V16.576z"/>
  <path d="M66.107,28.597h-1.98l-0.588-1.768c-0.403,0.542-0.945,1.014-1.462,1.319c-0.872,0.496-2.004,0.684-2.993,0.684
				c-1.461,0-3.299-0.306-4.832-2.003c-1.412-1.555-2.144-4.006-2.144-6.104c0-2.146,0.612-4.549,2.026-6.176
				c1.674-1.931,3.771-2.356,5.443-2.356c4.879,0,6.255,3.257,6.483,5.704h-3.653c-0.069-0.59-0.304-1.295-0.659-1.768
				c-0.375-0.519-1.06-1.107-2.24-1.107c-0.919,0-2.004,0.377-2.711,1.743c-0.188,0.376-0.634,1.367-0.634,3.724
				c0,1.391,0.163,2.923,0.753,3.912c0.497,0.825,1.343,1.603,2.732,1.603c0.875,0,1.581-0.329,2.052-0.8
				c0.471-0.473,0.826-1.274,0.826-2.123v-0.398h-3.23v-2.759h6.812V28.597z"/>
  <path d="M68.715,28.597V16.576h3.065v2.664h0.048c0.117-0.919,0.565-1.555,0.872-1.886c0.399-0.424,1.152-1.013,2.378-1.013
				c0.215,0,0.426,0.025,0.638,0.048v3.157h-0.565c-0.59,0-1.155,0.119-1.604,0.401c-1.154,0.731-1.32,1.862-1.32,3.133v5.516
				H68.715z"/>
  <path d="M86.814,17.991c0.565,0.566,1.789,2.051,1.789,4.572c0,1.934-0.753,3.655-1.883,4.738
				c-0.824,0.778-2.169,1.532-4.077,1.532c-1.913,0-3.254-0.754-4.079-1.532c-1.13-1.083-1.885-2.804-1.885-4.738
				c0-2.521,1.227-4.006,1.793-4.572c1.391-1.368,2.99-1.65,4.171-1.65C83.821,16.341,85.423,16.623,86.814,17.991 M80.969,19.64
				c-0.567,0.873-0.613,2.027-0.613,2.922c0,1.627,0.259,2.404,0.542,2.9c0.448,0.777,1.11,1.013,1.746,1.013
				c0.633,0,1.296-0.236,1.743-1.013c0.284-0.496,0.542-1.273,0.542-2.9c0-0.896-0.046-2.05-0.611-2.922
				c-0.402-0.635-0.919-0.943-1.674-0.943S81.369,19.005,80.969,19.64z"/>
  <path d="M93.844,16.576v7.237c0,0.447,0,1.295,0.398,1.813c0.259,0.354,0.707,0.543,1.201,0.543c0.565,0,1.179-0.259,1.582-0.801
				c0.469-0.611,0.541-1.342,0.541-1.956v-6.835h3.51v12.021h-3.253v-2.146h-0.044c-0.615,1.415-1.841,2.381-3.605,2.381
				c-1.087,0-1.887-0.331-2.498-0.848c-1.181-0.991-1.347-2.358-1.347-3.606v-7.802H93.844z"/>
  <path d="M103.644,32.462V16.576h3.252v1.933c0.73-1.414,2.144-2.168,3.652-2.168c2.947,0,4.525,2.57,4.525,6.128
				c0,4.524-2.334,6.363-4.667,6.363c-1.437,0-2.519-0.589-3.25-1.768v5.397H103.644z M107.155,23.789
				c0,1.674,0.775,2.688,2.05,2.688c1.745,0,2.189-1.91,2.189-3.937c0-2.733-0.846-3.842-2.189-3.842c-1.25,0-2.05,1.062-2.05,2.499
				V23.789z"/>
  <rect x="46.493" y="10.704" width="3.571" height="17.856"/>
  <rect x="46.476" y="10.708" width="3.571" height="17.856"/>
  <polygon fill="#ED1C24" points="0,0 0,50 50.053,50 50.053,32.199 46.479,32.199 46.479,46.422 3.622,46.422 3.609,3.591
		46.479,3.578 46.479,7.155 50.053,7.155 50.053,0 	"/>
</svg>
