<svg width="222" height="50" viewBox="0 0 222 50" xmlns="http://www.w3.org/2000/svg">
	<path fill="#EE2933" d="M0.018,0.272v46.627h43.65V0.272H0.018z M19.859,35.963c0,0-6.018,2.579-7.938,4.96
		c0-7.246,0-12.613,0-19.85l-0.992,0.992l-0.992,0.991v17.866c0,0-1.678,3.916-6.932,3.982L2.994,20.081
		c0,0,4.818-0.335,8.318-3.163c0.473-0.388,1.191-1.314,1.602-1.799c0-1.833,0-4.093,0-5.96c0,0,2.885-3.132,6.945-3.968
		C19.859,15.426,19.859,25.729,19.859,35.963z M39.699,29.009c0,0-3.045,3.009-7.936,2.976c0-2.567,0-4.371,0-6.943l-1.984,1.983
		v5.952c-2.67-0.191-6.199,2.537-7.938,2.986V4.2c0,0,4.363-2.369,7.938-1.984c0,7.004,0,13.807,0,20.841l1.984-1.983
		c0,0,0-13.666,0-13.897c1.031-0.127,5.23-0.149,7.936-2.976C39.699,12.658,39.699,20.594,39.699,29.009z"/>
	<path fill="#0F171F" d="M53.432,1.707H67.82v17.829h-4.713V5.724h-4.961v11.275c0,0.63,0.01,1.12,0.043,1.48
		c0.031,0.362,0.117,0.715,0.236,1.055l-4.277,2.687c-0.477-0.948-0.721-2.259-0.721-3.91L53.432,1.707L53.432,1.707z M72.67,6.619
		c0.887-0.385,2.055-0.575,3.52-0.575h0.889c3.336,0,5.004,1.215,5.004,3.645c0,1.321-0.494,2.503-1.473,3.56
		c-0.438,0.479-0.916,0.904-1.443,1.278c-0.521,0.372-1.162,0.777-1.904,1.215c0.766,0.16,1.602,0.234,2.508,0.234h1.678
		l-1.072,3.56h-2.549c-2.1,0-3.908-0.8-5.447-2.397c-1.379-1.438-2.297-3.432-2.293-5.723C70.107,8.911,70.904,7.377,72.67,6.619z
		 M74.691,13.142c0.775-0.416,1.469-0.874,2.084-1.353c0.652-0.522,0.984-1.023,0.984-1.504c0-0.299-0.141-0.49-0.402-0.575
		c-0.268-0.086-0.496-0.105-0.895-0.105c-1.365,0-2.055,0.649-2.055,1.961C74.402,12.044,74.5,12.577,74.691,13.142z M86.029,19.535
		V9.997h-3.9l1.012-3.645h10.01l1.035,3.645h-3.918v9.538H86.029z M96.904,6.619c0.885-0.385,2.051-0.575,3.521-0.575h0.881
		c3.338,0,5.006,1.215,5.006,3.645c0,1.321-0.494,2.503-1.467,3.56c-0.441,0.479-0.922,0.904-1.443,1.278
		c-0.527,0.372-1.162,0.777-1.904,1.215c0.764,0.16,1.598,0.234,2.5,0.234h1.68l-1.064,3.56h-2.551c-2.094,0-3.908-0.8-5.439-2.397
		c-1.385-1.438-2.305-3.432-2.295-5.723C94.344,8.911,95.141,7.377,96.904,6.619z M98.93,13.142
		c0.768-0.416,1.463-0.874,2.076-1.353c0.658-0.522,0.99-1.023,0.99-1.504c0-0.299-0.145-0.49-0.408-0.575
		c-0.27-0.086-0.496-0.105-0.895-0.105c-1.365,0-2.049,0.649-2.049,1.961C98.639,12.044,98.734,12.577,98.93,13.142z
		 M112.344,24.075h-4.23V6.353h6.428c1.971,0,3.424,0.513,4.34,1.524c0.807,0.884,1.219,2.067,1.219,3.538
		c0,1.971-0.641,3.697-1.924,5.199c-1.332,1.578-3.4,2.729-5.844,3.208L112.344,24.075L112.344,24.075z M112.344,9.912v6.063
		c1.344-0.159,2.42-1.108,2.998-2.335c0.289-0.639,0.434-1.278,0.434-1.918c0-0.788-0.215-1.29-0.635-1.504
		c-0.408-0.201-0.891-0.31-1.453-0.31h-1.346L112.344,9.912L112.344,9.912z M121.744,3.891c0.377-1.269,1.086-2.229,2.135-2.889
		C124.945,0.33,126.422,0,128.303,0h3.682l1.107,3.794h-3.678c-0.949,0-1.676,0.055-2.209,0.171
		c-0.525,0.106-0.971,0.351-1.324,0.725c-0.365,0.384-0.57,0.947-0.613,1.684c0.311-0.076,0.83-0.149,1.541-0.225
		c0.723-0.075,1.281-0.106,1.699-0.106c1.715,0,3.045,0.426,4.006,1.278c0.957,0.853,1.441,2.089,1.441,3.721
		c0,1.118-0.16,2.216-0.477,3.282c-0.311,1.054-0.723,1.982-1.225,2.771c-0.527,0.819-1.182,1.503-1.969,2.036
		c-0.785,0.512-1.676,0.777-2.701,0.777c-1.262,0-2.357-0.415-3.305-1.29c-0.949-0.874-1.68-1.992-2.209-3.356
		c-0.51-1.321-0.807-2.729-0.859-4.22c-0.043-1.333-0.043-2.058-0.043-2.154C121.174,6.832,121.365,5.172,121.744,3.891z
		 M125.855,13.716c0.215,0.735,0.506,1.332,0.852,1.779c0.344,0.429,0.635,0.642,0.883,0.642c0.258,0,0.559-0.213,0.902-0.642
		c0.346-0.436,0.625-1.033,0.828-1.769c0.205-0.746,0.313-1.514,0.313-2.312c0-1.206-0.68-1.813-2.047-1.813
		s-2.055,0.606-2.055,1.813C125.531,12.203,125.631,12.971,125.855,13.716z M136.709,24.054l2.066-5.646l-4.734-12.053h5.002
		l1.916,6.244h0.043l1.922-6.245h4.672l-6.35,17.702L136.709,24.054L136.709,24.054z M152.652,24.075h-4.23V6.353h6.436
		c1.963,0,3.414,0.513,4.338,1.524c0.805,0.884,1.217,2.067,1.217,3.538c0,1.971-0.637,3.697-1.916,5.199
		c-1.344,1.578-3.408,2.729-5.85,3.208L152.652,24.075L152.652,24.075z M152.652,9.912v6.063c1.344-0.159,2.42-1.108,2.998-2.335
		c0.291-0.639,0.434-1.278,0.434-1.918c0-0.788-0.215-1.29-0.635-1.504c-0.408-0.201-0.893-0.31-1.455-0.31h-1.344L152.652,9.912
		L152.652,9.912z M162.236,6.353h8.502l1.033,3.665h-5.283v7.354c0,0.735,0.045,1.301,0.172,1.64l0.107,0.277L163,21.538
		l-0.193-0.361c-0.396-0.746-0.57-1.706-0.57-2.89V6.353L162.236,6.353z M174.725,6.769c0.742-0.288,1.605-0.416,2.605-0.416h2.668
		l1.053,3.56h-2.863c-0.559,0-1.045,0.105-1.453,0.311c-0.42,0.214-0.623,0.715-0.623,1.503c0,0.714,0.172,1.407,0.525,2.057
		c0.352,0.649,0.797,1.173,1.303,1.565c0.551,0.417,1.152,0.63,1.832,0.63h1.508l-1.063,3.56h-0.68
		c-1.484,0-2.809-0.384-3.988-1.161c-1.174-0.778-2.066-1.749-2.723-2.92c-0.678-1.216-1.033-2.559-1.033-4.037
		C171.797,9.07,172.777,7.515,174.725,6.769z M187.141,6.353v13.183h-4.236V6.353H187.141z M195.029,19.535h-4.672l-3.197-7.268
		l2.668-5.915h4.609l-2.756,5.787L195.029,19.535z M198.543,6.769c0.742-0.288,1.604-0.416,2.604-0.416h6.465v13.183h-4.252
		c-2.098,0-3.906-0.8-5.445-2.397c-1.377-1.438-2.293-3.432-2.293-5.723C195.615,9.07,196.594,7.515,198.543,6.769z M201.588,15.209
		c0.553,0.436,1.143,0.692,1.787,0.767V9.912h-1.365c-0.559,0-1.045,0.105-1.453,0.311c-0.422,0.214-0.625,0.715-0.625,1.503
		C199.932,13.142,200.631,14.43,201.588,15.209z M211.959,21.496l-3.521-2.269l0.303-0.342c0.613-0.704,1.184-1.407,1.656-2.131
		c0.484-0.724,1.023-1.641,1.633-2.759c-0.684-0.448-1.256-1.023-1.715-1.715c-0.463-0.704-0.689-1.482-0.689-2.324
		c0-1.45,0.699-2.503,1.852-3.102c0.625-0.33,1.475-0.501,2.543-0.501h7.537v13.183h-4.232V9.914h-1.75
		c-0.564,0-0.926,0.043-1.061,0.128c-0.129,0.074-0.191,0.183-0.191,0.33c0,0.245,0.15,0.545,0.439,0.874
		c0.434,0.49,1.238,1.12,2.432,1.896c-0.785,1.748-1.57,3.283-2.355,4.593c-0.775,1.311-1.646,2.484-2.654,3.528L211.959,21.496z
		 M53.432,29.485h4.715v5.627h4.961v-5.627h4.713v17.829h-4.713V39.13h-4.961v5.647c0,0.63,0.01,1.12,0.043,1.48
		c0.031,0.362,0.117,0.715,0.236,1.055L54.148,50c-0.477-0.949-0.721-2.26-0.721-3.91L53.432,29.485L53.432,29.485z M72.67,34.397
		c0.887-0.386,2.055-0.576,3.52-0.576h0.889c3.336,0,5.004,1.216,5.004,3.646c0,1.321-0.494,2.503-1.473,3.559
		c-0.438,0.479-0.916,0.907-1.443,1.279c-0.521,0.374-1.162,0.777-1.904,1.216c0.766,0.161,1.602,0.233,2.508,0.233h1.678
		l-1.072,3.561h-2.549c-2.1,0-3.908-0.801-5.447-2.398c-1.379-1.438-2.297-3.432-2.293-5.726
		C70.107,36.689,70.904,35.154,72.67,34.397z M74.691,40.919c0.775-0.416,1.469-0.874,2.084-1.353
		c0.652-0.52,0.984-1.022,0.984-1.503c0-0.299-0.141-0.49-0.402-0.576c-0.268-0.085-0.496-0.104-0.895-0.104
		c-1.365,0-2.055,0.649-2.055,1.962C74.402,39.822,74.5,40.354,74.691,40.919z M95.754,47.313H83.721l-1.033-3.56h1.205
		c-0.053-0.289-0.086-0.703-0.086-1.248c0-1.675,0.367-3.145,1.088-4.422c0.732-1.278,1.701-2.252,2.906-2.913
		c1.279-0.69,3.029-1.044,5.24-1.044h2.316v9.623h1.43L95.754,47.313z M88.178,43.754h2.926v-5.893
		c-2.049,0.479-3.082,1.929-3.082,4.349C88.016,42.795,88.07,43.316,88.178,43.754z M98.131,47.313V34.13h7.223
		c1.475,0,2.551,0.319,3.24,0.959c0.682,0.63,1.021,1.397,1.021,2.294c0,0.99-0.504,1.907-1.527,2.771
		c0.838,0.66,1.467,1.449,1.828,2.354c0.205,0.521,0.291,0.98,0.291,1.377c0,0.947-0.387,1.757-1.146,2.429
		c-0.764,0.672-2.012,1.003-3.729,1.003L98.131,47.313L98.131,47.313z M102.361,37.689v6.064h2.045c0.723,0,1.088-0.213,1.088-0.651
		c0-0.286-0.129-0.563-0.393-0.831c-0.217-0.213-0.604-0.5-1.18-0.874l-1.344-0.895c0.744-0.469,1.357-0.927,1.83-1.374
		c0.355-0.331,0.529-0.599,0.529-0.81c0-0.512-0.4-0.63-1.207-0.63H102.361z M113.789,34.13h4.34
		c-0.098,0.277-0.281,0.725-0.518,1.343l-0.559,1.471c-0.141,0.372-0.291,0.831-0.465,1.374c-0.16,0.544-0.303,1.056-0.395,1.534
		c-0.131,0.608-0.195,1.174-0.195,1.676c0,1.364,0.512,2.035,1.676,2.165c0.332,0.042,0.752,0.062,1.26,0.062h0.469v-9.621h4.23
		v13.182h-6.758c-3.564,0-5.342-1.834-5.342-5.499C111.52,39.885,112.273,37.329,113.789,34.13z M132.227,40.131l-2.172,7.183
		h-4.967l2.551-7.334l-1.98-5.85h4.789L132.227,40.131z M136.529,34.13v13.184h-4.229V34.13H136.529z M143.766,47.313h-4.982
		l-2.184-7.183l1.787-6.001h4.777l-1.98,5.85L143.766,47.313z M146.818,34.13h4.34c-0.1,0.277-0.281,0.725-0.518,1.343l-0.561,1.471
		c-0.139,0.372-0.291,0.831-0.463,1.374c-0.16,0.544-0.301,1.056-0.396,1.534c-0.131,0.608-0.188,1.174-0.188,1.676
		c0,1.364,0.506,2.035,1.668,2.165c0.336,0.042,0.754,0.062,1.262,0.062h0.469v-9.621h4.23v13.182h-6.758
		c-3.566,0-5.342-1.834-5.342-5.499C144.549,39.885,145.301,37.329,146.818,34.13z M163.586,40.46v6.854h-4.236V34.13h3.859
		l2.691,3.4l2.691-3.4h3.854v13.184h-4.23V40.46l-2.314,2.943L163.586,40.46z M174.801,36.879c0.205-0.734,0.711-1.426,1.518-2.079
		c0.828-0.648,2.033-0.979,3.637-0.979h1.852c1.598,0,2.803,0.33,3.639,0.979c0.807,0.651,1.307,1.345,1.51,2.079
		c0.193,0.725,0.291,1.376,0.291,1.939c0,1.12-0.16,2.217-0.475,3.286c-0.311,1.055-0.723,1.981-1.225,2.771
		c-0.527,0.818-1.18,1.502-1.965,2.034c-0.787,0.513-1.678,0.779-2.707,0.779c-1.258,0-2.377-0.417-3.346-1.292
		c-0.969-0.873-1.715-2.003-2.25-3.376c-0.518-1.354-0.775-2.748-0.775-4.198C174.51,38.255,174.607,37.604,174.801,36.879z
		 M179.148,41.495c0.215,0.734,0.508,1.333,0.85,1.778c0.346,0.429,0.637,0.642,0.883,0.642c0.26,0,0.559-0.213,0.904-0.642
		c0.346-0.434,0.625-1.033,0.83-1.768c0.203-0.745,0.311-1.512,0.311-2.313c0-1.203-0.684-1.81-2.047-1.81s-2.055,0.606-2.055,1.81
		C178.824,39.981,178.924,40.749,179.148,41.495z M191.471,34.546c0.742-0.288,1.604-0.416,2.604-0.416h2.668l1.055,3.56h-2.863
		c-0.559,0-1.045,0.106-1.455,0.31c-0.418,0.215-0.623,0.716-0.623,1.505c0,0.715,0.172,1.406,0.527,2.057
		c0.35,0.647,0.797,1.173,1.303,1.565c0.551,0.417,1.152,0.631,1.832,0.631h1.508l-1.064,3.56h-0.678
		c-1.486,0-2.811-0.385-3.99-1.163c-1.174-0.776-2.064-1.748-2.715-2.92c-0.684-1.216-1.035-2.555-1.035-4.037
		C188.543,36.849,189.523,35.292,191.471,34.546z M202.092,47.313v-9.539h-3.896l1.014-3.645h10.01l1.031,3.645h-3.916v9.539
		H202.092z M211.336,47.313V34.13h4.23v2.92c1.547,0.63,2.799,1.267,3.768,1.927c0.922,0.629,1.592,1.29,2.025,1.982
		c0.426,0.671,0.623,1.406,0.623,2.227c0,1.547-0.811,2.804-2.049,3.517c-0.688,0.405-1.59,0.608-2.668,0.608L211.336,47.313
		L211.336,47.313z M215.566,43.775h0.785c0.871,0,1.303-0.19,1.303-0.587c0-0.309-0.15-0.606-0.463-0.917
		c-0.311-0.31-0.861-0.682-1.633-1.118L215.566,43.775L215.566,43.775z"/>
</svg>
