<svg width="75" height="77" viewBox="0 0 75 77" fill="none" xmlns="http://www.w3.org/2000/svg">
<path d="M0 57.58C0 68.922 5.618 76.342 16.96 76.342C28.408 76.342 34.026 68.922 34.026 57.58V19.314C34.026 7.97201 28.408 0.658005 16.96 0.658005C5.618 0.658005 0 7.97201 0 19.314V57.58ZM8.162 18.89C8.162 12.106 11.024 8.078 16.96 8.078C23.002 8.078 25.758 12.106 25.758 18.89V58.11C25.758 64.788 23.002 68.816 16.96 68.816C11.024 68.816 8.162 64.788 8.162 58.11V18.89Z" fill="#635854"/>
<path d="M47.5592 75.6H55.8272L74.9072 8.608V1.4H41.3052V8.82H66.5332L47.5592 75.6Z" fill="#635854"/>
</svg>
