<svg version="1.2" baseProfile="tiny-ps" xmlns="http://www.w3.org/2000/svg" viewBox="0 0 16 16" width="16" height="16">
	<title>auth-svg</title>
	<style>
		tspan { white-space:pre }
		.s0 { fill: #b6a086 } 
	</style>
	<path id="Layer" fill-rule="evenodd" class="s0" d="m8 0c0.53 0 1.05 0.1 1.53 0.3c0.49 0.2 0.93 0.5 1.3 0.87c0.37 0.37 0.67 0.81 0.87 1.3c0.2 0.49 0.3 1.01 0.3 1.53c0 0.53-0.1 1.05-0.3 1.53c-0.2 0.49-0.5 0.93-0.87 1.3c-0.37 0.37-0.81 0.67-1.3 0.87c-0.49 0.2-1.01 0.3-1.53 0.3c-0.53 0-1.05-0.1-1.53-0.3c-0.49-0.2-0.93-0.5-1.3-0.87c-0.37-0.37-0.67-0.81-0.87-1.3c-0.2-0.49-0.3-1.01-0.3-1.53c0-0.53 0.1-1.05 0.3-1.53c0.2-0.49 0.5-0.93 0.87-1.3c0.37-0.37 0.81-0.67 1.3-0.87c0.49-0.2 1.01-0.3 1.53-0.3zm0 2c-0.26 0-0.52 0.05-0.77 0.15c-0.24 0.1-0.46 0.25-0.65 0.43c-0.19 0.19-0.33 0.41-0.43 0.65c-0.1 0.24-0.15 0.5-0.15 0.77c0 0.26 0.05 0.52 0.15 0.77c0.1 0.24 0.25 0.46 0.43 0.65c0.19 0.19 0.41 0.33 0.65 0.43c0.24 0.1 0.5 0.15 0.77 0.15c0.26 0 0.52-0.05 0.77-0.15c0.24-0.1 0.46-0.25 0.65-0.43c0.19-0.19 0.33-0.41 0.43-0.65c0.1-0.24 0.15-0.5 0.15-0.77c0-0.26-0.05-0.52-0.15-0.77c-0.1-0.24-0.25-0.46-0.43-0.65c-0.19-0.19-0.41-0.33-0.65-0.43c-0.24-0.1-0.5-0.15-0.77-0.15zm0 7c2.67 0 8 1.33 8 4v3h-16v-3c0-2.67 5.33-4 8-4zm0 1.9c-2.97 0-6.1 1.46-6.1 2.1v1.1h12.2v-1.1c0-0.64-3.13-2.1-6.1-2.1z" />
</svg>