<svg version="1.2" baseProfile="tiny-ps" xmlns="http://www.w3.org/2000/svg" viewBox="0 0 47 49" width="47" height="49">
	<title>logo-svg</title>
	<style>
		tspan { white-space:pre }
		.s0 { fill: #ff0d29 } 
		.s1 { fill: #ffffff } 
	</style>
	<path id="Background-3" class="s0" d="m0 0.01h46.99v48.98h-46.99v-48.97v-0.01z" />
	<path id="Icon-25" class="s1" d="m34 33.99v-6.99l-2 1v6c-2.81-0.2-6.17 2.52-8 3v-33c0 0 4.24-2.41 8-2v22l2-1v-16c1.09-0.13 6.15-0.38 9-3.39v26.97c-0.63 0.52-1.3 0.99-2 1.41c-0.71 0.41-1.44 0.77-2.21 1.06c-0.76 0.29-1.55 0.52-2.35 0.68c-0.8 0.16-1.62 0.25-2.43 0.28zm-19.98-12.97l-1.15 1.23l-0.87 0.74v20c-0.45 0.63-0.98 1.2-1.57 1.71c-0.59 0.5-1.24 0.93-1.93 1.28c-0.69 0.35-1.43 0.61-2.19 0.78c-0.76 0.17-1.53 0.25-2.31 0.23l0-26.2c0.8-0.08 1.59-0.22 2.37-0.4c0.78-0.19 1.55-0.42 2.29-0.71c0.75-0.29 1.48-0.62 2.18-1c0.7-0.38 1.38-0.81 2.03-1.28c0.11-0.09 0.21-0.19 0.31-0.28c0.1-0.1 0.2-0.2 0.3-0.3c0.1-0.1 0.19-0.21 0.28-0.31c0.09-0.11 0.18-0.22 0.26-0.33v-6.18c0 0 3.64-4.12 7.98-5v33c0 0-5.93 1.85-7.98 4.37v-21.35h0z" />
</svg>