<svg  xmlns="http://www.w3.org/2000/svg">
<path  d="M230.767,20.92V9.465h-2.146a2.9,2.9,0,0,0-1.146.135,0.375,0.375,0,0,0-.207.349,2.182,2.182,0,0,0,.479,1.214,18.332,18.332,0,0,0,2.89,2,45.272,45.272,0,0,1-2.809,4.851,26.858,26.858,0,0,1-3.256,4.3l-0.242.248-3.479-2.541,0.322-.36a26.834,26.834,0,0,0,1.914-2.68c0.521-.765,1.093-1.733,1.736-2.916A6.413,6.413,0,0,1,223,12.255a4.335,4.335,0,0,1-.736-2.454,3.5,3.5,0,0,1,1.979-3.275A5.87,5.87,0,0,1,226.951,6H235V20.92h-4.233Zm-21.285-2.66A9.6,9.6,0,0,1,207,11.753c0-2.666,1.062-4.434,3.172-5.282A7.45,7.45,0,0,1,212.992,6h7V20.986h-4.606A7.752,7.752,0,0,1,209.482,18.26Zm5.924-8.216h-1.481a3.377,3.377,0,0,0-1.575.352,1.772,1.772,0,0,0-.676,1.708,5.291,5.291,0,0,0,1.8,3.962,3.7,3.7,0,0,0,1.938.873l0-6.895h0ZM201.975,20.986l-3.712-8.264L201.411,6h4.929l-2.948,6.579,3.582,8.409h-5ZM194.005,6h4.236V20.986h-4.236V6h0Zm-4.54,10.226a2.966,2.966,0,0,0,1.929.715h1.6l-1.123,4.046h-0.726a6.984,6.984,0,0,1-4.188-1.321,9.16,9.16,0,0,1-2.87-3.321,9.823,9.823,0,0,1-1.09-4.592c0-2.666,1.022-4.434,3.087-5.282A7.053,7.053,0,0,1,188.825,6h2.813l1.112,4.046h-3.021a3.126,3.126,0,0,0-1.521.352,1.793,1.793,0,0,0-.658,1.708,5.144,5.144,0,0,0,.557,2.339A5.336,5.336,0,0,0,189.465,16.223Zm-12.018,1.389a5.515,5.515,0,0,0,.181,1.73l0.112,0.292L173.793,22l-0.2-.382a6.489,6.489,0,0,1-.6-3.044V6H181.9l1.083,3.864h-5.537v7.751h0Zm-13.866,2.821V25.99H159V6h6.974a6.092,6.092,0,0,1,4.7,1.633,5.379,5.379,0,0,1,1.318,3.791,8.265,8.265,0,0,1-2.076,5.573A11.033,11.033,0,0,1,163.581,20.433Zm3.031-10.289a3.573,3.573,0,0,0-1.573-.332h-1.458v6.5a4.205,4.205,0,0,0,3.241-2.5,4.928,4.928,0,0,0,.478-2.056A1.634,1.634,0,0,0,166.612,10.143ZM146.756,25l2.135-6.063L144,6h5.169l1.979,6.7H151.2L153.182,6h4.825l-6.565,19h-4.686ZM137.138,4.175a2.5,2.5,0,0,0-1.347.765,2.787,2.787,0,0,0-.625,1.778,13.4,13.4,0,0,1,1.563-.236,16.906,16.906,0,0,1,1.73-.113,5.779,5.779,0,0,1,4.074,1.35A5.08,5.08,0,0,1,144,11.645a12.693,12.693,0,0,1-.482,3.464,11.254,11.254,0,0,1-1.249,2.926,7.023,7.023,0,0,1-2,2.149,4.789,4.789,0,0,1-2.749.821,4.675,4.675,0,0,1-3.354-1.361,9.325,9.325,0,0,1-2.246-3.543,14.053,14.053,0,0,1-.876-4.455c-0.047-1.407-.047-2.172-0.047-2.273a19.4,19.4,0,0,1,.581-5.276,5.169,5.169,0,0,1,2.18-3.049A8.174,8.174,0,0,1,138.255,0H142l1.128,3.994-3.746-.01A10.423,10.423,0,0,0,137.138,4.175Zm-1.38,10.293a5.813,5.813,0,0,0,.865,1.879,1.389,1.389,0,0,0,.9.675,1.375,1.375,0,0,0,.92-0.675,5.335,5.335,0,0,0,.854-1.868,9.5,9.5,0,0,0,.313-2.441c0-1.271-.688-1.913-2.081-1.913s-2.092.642-2.092,1.913A8.5,8.5,0,0,0,135.758,14.469Zm-14.17,5.964V25.99h-4.583V6h6.974a6.075,6.075,0,0,1,4.7,1.633A5.379,5.379,0,0,1,130,11.421a8.265,8.265,0,0,1-2.076,5.573A11.024,11.024,0,0,1,121.588,20.433Zm3.032-10.289a3.543,3.543,0,0,0-1.574-.332h-1.458v6.5a4.208,4.208,0,0,0,3.242-2.5,4.928,4.928,0,0,0,.478-2.056A1.632,1.632,0,0,0,124.62,10.143Zm-11.789,5.273q-0.856.622-2.064,1.351a13.013,13.013,0,0,0,2.728.261h1.813l-1.151,3.957H111.39a7.813,7.813,0,0,1-5.895-2.667,9.249,9.249,0,0,1-2.479-6.364c0.021-2.785.886-4.491,2.8-5.332a9.5,9.5,0,0,1,3.812-.63h0.956c3.605,0,5.423,1.341,5.423,4.042a5.727,5.727,0,0,1-1.6,3.957A10.249,10.249,0,0,1,112.831,15.417Zm-1.959-5.357a2.843,2.843,0,0,0-.968-0.118,1.95,1.95,0,0,0-2.229,2.181,5.592,5.592,0,0,0,.315,1.754,15.585,15.585,0,0,0,2.25-1.5A2.329,2.329,0,0,0,111.3,10.7,0.59,0.59,0,0,0,110.872,10.059ZM98.755,20.986H94.183V9.865h-4.2L91.084,6h10.792l1.1,3.867H98.756v11.12h0ZM86.82,15.417c-0.572.415-1.271,0.865-2.064,1.351a12.987,12.987,0,0,0,2.718.261h1.819l-1.155,3.957H85.374a7.825,7.825,0,0,1-5.9-2.667,9.2,9.2,0,0,1-2.479-6.364c0.021-2.785.887-4.491,2.8-5.332a9.5,9.5,0,0,1,3.813-.63h0.957c3.616,0,5.423,1.341,5.423,4.042a5.694,5.694,0,0,1-1.6,3.957A10.129,10.129,0,0,1,86.82,15.417Zm-1.96-5.357a2.808,2.808,0,0,0-.968-0.118,1.95,1.95,0,0,0-2.228,2.181,5.611,5.611,0,0,0,.313,1.754,15.65,15.65,0,0,0,2.251-1.5A2.35,2.35,0,0,0,85.3,10.7,0.606,0.606,0,0,0,84.86,10.059ZM83.616,33.99h0.958c3.625,0,5.437,1.341,5.437,4.042a5.739,5.739,0,0,1-1.6,3.957,9.94,9.94,0,0,1-1.567,1.422q-0.859.622-2.069,1.351a13.054,13.054,0,0,0,2.729.261h1.824L88.167,48.98H85.4a7.865,7.865,0,0,1-5.916-2.667A9.166,9.166,0,0,1,77,39.95c0.021-2.785.891-4.491,2.808-5.332A9.462,9.462,0,0,1,83.616,33.99Zm-1.625,7.882a15.662,15.662,0,0,0,2.256-1.5A2.349,2.349,0,0,0,85.323,38.7a0.609,0.609,0,0,0-.444-0.64,2.855,2.855,0,0,0-.97-0.118,1.951,1.951,0,0,0-2.233,2.181A5.534,5.534,0,0,0,81.991,41.872Zm-12.9-2.822-5.172.02V45.4c0,0.674.012,1.2,0.045,1.588a4.873,4.873,0,0,0,.247,1.131L59.756,51A9.6,9.6,0,0,1,59,46.807V29h4.914v6.034h5.172V29H74V48.974H69.089V39.05ZM69,5.039H63.646l0.268,12.366c0,0.674.011,1.2,0.045,1.588a4.885,4.885,0,0,0,.247,1.131L59.752,23A9.533,9.533,0,0,1,59,18.81V1.006H74V20.979H69.081ZM91.2,43.517a10.724,10.724,0,0,1,1.146-5.028,8.25,8.25,0,0,1,3.086-3.307A11.11,11.11,0,0,1,101,33.994h2.187V44.935h1.792l-1.1,4.046H91.1L90,44.935h1.281A9.809,9.809,0,0,1,91.2,43.517Zm4.642,1.418h3.11v-6.7q-3.282.817-3.281,4.943A7.87,7.87,0,0,0,95.839,44.935Zm21.421-9.852a3.527,3.527,0,0,1,1.1,2.6,4.243,4.243,0,0,1-1.646,3.151,6.5,6.5,0,0,1,1.968,2.678A4.326,4.326,0,0,1,119,45.079a3.642,3.642,0,0,1-1.238,2.763,5.791,5.791,0,0,1-4,1.139h-7.743V33.993h7.77A4.806,4.806,0,0,1,117.26,35.084Zm-4.5,4.592a1.508,1.508,0,0,0,.567-0.921c0-.582-0.438-0.715-1.3-0.715h-1.479v6.895h2.2c0.771,0,1.169-.243,1.169-0.739a1.353,1.353,0,0,0-.429-0.945,8.46,8.46,0,0,0-1.271-.994l-1.438-1.018A12.694,12.694,0,0,0,112.757,39.676ZM127.1,33.994c-0.105.315-.3,0.824-0.556,1.527l-0.6,1.672q-0.219.636-.5,1.563c-0.174.618-.313,1.2-0.429,1.745a9.763,9.763,0,0,0-.208,1.9c0,1.551.544,2.314,1.794,2.46a10.5,10.5,0,0,0,1.353.073h0.789V33.994h4.258V48.981h-7.27c-3.832,0-5.731-2.084-5.731-6.252q0-3.289,2.438-8.736H127.1Zm7.5,0h5.131l1.9,6.821L139.3,48.981H133.99l2.729-8.336Zm11.529,14.988h-4.316V33.994h4.316V48.981Zm7.218-14.988-2.122,6.652,2.768,8.336h-5.338l-2.35-8.167,1.913-6.821h5.129Zm7.754,0c-0.1.315-.3,0.824-0.556,1.527l-0.6,1.672c-0.15.424-.313,0.945-0.5,1.563s-0.324,1.2-.438,1.745a9.763,9.763,0,0,0-.208,1.9c0,1.551.544,2.314,1.794,2.46a10.512,10.512,0,0,0,1.354.073h0.9V33.994h4.149V48.981h-7.27c-3.831,0-5.733-2.084-5.733-6.252q0-3.289,2.438-8.736H161.1ZM176,37.859l2.875-3.865h4.117V48.981h-4.271V41.191l-2.727,3.344-2.729-3.344v7.791H169V33.994h4.116Zm10.849-2.818a5.667,5.667,0,0,1,3.71-1.053h1.9a5.669,5.669,0,0,1,3.71,1.053,4.6,4.6,0,0,1,1.548,2.251,8.729,8.729,0,0,1,.3,2.1,13.511,13.511,0,0,1-.479,3.556,11.579,11.579,0,0,1-1.252,3,7.329,7.329,0,0,1-2.013,2.206,4.716,4.716,0,0,1-2.755.843,4.779,4.779,0,0,1-3.415-1.4,9.434,9.434,0,0,1-2.293-3.66,13.427,13.427,0,0,1-.791-4.548,9.04,9.04,0,0,1,.3-2.1A4.491,4.491,0,0,1,186.846,35.042Zm2.888,7.251a6.259,6.259,0,0,0,.856,1.929,0.945,0.945,0,0,0,1.822,0,5.553,5.553,0,0,0,.845-1.917,9.946,9.946,0,0,0,.318-2.506,2.1,2.1,0,0,0-4.186,0A9.631,9.631,0,0,0,189.734,42.292Zm15.087-8.3h2.812l1.112,4.046h-3.02a3.125,3.125,0,0,0-1.521.352,1.793,1.793,0,0,0-.658,1.708,5.13,5.13,0,0,0,.556,2.339,5.64,5.64,0,0,0,1.373,1.781,2.966,2.966,0,0,0,1.935.715h1.579l-1.124,4.046h-0.719a7,7,0,0,1-4.194-1.321,9.145,9.145,0,0,1-2.871-3.32,9.812,9.812,0,0,1-1.091-4.592c0-2.666,1.022-4.434,3.087-5.282A7.076,7.076,0,0,1,204.821,33.994Zm17.056,0,1.114,3.867h-4.229V48.981H214.2V37.861H210l1.091-3.867h10.788Zm6.476,3.321a20.379,20.379,0,0,1,3.9,2.193,7.607,7.607,0,0,1,2.09,2.254,4.971,4.971,0,0,1,.646,2.533,4.657,4.657,0,0,1-2.122,4,5.049,5.049,0,0,1-2.768.691h-6.106V33.994h4.367v3.32h0Zm0,7.646h0.813c0.9,0,1.345-.218,1.345-0.667a1.5,1.5,0,0,0-.478-1.042,8.852,8.852,0,0,0-1.678-1.272v2.981h0Z"/>
</svg>